<?xml version="1.0" encoding="utf-8"?>
<!-- Generator: Adobe Illustrator 26.0.3, SVG Export Plug-In . SVG Version: 6.00 Build 0)  -->
<svg version="1.1" id="Layer_1" xmlns="http://www.w3.org/2000/svg" xmlns:xlink="http://www.w3.org/1999/xlink" x="0px" y="0px"
	 viewBox="0 0 612 792" style="enable-background:new 0 0 612 792;" xml:space="preserve">
<style type="text/css">
	.st0{fill:#F8962F;}
	.st1{fill:#FFFFFF;stroke:#FFFFFF;stroke-miterlimit:10;}
	.st2{stroke:#FFFFFF;stroke-miterlimit:10;}
	.st3{fill:none;stroke:#000000;stroke-width:3;stroke-miterlimit:10;}
	.st4{stroke:#000000;stroke-width:4;stroke-miterlimit:10;}
	.st5{fill:#231F20;}
	.st6{font-family:'ArialMT';}
	.st7{font-size:17px;}
</style>
<ellipse class="st0" cx="367.14" cy="114.31" rx="61.14" ry="54.27"/>
<circle class="st1" cx="233.77" cy="420.11" r="100.29"/>
<circle class="st1" cx="233.77" cy="288.79" r="70.11"/>
<circle class="st1" cx="233.77" cy="198.85" r="50.29"/>
<circle class="st2" cx="217.1" cy="177.01" r="6.61"/>
<circle class="st2" cx="249.06" cy="177.01" r="6.61"/>
<path class="st3" d="M207.05,206.03c0.34,2.69,1.56,9.31,6.9,14.94c8.45,8.93,20.39,8.16,21.84,8.05l0,0
	c5.46-2.73,12.34-5.42,20.69-8.05"/>
<rect x="177.74" y="141.67" class="st4" width="112.07" height="13.79"/>
<rect x="203.05" y="78.45" class="st4" width="63.22" height="63.22"/>
<text transform="matrix(1 0 0 1 334.0599 110.0601)" class="st5 st6 st7">YOU’RE  </text>
<text transform="matrix(1 0 0 1 334.0599 130.4601)" class="st5 st6 st7">AWESOME!</text>
<rect x="310.8" y="136.46" class="st0" width="23.48" height="23.48"/>
</svg>
