<?xml version="1.0" encoding="utf-8"?>
<!-- Generator: Adobe Illustrator 27.0.0, SVG Export Plug-In . SVG Version: 6.00 Build 0)  -->
<svg version="1.1" id="Layer_1" xmlns="http://www.w3.org/2000/svg" xmlns:xlink="http://www.w3.org/1999/xlink" x="0px" y="0px"
	 viewBox="0 0 800 800" style="enable-background:new 0 0 800 800;" xml:space="preserve">
<style type="text/css">
	.st0{fill:#FFFFFF;}
	.st1{opacity:0.28;}
</style>
<g>
	<g>
		<path class="st0" d="M-60,233.5c1.93,0,1.93-3,0-3C-61.93,230.5-61.93,233.5-60,233.5L-60,233.5z"/>
	</g>
</g>
<g class="st1">
	<g>
		<path d="M840,324.5c1.93,0,1.93-3,0-3C838.07,321.5,838.07,324.5,840,324.5L840,324.5z"/>
	</g>
</g>
<g>
	<g>
		<path d="M210.17,143.27c-6.32,12.78-12.89,26.44-12.28,41.07c0.31,7.44,2.34,14.66,4.65,21.68c1.98,6.01,4.28,11.91,6.79,17.73
			c9.65,22.41,23.46,43.06,40.26,60.74c9.54,10.04,20.13,19.07,31.48,27.01c2.58,1.81,6.78,0.55,8.21-2.15
			c1.62-3.07,0.6-6.28-2.15-8.21c-2.44-1.7-4.83-3.47-7.19-5.27c-0.69-0.53,1.17,0.92,0.12,0.09c-0.31-0.25-0.62-0.49-0.93-0.73
			c-0.52-0.41-1.03-0.82-1.55-1.24c-1.23-0.99-2.46-2-3.66-3.03c-4.43-3.75-8.7-7.7-12.8-11.83c-4.09-4.13-8.01-8.43-11.73-12.89
			c-0.93-1.12-1.85-2.24-2.76-3.38c-0.41-0.52-0.82-1.03-1.23-1.55c-0.2-0.26-1.04-1.37-0.03-0.04c-0.24-0.32-0.48-0.63-0.72-0.94
			c-1.76-2.31-3.47-4.66-5.13-7.05c-6.72-9.65-12.6-19.87-17.55-30.53c-0.58-1.26-1.15-2.52-1.71-3.79c-0.29-0.67-0.58-1.33-0.86-2
			c-0.53-1.23,0.4,0.97,0.07,0.16c-0.18-0.43-0.35-0.85-0.53-1.28c-1.1-2.69-2.14-5.4-3.12-8.14c-2.15-6-4.21-12.13-5.36-18.41
			c-0.08-0.46-0.15-0.93-0.24-1.39c-0.1-0.69-0.1-0.62,0.02,0.2c-0.04-0.31-0.08-0.62-0.11-0.94c-0.1-0.94-0.17-1.88-0.21-2.82
			c-0.07-1.79-0.03-3.59,0.12-5.37c0.04-0.44,0.09-0.89,0.13-1.33c0.13-1.38-0.19,1.09,0.02-0.17c0.16-0.95,0.32-1.91,0.51-2.85
			c0.38-1.83,0.85-3.64,1.39-5.42c0.52-1.73,1.12-3.44,1.76-5.13c0.35-0.92,0.71-1.84,1.09-2.75c0.13-0.32,0.51-1.33,0.01-0.04
			c0.22-0.57,0.48-1.12,0.73-1.67c1.54-3.47,3.21-6.87,4.89-10.27c1.39-2.81,0.85-6.62-2.15-8.21
			C215.67,139.68,211.65,140.26,210.17,143.27L210.17,143.27z"/>
	</g>
</g>
<g>
	<g>
		<path d="M227.6,252.61c-4.62,13.83-9.33,28.5-7.5,43.27c1.68,13.62,8.3,26.16,15.69,37.53c13.07,20.12,30.6,37.23,50.96,49.92
			c11.41,7.11,23.78,12.78,36.6,16.83c2.99,0.94,6.68-1.11,7.38-4.19c0.74-3.27-0.98-6.37-4.19-7.38c-2.75-0.87-5.48-1.81-8.18-2.83
			c-1.26-0.48-2.51-0.97-3.76-1.48c-0.29-0.12-0.76-0.42-1.07-0.44c0.85,0.07,0.94,0.4,0.37,0.16c-0.76-0.33-1.53-0.66-2.29-1
			c-5.21-2.33-10.28-4.94-15.2-7.83c-4.87-2.85-9.58-5.97-14.11-9.33c-0.52-0.38-1.03-0.77-1.54-1.15c-0.27-0.21-1.34-1.05-0.01,0
			c-0.2-0.16-0.41-0.31-0.61-0.47c-1.21-0.95-2.41-1.91-3.59-2.9c-2.17-1.8-4.29-3.66-6.36-5.58c-4.14-3.83-8.08-7.88-11.79-12.13
			c-1.85-2.12-3.64-4.3-5.39-6.52c-0.84-1.07,0.82,1.09,0,0c-0.19-0.26-0.39-0.51-0.58-0.76c-0.43-0.56-0.85-1.13-1.26-1.7
			c-0.83-1.14-1.65-2.28-2.46-3.44c-3.25-4.69-6.24-9.56-8.94-14.58c-0.74-1.38-1.46-2.76-2.14-4.16c-0.33-0.67-0.65-1.35-0.97-2.03
			c-0.19-0.41-0.37-0.82-0.56-1.23c-0.07-0.15-0.74-1.78-0.41-0.93c0.36,0.9-0.18-0.47-0.21-0.53c-0.17-0.42-0.33-0.83-0.49-1.25
			c-0.26-0.7-0.51-1.4-0.75-2.11c-0.57-1.69-1.07-3.41-1.48-5.16c-0.2-0.87-0.39-1.75-0.54-2.63c-0.05-0.29-0.1-0.59-0.15-0.88
			c-0.1-0.69-0.1-0.62,0.01,0.19c-0.04-0.31-0.08-0.62-0.11-0.94c-0.2-1.87-0.29-3.75-0.29-5.63c0-2.03,0.12-4.07,0.33-6.09
			c0.03-0.31,0.07-0.62,0.1-0.94c0.04-0.31,0.08-0.62,0.12-0.93c-0.11,0.82-0.12,0.88-0.02,0.19c0.15-0.93,0.3-1.87,0.47-2.8
			c1.45-7.83,3.95-15.42,6.47-22.95c1-2.98-1.15-6.69-4.19-7.38C231.66,247.66,228.66,249.42,227.6,252.61L227.6,252.61z"/>
	</g>
</g>
<g>
	<g>
		<path d="M249.05,347.64c0.02,0.16,0.11,0.92,0.02,0.09c-0.09-0.88,0.01,0.09,0.04,0.31c0.05,0.44,0.1,0.89,0.14,1.33
			c0.1,1.04,0.18,2.07,0.24,3.11c0.11,2.01,0.15,4.03,0.13,6.05c-0.03,4.06-0.28,8.12-0.53,12.17c-0.5,7.99-1.09,16.05-0.13,24.03
			c1.04,8.62,3.66,16.7,8.46,23.99c4.28,6.5,9.64,12.31,15.35,17.58c10.52,9.69,22.62,17.63,35.56,23.69
			c13.09,6.12,26.88,10.58,41.02,13.51c14.26,2.96,28.84,4.54,43.39,4.92c1.76,0.05,3.51,0.07,5.27,0.09c3.14,0.02,6.14-2.78,6-6
			c-0.15-3.27-2.64-5.97-6-6c-6.93-0.05-13.85-0.36-20.75-0.97c-3.47-0.3-6.93-0.7-10.38-1.14c-0.69-0.09,0.65,0.09,0.62,0.08
			c-0.26-0.04-0.52-0.07-0.78-0.11c-0.39-0.05-0.78-0.11-1.17-0.17c-0.91-0.13-1.82-0.27-2.73-0.41c-1.69-0.27-3.37-0.55-5.05-0.86
			c-6.83-1.24-13.59-2.81-20.26-4.74c-3.37-0.98-6.72-2.06-10.03-3.23c-1.59-0.56-3.17-1.15-4.74-1.76
			c-0.78-0.3-1.56-0.62-2.34-0.93c-0.36-0.15-0.72-0.29-1.08-0.44c-0.18-0.07-0.36-0.15-0.54-0.22c0.54,0.21,1,0.43,0.19,0.08
			c-6.26-2.69-12.34-5.77-18.17-9.29c-2.9-1.75-5.74-3.61-8.51-5.58c-0.68-0.48-1.35-0.97-2.02-1.47c-0.31-0.23-0.62-0.46-0.92-0.69
			c-0.15-0.12-0.31-0.23-0.46-0.35c-0.76-0.57,0.25,0.26,0.3,0.23c-0.15,0.08-1.74-1.37-1.96-1.55c-0.7-0.57-1.39-1.14-2.08-1.72
			c-5.4-4.57-10.52-9.59-14.92-15.14c-0.12-0.15-0.25-0.39-0.4-0.51c0.02,0.02,0.68,0.9,0.29,0.36c-0.29-0.4-0.6-0.8-0.89-1.21
			c-0.58-0.81-1.15-1.63-1.69-2.47c-1.01-1.55-1.94-3.15-2.77-4.8c-0.19-0.38-0.38-0.76-0.56-1.15c-0.12-0.26-0.24-0.52-0.36-0.77
			c-0.07-0.14-0.34-0.82-0.04-0.07c0.32,0.8-0.18-0.46-0.26-0.67c-0.21-0.55-0.41-1.11-0.6-1.66c-0.61-1.81-1.1-3.65-1.48-5.52
			c-0.19-0.93-0.35-1.86-0.5-2.8c-0.19-1.17,0.11,1.04-0.02-0.14c-0.06-0.58-0.13-1.16-0.19-1.74c-0.18-1.9-0.27-3.81-0.31-5.72
			c-0.08-3.95,0.1-7.9,0.33-11.84c0.47-8.01,1.19-16.04,0.63-24.06c-0.16-2.32-0.45-4.62-0.8-6.91c-0.21-1.38-1.61-2.91-2.76-3.59
			c-1.29-0.75-3.18-1.07-4.62-0.6c-1.45,0.47-2.85,1.37-3.59,2.76C248.85,344.53,248.8,345.95,249.05,347.64L249.05,347.64z"/>
	</g>
</g>
<g>
	<g>
		<path d="M129.3,424.56c26.37,13.79,54.18,24.89,82.8,33.03c28.5,8.11,57.85,13.28,87.4,15.51c16.45,1.24,32.98,1.52,49.46,0.85
			c3.13-0.13,6.15-2.67,6-6c-0.14-3.14-2.64-6.14-6-6c-14.54,0.59-29.1,0.44-43.63-0.45c-7.34-0.45-14.66-1.09-21.96-1.92
			c-1.64-0.19-3.28-0.38-4.91-0.59c-0.89-0.11-1.79-0.23-2.68-0.34c-0.3-0.04-1.84-0.22-0.19-0.02c-0.6-0.07-1.19-0.16-1.78-0.25
			c-3.57-0.5-7.12-1.04-10.68-1.63c-28.71-4.75-56.94-12.39-84.12-22.8c-3.78-1.45-7.54-2.95-11.28-4.51
			c-0.42-0.17-0.83-0.35-1.25-0.52c-0.62-0.26-0.55-0.23,0.19,0.08c-0.28-0.12-0.55-0.23-0.83-0.35c-0.97-0.41-1.93-0.83-2.89-1.24
			c-1.79-0.78-3.57-1.57-5.35-2.37c-7.52-3.39-14.94-7.01-22.25-10.83c-2.78-1.45-6.65-0.8-8.21,2.15
			C125.68,419.12,126.33,423.01,129.3,424.56L129.3,424.56z"/>
	</g>
</g>
<g>
	<g>
		<path d="M122.97,422.98c1.24,11.2-1.25,22.43,0.26,33.63c0.81,6,2.88,11.58,6.06,16.73c2.91,4.7,6.35,9.09,9.63,13.53
			c13.15,17.76,27.43,35.47,47.03,46.43c10.72,5.99,22.69,9.8,35.03,9.99c3.14,0.05,6.14-2.8,6-6c-0.15-3.29-2.64-5.95-6-6
			c-1.25-0.02-2.51-0.07-3.76-0.17c-0.55-0.04-1.11-0.09-1.66-0.15c-0.28-0.03-0.55-0.06-0.83-0.09c-1.45-0.16,1.39,0.22-0.05-0.01
			c-2.47-0.39-4.91-0.89-7.32-1.55c-2.35-0.64-4.66-1.42-6.93-2.3c-0.32-0.12-2.34-0.84-0.7-0.27c-0.52-0.18-1.03-0.45-1.54-0.67
			c-1.15-0.52-2.28-1.07-3.41-1.64c-4.45-2.27-8.68-4.94-12.69-7.92c-0.31-0.23-1.97-1.39-0.63-0.46c-0.46-0.32-0.89-0.7-1.32-1.05
			c-1.05-0.85-2.09-1.72-3.11-2.61c-1.97-1.71-3.88-3.49-5.73-5.33c-3.76-3.72-7.31-7.66-10.7-11.72c-1.68-2.01-3.32-4.04-4.93-6.1
			c-0.23-0.29-0.46-0.59-0.69-0.88c-0.12-0.16-0.72-0.92-0.22-0.28c0.59,0.75-0.32-0.42-0.35-0.46c-0.18-0.24-0.36-0.48-0.55-0.71
			c-0.82-1.07-1.63-2.15-2.44-3.22c-3.18-4.25-6.38-8.5-9.42-12.85c-1.5-2.14-2.92-4.34-4.13-6.67c-0.31-0.6-0.58-1.21-0.88-1.81
			c-0.42-0.82,0.5,1.36-0.01-0.01c-0.1-0.28-0.22-0.56-0.32-0.84c-0.46-1.25-0.83-2.54-1.13-3.84c-0.17-0.72-0.31-1.44-0.43-2.17
			c-0.04-0.23-0.15-0.62-0.14-0.87c-0.08,1.45,0.04,0.3-0.01-0.16c-0.16-1.47-0.24-2.95-0.28-4.43c-0.08-3,0.05-6.01,0.2-9
			c0.31-6.02,0.75-12.06,0.08-18.08c-0.18-1.64-0.55-3.03-1.76-4.24c-1.04-1.04-2.75-1.82-4.24-1.76
			C126.02,417.11,122.6,419.64,122.97,422.98L122.97,422.98z"/>
	</g>
</g>
<g>
	<g>
		<path d="M176.8,582.41c0.23,1.62,0.02-0.34,0.02-0.68c-0.01-0.53,0-1.07,0.03-1.6c0.02-0.3,0.06-0.61,0.07-0.91
			c0.04-0.87-0.2,1.09-0.04,0.23c0.12-0.6,0.21-1.21,0.35-1.81c0.49-2.15,1.2-4.25,2.01-6.31c0.06-0.15,0.26-0.51,0.28-0.69
			c-0.08,0.88-0.42,0.96-0.17,0.4c0.2-0.45,0.4-0.91,0.61-1.36c0.42-0.9,0.86-1.79,1.33-2.66c0.91-1.7,1.9-3.35,2.97-4.95
			c0.52-0.77,1.06-1.53,1.61-2.28c0.15-0.2,0.31-0.39,0.45-0.6c0.02-0.02-0.78,0.99-0.37,0.48c0.35-0.43,0.7-0.87,1.06-1.3
			c1.23-1.48,2.54-2.89,3.92-4.24c1.37-1.35,2.81-2.63,4.31-3.84c0.07-0.06,0.52-0.34,0.58-0.46c-0.04,0.08-1.16,0.88-0.33,0.26
			c0.35-0.26,0.7-0.52,1.05-0.77c0.81-0.58,1.63-1.14,2.46-1.68c1.82-1.18,3.71-2.26,5.66-3.22c0.5-0.25,1.01-0.49,1.51-0.72
			c0.44-0.2,2.12-0.82,0.44-0.21c1.05-0.38,2.08-0.82,3.14-1.19c2.96-1.03,5.23-4.16,4.19-7.38c-0.95-2.93-4.21-5.29-7.38-4.19
			c-17.45,6.05-31.4,19.38-38.48,36.39c-1.02,2.45-1.91,4.97-2.48,7.57c-0.81,3.71-0.91,7.19-0.38,10.93
			c0.19,1.38,1.62,2.92,2.76,3.59c1.29,0.75,3.18,1.07,4.62,0.6c1.45-0.47,2.85-1.37,3.59-2.76C177,585.5,177.04,584.1,176.8,582.41
			L176.8,582.41z"/>
	</g>
</g>
<g>
	<g>
		<path d="M175.48,588.33c8.18,1.35,16.44,1.71,24.69,0.68c8.67-1.08,16.86-3.32,24.88-6.77c1.28-0.55,2.4-2.31,2.76-3.59
			c0.4-1.44,0.22-3.35-0.6-4.62c-0.83-1.28-2.06-2.41-3.59-2.76c-1.68-0.38-3.06-0.07-4.62,0.6c-1.26,0.54,0.95-0.37-0.23,0.09
			c-0.49,0.19-0.97,0.39-1.46,0.58c-0.84,0.32-1.69,0.63-2.54,0.92c-1.77,0.61-3.57,1.16-5.38,1.64c-1.74,0.47-3.49,0.87-5.26,1.22
			c-0.88,0.17-1.77,0.33-2.66,0.48c-0.44,0.07-0.89,0.14-1.33,0.2c-0.68,0.1-0.59,0.08,0.26-0.03c-0.22,0.03-0.45,0.06-0.67,0.08
			c-3.65,0.44-7.33,0.62-11,0.56c-1.8-0.03-3.6-0.13-5.39-0.28c-0.9-0.08-1.79-0.18-2.69-0.28c-0.68-0.09-0.6-0.07,0.26,0.04
			c-0.22-0.03-0.45-0.06-0.67-0.1c-0.52-0.08-1.04-0.16-1.56-0.24c-1.64-0.27-3.14-0.26-4.62,0.6c-1.24,0.73-2.43,2.16-2.76,3.59
			C170.63,583.84,172.17,587.78,175.48,588.33L175.48,588.33z"/>
	</g>
</g>
<g>
	<g>
		<path d="M214.25,577.41c-2.37,15.09-3.16,30.34-2.07,45.58c0.22,3.12,2.6,6.15,6,6c3.06-0.14,6.24-2.65,6-6
			c-0.52-7.25-0.65-14.53-0.35-21.8c0.15-3.59,0.39-7.18,0.74-10.76c0.17-1.79,0.37-3.58,0.6-5.36c0.05-0.41,0.1-0.81,0.16-1.22
			c-0.22,1.53,0.02-0.13,0.05-0.35c0.14-0.97,0.29-1.94,0.44-2.91c0.26-1.65,0.27-3.13-0.6-4.62c-0.73-1.24-2.16-2.43-3.59-2.76
			C218.76,572.57,214.77,574.1,214.25,577.41L214.25,577.41z"/>
	</g>
</g>
<g>
	<g>
		<path d="M223.68,629.4c5.25-7.78,10.62-14.52,17.18-21.51c6.33-6.75,13.16-13.02,20.41-18.75c13.68-10.81,30.93-20.52,47.25-26.6
			c20.75-7.73,42.73-11.13,64.47-14.78c23.24-3.9,46.49-7.81,69.73-11.71c21.16-3.55,42.55-6.49,63.45-11.43
			c19.24-4.54,38.4-11.41,54.23-23.53c8.61-6.59,16.04-14.4,23-22.69c6.98-8.31,13.93-16.84,17.75-27.13
			c3.92-10.55,3.3-22.22,3.28-33.28c-0.02-11.97-0.04-23.93-0.06-35.9c-0.02-11.68-0.04-23.36-0.06-35.04
			c-0.02-9.89-0.54-20.5,3.56-29.27c0.34-0.73,0.73-1.42,1.14-2.12c0.74-1.27-0.81,0.74,0.32-0.4c0.94-0.95,1.88-1.84,2.9-2.69
			c-1.23,1.02,0.57-0.39,0.94-0.65c0.65-0.45,1.32-0.87,1.99-1.29c1.58-0.97,3.21-1.85,4.88-2.67c0.79-0.39,1.58-0.76,2.38-1.12
			c0.14-0.06,1.76-0.75,0.53-0.24c0.33-0.14,0.66-0.27,0.99-0.4c1.81-0.72,3.65-1.37,5.52-1.95c1.63-0.5,3.28-0.94,4.94-1.31
			c0.79-0.17,1.58-0.33,2.38-0.46c0.31-0.05,0.62-0.1,0.93-0.15c-1.67,0.27,0.31-0.02,0.64-0.05c1.28-0.11,2.58-0.15,3.86-0.06
			c0.11,0.01,0.9,0.03,0.92,0.09c0.06,0.23-1.58-0.4-0.4-0.02c0.55,0.18,1.12,0.29,1.67,0.5c3.03,1.15,6.58-1.28,7.38-4.19
			c0.93-3.38-1.15-6.22-4.19-7.38c-6.11-2.33-13.78-0.68-19.82,1.02c-7.2,2.03-14.46,5.08-20.66,9.32
			c-2.99,2.05-5.73,4.31-7.89,7.23c-2.66,3.6-4.15,8.33-5.12,12.66c-2.45,10.86-1.79,22.24-1.78,33.28
			c0.04,23.87,0.17,47.75,0.11,71.62c-0.01,5.3-0.06,10.67-1.15,15.81c-1.08,5.09-2.93,9.19-5.66,13.59
			c-5.36,8.64-12.35,16.53-19.43,23.96c-7.09,7.45-14.67,13.72-23.61,18.78c-8.59,4.87-17.02,8.17-26.5,11.04
			c-20.01,6.05-40.87,8.94-61.44,12.39c-23.52,3.95-47.05,7.9-70.57,11.85c-22.6,3.79-45.58,6.83-67.58,13.43
			c-36.91,11.08-70.4,33.69-94.28,63.98c-3.11,3.95-6.1,7.98-8.91,12.15c-1.81,2.69-0.52,6.65,2.15,8.21
			C218.42,633.28,221.86,632.1,223.68,629.4L223.68,629.4z"/>
	</g>
</g>
<g>
	<g>
		<path d="M211.91,152.66c24.19,17.92,51.48,30.95,79.42,41.89c27.96,10.95,56.67,19.8,84.97,29.79c7.04,2.49,14.06,5.04,21.03,7.72
			c3.55,1.36,7.09,2.76,10.62,4.19c1.61,0.66,3.23,1.32,4.83,1.99c0.44,0.18,0.88,0.36,1.31,0.55c-1.38-0.59,0.09,0.04,0.32,0.14
			c0.87,0.37,1.75,0.75,2.62,1.12c13.62,5.9,27.14,12.36,39.78,20.17c3.12,1.93,6.19,3.96,9.16,6.13c0.75,0.55,1.52,1.09,2.25,1.68
			c-1.16-0.95,0.69,0.55,0.99,0.79c1.57,1.26,3.1,2.57,4.59,3.93c2.61,2.38,5.09,4.92,7.38,7.61c0.59,0.69,1.24,1.38,1.75,2.14
			c-0.84-1.24,0.03,0.04,0.18,0.25c0.28,0.37,0.55,0.74,0.81,1.12c1.07,1.5,2.09,3.05,3.03,4.64c0.91,1.54,1.76,3.12,2.55,4.72
			c0.43,0.89,0.84,1.79,1.24,2.7c-0.59-1.32,0.08,0.19,0.16,0.39c0.18,0.46,0.36,0.92,0.54,1.38c1.4,3.7,2.49,7.51,3.35,11.38
			c0.39,1.78,0.74,3.57,1.04,5.37c0.16,0.98,0.36,1.97,0.45,2.96c-0.15-1.52,0.02,0.15,0.05,0.39c0.08,0.66,0.16,1.33,0.23,1.99
			c0.42,3.83,0.67,7.68,0.83,11.53c0.33,8.23,0.31,16.51-0.06,24.74c-0.2,4.36-0.53,8.72-1.06,13.06c-0.02,0.16-0.26,1.96-0.07,0.57
			c-0.07,0.54-0.15,1.08-0.23,1.62c-0.14,0.9-0.28,1.79-0.43,2.69c-0.39,2.23-0.84,4.45-1.36,6.66c-0.91,3.84-2.03,7.64-3.42,11.34
			c-0.31,0.83-0.6,1.72-0.99,2.52c0.69-1.4,0.01-0.03-0.1,0.23c-0.12,0.28-0.24,0.55-0.37,0.82c-0.81,1.78-1.68,3.53-2.62,5.25
			c-1.61,2.94-3.36,6.17-5.61,8.68c1.01-1.13,0.01-0.02-0.16,0.2c-0.28,0.35-0.56,0.69-0.85,1.04c-0.57,0.68-1.16,1.36-1.77,2.01
			c-1.2,1.31-2.47,2.58-3.78,3.77c-0.6,0.55-1.22,1.08-1.85,1.61c-0.29,0.24-0.58,0.47-0.86,0.7c-1.17,0.96,1.04-0.73-0.2,0.15
			c-1.46,1.04-2.92,2.05-4.46,2.97c-2.69,1.61-3.92,5.46-2.15,8.21c1.74,2.71,5.33,3.88,8.21,2.15
			c13.45-8.07,22.73-21.07,28.49-35.44c6.47-16.13,7.78-33.97,7.9-51.18c0.12-16.32-0.43-33.24-5.73-48.84
			c-2.6-7.65-6.28-14.83-11.2-21.24c-4.75-6.19-10.25-11.61-16.4-16.41c-12.17-9.5-25.84-16.8-39.75-23.41
			c-14.06-6.69-28.5-12.55-43.09-17.96c-28.62-10.62-57.83-19.53-86.47-30.11c-7.1-2.62-14.17-5.35-21.18-8.24
			c-0.73-0.3-1.45-0.6-2.18-0.9c-0.44-0.18-0.87-0.36-1.31-0.55c1.39,0.6-0.08-0.03-0.3-0.13c-1.88-0.8-3.75-1.61-5.62-2.44
			c-3.44-1.52-6.87-3.08-10.26-4.7c-13.5-6.42-26.63-13.66-39.04-22.03c-3.07-2.07-6.09-4.21-9.07-6.42
			c-2.53-1.88-6.81-0.5-8.21,2.15C208.1,147.59,209.21,150.66,211.91,152.66L211.91,152.66z"/>
	</g>
</g>
<g>
	<g>
		<path d="M506.91,303.83c4.31-3.9,8.04-8.37,11.6-12.96c2.05-2.64,4.06-5.3,6.09-7.96c0.15-0.2,0.31-0.4,0.46-0.6
			c0.82-1.07-0.85,1.08-0.02,0.02c0.46-0.59,0.92-1.18,1.39-1.77c0.93-1.17,1.87-2.33,2.83-3.47c1.83-2.16,3.74-4.25,5.78-6.21
			c0.97-0.93,1.97-1.83,3-2.68c0.23-0.19,0.47-0.39,0.71-0.58c0.47-0.38,0.92-0.34-0.2,0.15c0.72-0.32,1.43-1.05,2.09-1.49
			c1.14-0.77,2.32-1.48,3.52-2.14c0.62-0.34,1.26-0.66,1.9-0.96c0.38-0.18,0.77-0.35,1.16-0.53c0.61-0.26,0.52-0.23-0.26,0.11
			c0.26-0.11,0.52-0.21,0.79-0.31c3.03-1.17,6.18-2.01,9.36-2.61c0.7-0.13,1.4-0.25,2.1-0.36c0.41-0.06,0.86-0.18,1.27-0.19
			c-1.65,0.03-0.28,0.04,0.1-0.01c1.71-0.2,3.43-0.35,5.14-0.47c3.31-0.22,6.63-0.29,9.94-0.31c3.22-0.02,6.45-0.03,9.67,0.05
			c1.52,0.04,3.03,0.1,4.55,0.2c0.82,0.06,1.65,0.13,2.47,0.22c0.27,0.03,0.54,0.06,0.82,0.09c0.67,0.08,0.54,0.07-0.38-0.05
			c0.27,0.04,0.54,0.08,0.81,0.12c1.47,0.24,2.93,0.54,4.36,0.93c0.77,0.21,1.54,0.45,2.3,0.72c0.25,0.09,0.5,0.18,0.75,0.28
			c0.25,0.1,0.5,0.19,0.74,0.3c-0.82-0.35-0.93-0.39-0.33-0.12c1.33,0.67,2.62,1.34,3.85,2.19c0.1,0.07,0.21,0.15,0.31,0.22
			c0.51,0.38,0.41,0.29-0.3-0.25c0.04,0.17,0.73,0.59,0.87,0.72c0.57,0.49,1.12,1,1.65,1.53c0.53,0.53,1.04,1.08,1.52,1.65
			c0.16,0.19,0.32,0.38,0.48,0.57c0.08,0.1,0.16,0.19,0.24,0.29c0.4,0.5,0.32,0.39-0.24-0.33c0.09,0.52,1.02,1.39,1.33,1.84
			c0.43,0.63,0.85,1.27,1.25,1.91c1.58,2.51,2.98,5.11,4.4,7.71c3.44,6.31,7.15,12.61,12.81,17.21c6.37,5.18,14.35,8.41,22.57,5.98
			c3.01-0.89,5.2-4.26,4.19-7.38c-0.99-3.04-4.16-5.15-7.38-4.19c-0.37,0.11-0.73,0.21-1.11,0.3c-0.12,0.03-0.25,0.05-0.37,0.08
			c-0.65,0.11-0.49,0.1,0.49-0.04c-0.66-0.11-1.51,0.11-2.2,0.09c-0.24-0.01-0.48-0.03-0.73-0.04c-1.32-0.08,1.44,0.31,0.15,0.02
			c-0.84-0.19-1.67-0.37-2.49-0.65c-0.29-0.1-0.58-0.22-0.87-0.32c-0.79-0.29,1.37,0.68,0.23,0.08c-0.68-0.35-1.36-0.69-2.02-1.08
			c-0.56-0.33-1.1-0.69-1.63-1.06c-0.11-0.08-0.21-0.15-0.32-0.23c-0.51-0.38-0.42-0.31,0.27,0.22c-0.36-0.08-0.94-0.78-1.22-1.02
			c-1.11-0.97-2.15-2.02-3.12-3.12c-0.5-0.56-1.19-1.19-1.54-1.85c0.59,1.11,0.45,0.6,0.22,0.26c-0.3-0.43-0.62-0.86-0.91-1.29
			c-1.66-2.45-3.06-5.07-4.48-7.67c-3.04-5.58-6.12-11.23-10.53-15.89c-4.71-4.99-10.94-8.23-17.62-9.68
			c-6.73-1.46-13.65-1.51-20.5-1.52c-7.02,0-14.01,0.2-20.97,1.16c-6.97,0.96-13.8,2.91-19.97,6.34c-5.25,2.91-9.92,6.92-14,11.3
			c-4.69,5.03-8.74,10.61-12.91,16.07c-0.23,0.3-0.46,0.6-0.69,0.9c-0.15,0.2-0.31,0.4-0.46,0.6c0.55-0.72,0.64-0.82,0.25-0.32
			c-0.46,0.59-0.93,1.19-1.4,1.78c-1.05,1.32-2.12,2.63-3.22,3.92c-2.15,2.5-4.42,4.9-6.86,7.12c-2.33,2.11-2.31,6.37,0,8.49
			C500.92,306.12,504.42,306.08,506.91,303.83L506.91,303.83z"/>
	</g>
</g>
<g>
	<g>
		<path d="M367.39,211.24c-0.92-4.69-1.84-9.38-2.64-14.09c-0.4-2.31-0.75-4.63-1.09-6.96c-0.02-0.13-0.1-0.94-0.02-0.16
			c0.08,0.83-0.03-0.2-0.05-0.41c-0.07-0.56-0.14-1.12-0.21-1.68c-0.14-1.2-0.27-2.41-0.39-3.62c-0.43-4.56-0.65-9.15-0.55-13.73
			c0.04-1.96,0.14-3.91,0.3-5.86c0.07-0.94,0.16-1.88,0.26-2.82c0.05-0.47,0.1-0.94,0.16-1.41c0.02-0.2,0.05-0.4,0.07-0.6
			c0.16-1.26-0.17,0.05-0.03,0.19c-0.22-0.22,0.37-2.43,0.43-2.8c0.17-1,0.35-1.99,0.54-2.99c0.38-1.92,0.8-3.83,1.28-5.73
			c0.97-3.86,2.15-7.67,3.53-11.41c0.33-0.89,0.67-1.77,1.01-2.65c0.17-0.44,0.35-0.88,0.53-1.32c0.12-0.31,0.47-1.03-0.14,0.31
			c0.11-0.25,0.21-0.5,0.32-0.75c0.81-1.86,1.66-3.7,2.56-5.52c1.75-3.51,3.67-6.94,5.76-10.26c1.19-1.89,2.44-3.74,3.74-5.56
			c0.63-0.88,1.27-1.75,1.93-2.62c0.13-0.17,0.68-0.89,0.15-0.2c-0.53,0.69,0.05-0.06,0.15-0.19c0.38-0.48,0.76-0.95,1.14-1.43
			c2.82-3.47,5.84-6.76,9.04-9.87c2.25-2.19,2.37-6.31,0-8.49c-2.42-2.22-6.08-2.34-8.49,0c-12.23,11.9-21.67,26.32-28.04,42.12
			c-6.36,15.76-9.11,32.98-7.96,49.94c0.78,11.36,2.94,22.58,5.13,33.73c0.61,3.09,4.46,5.14,7.38,4.19
			C366.49,217.56,368.04,214.54,367.39,211.24L367.39,211.24z"/>
	</g>
</g>
<g>
	<g>
		<path d="M389.03,96.48c2.36,13.87,8.95,26.82,17.43,37.93c9.07,11.89,19.99,21.91,31.6,31.29c12,9.69,24.49,18.78,35.86,29.22
			c5.26,4.82,10.28,9.9,15.05,15.21c2.41,2.68,4.76,5.41,7.03,8.2c1.12,1.37,2.22,2.75,3.3,4.14c0.13,0.17,0.26,0.34,0.39,0.5
			c-0.01-0.01-0.7-0.91-0.29-0.37c0.26,0.34,0.51,0.67,0.77,1.01c0.55,0.73,1.1,1.47,1.65,2.21c8.52,11.53,15.95,23.88,22.13,36.82
			c0.76,1.59,1.5,3.2,2.23,4.81c1.29,2.87,5.69,3.78,8.21,2.15c2.97-1.91,3.53-5.14,2.15-8.21c-5.85-13.02-12.94-25.47-21.14-37.15
			c-8.41-11.98-17.89-23.23-28.38-33.43c-10.85-10.54-22.89-19.67-34.75-29.01c-11.57-9.12-23.01-18.58-32.56-29.87
			c-1.1-1.3-2.11-2.68-3.22-3.97c0,0,0.71,0.94,0.32,0.41c-0.12-0.16-0.25-0.32-0.37-0.49c-0.25-0.33-0.49-0.65-0.73-0.98
			c-0.52-0.71-1.04-1.43-1.55-2.15c-1.98-2.82-3.83-5.74-5.5-8.75c-0.82-1.47-1.59-2.96-2.32-4.47c-0.35-0.72-0.69-1.45-1.02-2.19
			c-0.16-0.37-0.32-0.74-0.48-1.1c-0.27-0.62,0.22,0.51,0.22,0.51c-0.08-0.25-0.2-0.5-0.3-0.74c-1.27-3.17-2.33-6.42-3.15-9.74
			c-0.4-1.64-0.74-3.29-1.02-4.95c-0.53-3.1-4.51-5.12-7.38-4.19C389.87,90.19,388.46,93.16,389.03,96.48L389.03,96.48z"/>
	</g>
</g>
<g>
	<g>
		<path d="M584,283c3.14,0,6.15-2.76,6-6c-0.15-3.25-2.64-6-6-6c-3.14,0-6.15,2.76-6,6C578.15,280.25,580.64,283,584,283L584,283z"
			/>
	</g>
</g>
</svg>
