<?xml version="1.0" encoding="utf-8"?>
<!-- Generator: Adobe Illustrator 27.0.0, SVG Export Plug-In . SVG Version: 6.00 Build 0)  -->
<svg version="1.1" id="Layer_1" xmlns="http://www.w3.org/2000/svg" xmlns:xlink="http://www.w3.org/1999/xlink" x="0px" y="0px"
	 viewBox="0 0 800 800" style="enable-background:new 0 0 800 800;" xml:space="preserve">
<g>
	<g>
		<path d="M330.58,266.29c2.67,7.21,5.35,14.44,8.86,21.29c3.43,6.71,7.82,12.85,11.56,19.39c1.82,3.19,3.49,6.45,5.45,9.56
			c1.97,3.13,4.27,6.03,6.65,8.86c4.68,5.55,9.41,11.08,14.35,16.4c5.61,6.05,11.56,11.77,18.11,16.8c0.65,0.5,1.67,0.09,2.05-0.54
			c0.46-0.77,0.1-1.56-0.54-2.05c-11.38-8.74-20.76-19.74-30.04-30.6c-2.34-2.74-4.7-5.49-6.74-8.46c-2.08-3.03-3.81-6.28-5.59-9.48
			c-3.56-6.43-7.8-12.45-11.35-18.89c-4.05-7.35-6.97-15.23-9.88-23.07C332.8,263.7,329.9,264.48,330.58,266.29L330.58,266.29z"/>
	</g>
</g>
<g>
	<g>
		<path d="M397.51,358.77c4-1.66,7.99-3.33,11.99-4.99c3.73-1.55,7.59-3,10.93-5.31c3.16-2.19,5.86-4.94,8.46-7.75
			c2.7-2.92,5.31-5.92,7.83-9c5.07-6.2,9.77-12.69,14.04-19.46c2.13-3.38,4.13-6.85,5.72-10.53c1.65-3.82,3.02-7.76,4.45-11.66
			c3.36-9.11,6.72-18.21,10.08-27.32c0.67-1.81-2.23-2.6-2.89-0.8c-2.87,7.79-5.75,15.58-8.62,23.37
			c-2.82,7.65-5.34,15.43-9.52,22.48c-3.95,6.65-8.42,13.03-13.21,19.11c-2.41,3.06-4.92,6.05-7.52,8.96
			c-2.49,2.79-5.01,5.6-7.84,8.05c-3.35,2.91-7.26,4.69-11.32,6.38c-4.46,1.86-8.91,3.71-13.37,5.57c-0.75,0.31-1.27,0.99-1.05,1.85
			C395.85,358.43,396.76,359.08,397.51,358.77L397.51,358.77z"/>
	</g>
</g>
<g>
	<g>
		<path d="M469.86,263.31c3.64,0.26,6.94-1.32,10.07-2.99c1.63-0.87,3.26-1.81,5-2.46c1.87-0.7,3.8-0.89,5.75-1.25
			c2.04-0.38,3.94-1.16,5.84-1.96c2.02-0.85,4.07-1.6,6.16-2.26c4.13-1.31,8.35-2.35,12.45-3.77c3.98-1.38,7.56-3.46,11.41-5.12
			c1.87-0.8,3.72-1.16,5.71-1.48c2.01-0.33,3.39-1.57,5.12-2.51c3.49-1.88,7.55-2.31,11.3-3.44c4.07-1.22,7.85-3.21,11.7-4.98
			c2.11-0.97,4.26-1.86,6.5-2.52c2.22-0.66,4.48-1.14,6.7-1.77c2.18-0.62,4.35-1.39,6.32-2.54c1.78-1.03,3.52-2.67,5.68-2.72
			c1.93-0.04,1.93-3.04,0-3c-1.93,0.04-3.59,0.84-5.18,1.86c-1.66,1.06-3.28,2.05-5.15,2.72c-3.89,1.41-8.01,2.01-11.88,3.47
			c-4,1.51-7.74,3.59-11.69,5.23c-3.77,1.56-7.76,2.21-11.64,3.41c-1.82,0.56-3.62,1.29-5.22,2.32c-0.76,0.49-1.47,1.09-2.34,1.36
			c-0.98,0.31-2.06,0.32-3.07,0.53c-4.01,0.8-7.49,3.15-11.18,4.79c-3.98,1.76-8.22,2.88-12.39,4.09c-4.16,1.2-8.11,2.72-12.14,4.28
			c-2.18,0.85-4.37,1.16-6.66,1.57c-2.07,0.38-4,1.17-5.87,2.11c-3.57,1.79-7.11,4.32-11.29,4.02
			C467.94,260.17,467.95,263.17,469.86,263.31L469.86,263.31z"/>
	</g>
</g>
<g>
	<g>
		<path d="M514.9,295.91c14.82-1.63,29.13-7.21,40.98-16.3c10.97-8.42,19.81-19.75,24.36-32.88c2.89-8.35,3.38-17.34,6.64-25.58
			c0.71-1.8-2.19-2.57-2.89-0.8c-2.85,7.2-3.52,14.96-5.62,22.36c-1.81,6.38-4.73,12.38-8.44,17.86
			c-7.75,11.43-18.93,20.31-31.49,25.94c-7.44,3.34-15.44,5.5-23.54,6.39C513,293.12,512.98,296.13,514.9,295.91L514.9,295.91z"/>
	</g>
</g>
<g>
	<g>
		<path d="M514.32,295.67c7.09,1.92,14.53,1.81,21.81,1.63c6.04-0.14,12.41-0.79,17.1-4.99c1.44-1.29-0.69-3.41-2.12-2.12
			c-4.24,3.79-10.36,4.03-15.76,4.13c-6.77,0.12-13.64,0.24-20.24-1.54C513.25,292.27,512.45,295.17,514.32,295.67L514.32,295.67z"
			/>
	</g>
</g>
<g>
	<g>
		<path d="M476.92,351.7c12.37-2.79,24.33-7.44,35.31-13.79c2.8-1.62,5.54-3.33,8.04-5.38c2.52-2.07,4.73-4.49,6.92-6.9
			c4.71-5.18,9.42-10.36,14.13-15.54c2.5-2.75,5.06-5.47,7.5-8.28c2.19-2.52,4.14-5.21,5.17-8.42c0.59-1.84-2.3-2.63-2.89-0.8
			c-0.89,2.77-2.64,5.09-4.54,7.26c-2.13,2.44-4.35,4.81-6.53,7.2c-4.43,4.87-8.87,9.75-13.3,14.62c-2.17,2.39-4.3,4.83-6.66,7.03
			c-2.36,2.21-5.01,4.01-7.78,5.67c-5.21,3.12-10.66,5.87-16.28,8.17c-6.44,2.64-13.1,4.72-19.89,6.24
			C474.24,349.23,475.04,352.13,476.92,351.7L476.92,351.7z"/>
	</g>
</g>
<g>
	<g>
		<path d="M475.67,352.02c7.28,1.94,14.9,2.71,22.42,2.13c3.2-0.25,5.76-1.23,8.31-3.16c2.2-1.67,4.28-3.72,7-4.49
			c1.85-0.53,1.07-3.43-0.8-2.89c-2.66,0.76-4.77,2.46-6.9,4.15c-2.36,1.88-4.54,3.16-7.61,3.4c-7.27,0.56-14.58-0.15-21.62-2.02
			C474.6,348.63,473.8,351.52,475.67,352.02L475.67,352.02z"/>
	</g>
</g>
<g>
	<g>
		<path d="M289.94,350.39c4.86,6.77,10.45,12.99,16.73,18.46c6.73,5.86,14.24,10.57,21.82,15.25c14.79,9.13,30.49,16.83,47.37,21.21
			c8.27,2.15,16.77,3.5,25.32,3.83c4.34,0.17,8.74,0.15,13.05-0.4c4.55-0.59,8.67-2.27,13.03-3.62c4.35-1.35,8.84-2.19,13.19-3.58
			c4.11-1.31,8.09-3.02,11.94-4.95c7.64-3.82,14.83-8.49,22.03-13.08c13.02-8.3,26.17-17.33,35.18-30.14
			c1.12-1.59,2.15-3.23,3.12-4.91c0.96-1.68-1.63-3.19-2.59-1.51c-7.61,13.29-20.02,22.73-32.61,30.99
			c-6.78,4.45-13.64,8.87-20.7,12.87c-7.47,4.24-15.15,7.49-23.49,9.58c-4.36,1.09-8.56,2.46-12.83,3.86
			c-4.27,1.4-8.62,1.85-13.1,1.94c-8.36,0.18-16.72-0.68-24.9-2.4c-16.41-3.45-31.99-10.16-46.42-18.61
			c-7.63-4.47-15.37-9.07-22.4-14.45c-6.46-4.94-12.33-10.69-17.45-17c-1.28-1.58-2.5-3.19-3.69-4.84
			C291.41,347.32,288.81,348.81,289.94,350.39L289.94,350.39z"/>
	</g>
</g>
<g>
	<g>
		<path d="M211.26,224.8c3.67,5.56,3.9,12.58,6.32,18.68c1.3,3.27,2.89,6.42,4.45,9.56c1.49,3,3.03,5.97,4.81,8.81
			c3.78,6,8.76,10.62,14.38,14.87c5.71,4.33,11.56,8.45,17.87,11.86c7.22,3.91,14.81,7.06,22.38,10.22
			c0.75,0.31,1.64-0.34,1.85-1.05c0.25-0.86-0.3-1.53-1.05-1.85c-6.62-2.76-13.24-5.53-19.61-8.83c-6.26-3.24-12.07-7.11-17.72-11.3
			c-5.47-4.06-10.71-8.29-14.55-13.99c-1.87-2.77-3.47-5.72-4.98-8.7c-1.58-3.12-3.18-6.25-4.54-9.46
			c-2.8-6.6-3.01-14.26-7.01-20.34C212.79,221.68,210.2,223.18,211.26,224.8L211.26,224.8z"/>
	</g>
</g>
<g>
	<g>
		<path d="M282.38,295.83c-5.99,0.75-11.94-0.1-17.77-1.5c-2.78-0.66-5.55-1.42-8.3-2.21c-2.44-0.7-4.91-1.49-6.78-3.27
			c-1.4-1.33-3.52,0.79-2.12,2.12c1.96,1.86,4.39,2.92,6.94,3.7c2.96,0.91,5.97,1.7,8.98,2.43c6.22,1.51,12.65,2.52,19.04,1.72
			C284.27,298.59,284.29,295.59,282.38,295.83L282.38,295.83z"/>
	</g>
</g>
<g>
	<g>
		<path d="M247.26,292.6c6.2,11.22,12.58,22.69,21.81,31.74c4.85,4.75,10.45,8.45,16.37,11.73c6.17,3.42,12.52,6.56,19.14,9
			c7.27,2.68,14.89,4.42,22.66,4.61c1.93,0.05,1.93-2.95,0-3c-13.63-0.34-26.46-5.72-38.29-12.12c-5.9-3.19-11.63-6.63-16.56-11.22
			c-4.45-4.15-8.26-8.92-11.67-13.95c-3.98-5.89-7.44-12.11-10.87-18.32C248.91,289.39,246.32,290.91,247.26,292.6L247.26,292.6z"/>
	</g>
</g>
<g>
	<g>
		<path d="M290.69,350.46c12.58,3.06,25.66,3.43,38.39,1.12c1.9-0.34,1.09-3.24-0.8-2.89c-12.19,2.21-24.76,1.81-36.79-1.12
			C289.61,347.11,288.81,350.01,290.69,350.46L290.69,350.46z"/>
	</g>
</g>
<g>
	<g>
		<path d="M329.47,350.53c1.93,0,1.93-3,0-3C327.54,347.53,327.54,350.53,329.47,350.53L329.47,350.53z"/>
	</g>
</g>
<g>
	<g>
		<path d="M329.19,350.25c1.93,0,1.93-3,0-3C327.26,347.25,327.26,350.25,329.19,350.25L329.19,350.25z"/>
	</g>
</g>
<g>
	<g>
		<path d="M211.58,225.07c14.99,6.78,30.02,13.52,45.72,18.53c15.86,5.06,32.01,9.18,47.88,14.2c8.82,2.79,17.56,5.86,26.02,9.6
			c1.75,0.77,3.28-1.81,1.51-2.59c-14.98-6.62-30.71-11.23-46.41-15.78c-16.04-4.65-32.11-9.1-47.61-15.38
			c-8.63-3.49-17.11-7.34-25.6-11.17C211.35,221.69,209.82,224.27,211.58,225.07L211.58,225.07z"/>
	</g>
</g>
<g>
	<g>
		<path d="M70.7,185.95c4.39,8.74,9.93,17.01,16.95,23.86c7.46,7.29,16.45,12.25,26.06,16.12c10.62,4.28,21.56,7.84,32.35,11.67
			c10.96,3.89,21.9,8.21,33.26,10.8c6.18,1.41,12.48,2.28,18.62,3.88c6.35,1.66,12.3,4.34,18.24,7.1c1.74,0.81,3.27-1.78,1.51-2.59
			c-5.15-2.39-10.32-4.8-15.76-6.49c-5.38-1.68-10.94-2.61-16.46-3.68c-11.26-2.18-21.95-6.01-32.73-9.83
			c-10.94-3.88-21.94-7.65-32.83-11.68c-9.7-3.59-19.25-7.85-27.14-14.68c-8.28-7.16-14.58-16.28-19.47-26.01
			C72.43,182.71,69.84,184.23,70.7,185.95L70.7,185.95z"/>
	</g>
</g>
<g>
	<g>
		<path d="M72.74,185.97c8.28,1.36,15.78,5.17,23.37,8.55c3.82,1.7,7.7,3.32,11.73,4.47c4.31,1.23,8.74,1.92,13,3.35
			c8.12,2.72,15.72,7.12,24.23,8.61c2.26,0.39,4.56,0.57,6.83,0.87c2.4,0.32,4.75,0.89,7.08,1.55c4.58,1.3,9.14,2.69,13.71,4.04
			c10.46,3.09,20.93,6.17,31.39,9.26c1.86,0.55,2.65-2.35,0.8-2.89c-9.28-2.74-18.55-5.47-27.83-8.21
			c-9.07-2.68-18.12-5.97-27.55-7.02c-4.39-0.49-8.56-1.52-12.7-3.07c-4.07-1.52-8.01-3.35-12.07-4.9
			c-4.23-1.62-8.56-2.62-12.96-3.66c-4.13-0.97-8.11-2.37-12-4.04c-8.58-3.68-16.93-8.27-26.25-9.8
			C71.64,182.76,70.83,185.65,72.74,185.97L72.74,185.97z"/>
	</g>
</g>
<g>
	<g>
		<path d="M203.98,225.21c-0.35,6.03,1.55,12.02,3.45,17.67c1.85,5.48,4.64,10.32,8.38,14.74c1.25,1.48,3.36-0.66,2.12-2.12
			c-3.5-4.13-6.06-8.71-7.75-13.85c-1.74-5.28-3.52-10.81-3.2-16.43C207.09,223.28,204.09,223.28,203.98,225.21L203.98,225.21z"/>
	</g>
</g>
<g>
	<g>
		<path d="M117.52,243.58c5.53,7.56,11.11,15.17,17.75,21.81c3.3,3.3,6.88,6.34,10.75,8.95c2,1.35,4.11,2.52,6.22,3.7
			c2.24,1.25,4.34,2.67,6.47,4.09c4.4,2.95,9.45,4.34,14.45,5.92c5.14,1.63,10.28,3.26,15.41,4.94c10.33,3.37,20.6,6.91,30.72,10.87
			c5.55,2.17,10.99,4.61,16.53,6.8c5.35,2.12,10.86,3.8,16.63,4.2c1.93,0.13,1.92-2.87,0-3c-10.16-0.71-19.48-5.73-28.77-9.47
			c-9.85-3.98-19.87-7.52-29.95-10.87c-5.04-1.68-10.1-3.3-15.16-4.91c-2.53-0.81-5.06-1.61-7.6-2.41
			c-2.46-0.78-4.95-1.51-7.28-2.64c-2.14-1.03-4.03-2.45-6-3.77c-2.18-1.45-4.51-2.64-6.77-3.95c-3.97-2.29-7.62-5.07-10.99-8.16
			c-7.6-6.98-13.75-15.34-19.82-23.64C118.99,240.52,116.38,242.01,117.52,243.58L117.52,243.58z"/>
	</g>
</g>
<g>
	<g>
		<path d="M120.32,243.75c15.55,3.86,31,8.11,46.32,12.77c7.4,2.25,14.76,4.64,21.92,7.56c6.87,2.81,13.58,6.02,20.41,8.93
			c7.58,3.23,15.33,6.13,23.43,7.75c1.89,0.38,2.69-2.51,0.8-2.89c-14.59-2.91-27.8-9.92-41.39-15.66
			c-14.4-6.08-29.57-10.28-44.6-14.48c-8.66-2.42-17.36-4.7-26.08-6.87C119.25,240.39,118.45,243.28,120.32,243.75L120.32,243.75z"
			/>
	</g>
</g>
<g>
	<g>
		<path d="M232.45,279.62c1,7.14,3.21,14.08,6.52,20.5c1.47,2.86,3.22,5.71,5.63,7.87c1.08,0.97,2.28,1.72,3.52,2.45
			c1.08,0.63,2.36,1.29,2.73,2.58c0.52,1.86,3.42,1.07,2.89-0.8c-0.8-2.85-3.5-3.86-5.75-5.36c-2.71-1.81-4.53-4.68-6.04-7.5
			c-3.42-6.38-5.61-13.37-6.61-20.54C235.07,276.92,232.18,277.73,232.45,279.62L232.45,279.62z"/>
	</g>
</g>
<g>
	<g>
		<path d="M181.61,305.12c5.01,14.04,16.16,24.86,28.81,32.28c7.41,4.35,15.39,7.66,23.46,10.56c4.1,1.47,8.24,2.84,12.38,4.2
			c4.19,1.37,8.37,2.78,12.65,3.85c4.82,1.2,9.66,1.72,14.61,1.88c4.78,0.15,9.57,0.3,14.06,2.14c1.78,0.73,2.56-2.17,0.8-2.89
			c-7.75-3.19-16.42-1.63-24.51-3.11c-8.4-1.53-16.58-4.6-24.64-7.36c-14.94-5.11-29.99-11.37-41.51-22.51
			c-5.77-5.57-10.51-12.24-13.22-19.83C183.86,302.51,180.96,303.29,181.61,305.12L181.61,305.12z"/>
	</g>
</g>
<g>
	<g>
		<path d="M182.21,306.19c8.25,1.26,16.52,2.53,24.58,4.71c8.06,2.18,15.73,5.49,23.41,8.72c7.61,3.2,15.3,6.25,22.8,9.68
			c6.55,2.99,12.97,6.55,17.96,11.83c2.74,2.9,5.04,6.17,7.75,9.09c1.39,1.49,2.88,2.87,4.53,4.06c1.56,1.13,3.46,2.01,4.65,3.58
			c1.15,1.52,3.75,0.03,2.59-1.51c-2.16-2.87-5.65-4.32-8.22-6.79c-2.62-2.53-4.79-5.46-7.13-8.24c-4.84-5.73-10.9-9.88-17.59-13.18
			c-7.29-3.59-14.92-6.53-22.41-9.68c-7.88-3.31-15.71-6.86-23.89-9.39c-9.2-2.86-18.75-4.32-28.25-5.78
			C181.12,303.01,180.3,305.9,182.21,306.19L182.21,306.19z"/>
	</g>
</g>
<g>
	<g>
		<path d="M538.31,324.18c-4.13,5.69-7.79,11.71-11.01,17.96c-3.09,5.99-5.52,12.39-9.5,17.88c-1.14,1.57,1.47,3.06,2.59,1.51
			c3.98-5.49,6.41-11.89,9.5-17.88c3.22-6.25,6.88-12.27,11.01-17.96C542.04,324.13,539.44,322.63,538.31,324.18L538.31,324.18z"/>
	</g>
</g>
<g>
	<g>
		<path d="M539.91,325.88c10.96,0.51,21.23-3.8,31.11-8.02c5.22-2.23,10.46-4.39,15.85-6.18c5.49-1.83,11.08-3.27,16.7-4.62
			c6.47-1.55,12.94-3.09,19.41-4.63c1.88-0.45,1.08-3.34-0.8-2.89c-11.22,2.68-22.61,4.98-33.62,8.44
			c-5.35,1.68-10.57,3.69-15.74,5.87c-5,2.12-9.96,4.34-15.11,6.08c-5.76,1.95-11.7,3.23-17.8,2.95
			C537.98,322.79,537.99,325.79,539.91,325.88L539.91,325.88z"/>
	</g>
</g>
<g>
	<g>
		<path d="M518.86,362.12c8.47,0.37,16.77-1.73,24.67-4.6c8.08-2.94,15.98-6.45,23.82-9.97c8.02-3.61,15.95-7.4,23.79-11.37
			c3.81-1.93,7.6-3.89,11.36-5.92c3.49-1.89,6.92-3.97,9.64-6.9c3.16-3.39,5.62-7.47,8.24-11.28c2.54-3.69,5.43-7.45,6.14-11.99
			c0.3-1.89-2.59-2.7-2.89-0.8c-0.61,3.9-2.97,7.09-5.16,10.27c-2.29,3.34-4.47,6.83-7.01,9.99c-2.48,3.09-5.53,5.34-8.96,7.27
			c-3.6,2.03-7.29,3.9-10.96,5.78c-14.9,7.62-30.14,14.8-45.74,20.86c-8.61,3.35-17.62,6.06-26.95,5.65
			C516.93,359.03,516.94,362.03,518.86,362.12L518.86,362.12z"/>
	</g>
</g>
<g>
	<g>
		<path d="M583.18,261.11c5.28-11.67,10.37-23.42,15.27-35.26c0.74-1.78-2.16-2.56-2.89-0.8c-4.8,11.59-9.8,23.11-14.97,34.54
			C579.8,261.34,582.39,262.86,583.18,261.11L583.18,261.11z"/>
	</g>
</g>
<g>
	<g>
		<path d="M597.68,226.42c8.71-2.07,16.84-5.87,25.12-9.2c4.12-1.66,8.3-3.17,12.59-4.34c4.56-1.24,9.19-2.2,13.74-3.47
			c16.71-4.65,31.94-13.44,48.71-17.91c9.91-2.64,20.22-3.02,30.13-5.73c1.86-0.51,1.07-3.4-0.8-2.89
			c-4.5,1.23-9.09,2.13-13.71,2.79c-4.5,0.65-9,1.17-13.44,2.19c-8.39,1.94-16.42,5.1-24.35,8.38c-7.97,3.3-15.9,6.76-24.15,9.33
			c-8.82,2.75-17.91,4.29-26.56,7.59c-9.32,3.56-18.32,8.04-28.08,10.36C595.01,223.97,595.8,226.87,597.68,226.42L597.68,226.42z"
			/>
	</g>
</g>
<g>
	<g>
		<path d="M554.35,314.87c3.84-8.16,7.74-16.42,13.23-23.62c2.69-3.53,5.81-6.82,9.37-9.48c3.88-2.91,8.22-5.14,12.67-7.06
			c4.59-1.98,9.31-3.65,13.99-5.4c4.99-1.87,9.97-3.79,15-5.56c2.45-0.87,4.93-1.68,7.44-2.36c2.5-0.68,5.07-1.08,7.56-1.8
			c2.47-0.72,4.85-1.74,7.3-2.56c2.39-0.8,4.8-1.53,7.21-2.26c11.9-3.61,23.8-7.22,35.7-10.83c1.84-0.56,1.06-3.46-0.8-2.89
			c-10.71,3.25-21.42,6.5-32.13,9.74c-5.15,1.56-10.3,3.11-15.35,4.98c-2.39,0.89-4.82,1.43-7.3,1.99
			c-2.62,0.59-5.19,1.34-7.74,2.18c-5.18,1.71-10.27,3.71-15.38,5.62c-4.82,1.8-9.67,3.54-14.44,5.48
			c-4.47,1.83-8.89,3.86-12.93,6.52c-3.89,2.56-7.36,5.67-10.38,9.21c-6.72,7.88-11.23,17.29-15.6,26.59
			C550.95,315.09,553.53,316.61,554.35,314.87L554.35,314.87z"/>
	</g>
</g>
<g>
	<g>
		<path d="M553.35,314.62c5.19-0.11,9.98-2.02,14.67-4.09c4.88-2.15,9.75-4.31,14.65-6.41c9.42-4.05,18.92-7.9,28.4-11.82
			c17.84-7.39,35.71-15.24,51.53-26.46c8.54-6.06,17.46-13.06,22.45-22.47c0.9-1.7-1.68-3.22-2.59-1.51
			c-4.37,8.23-11.9,14.44-19.29,19.89c-7.56,5.57-15.68,10.35-24.03,14.63c-17.18,8.79-35.31,15.53-53.05,23.05
			c-5.54,2.35-11.05,4.74-16.55,7.17c-5.16,2.28-10.43,4.9-16.19,5.02C551.42,311.66,551.42,314.66,553.35,314.62L553.35,314.62z"/>
	</g>
</g>
<g>
	<g>
		<path d="M583.41,261.33c22.82-7.19,45.77-13.99,68.62-21.07c20.3-6.29,40.83-13.69,57.19-27.72c8.2-7.03,15.16-15.65,19.5-25.59
			c0.77-1.75-1.82-3.28-2.59-1.51c-7.84,17.94-23.74,30.67-40.95,39.14c-9.97,4.91-20.49,8.56-31.08,11.89
			c-10.98,3.46-22.03,6.73-33.04,10.09c-12.83,3.91-25.65,7.85-38.45,11.88C580.78,259.01,581.56,261.91,583.41,261.33
			L583.41,261.33z"/>
	</g>
</g>
<g>
	<g>
		<path d="M411.57,256.53c-0.48-5.11-0.77-10.11,1.85-14.73c2.57-4.53,5.89-8.67,8.95-12.88c1.13-1.57-1.47-3.06-2.59-1.51
			c-3.21,4.43-6.82,8.79-9.36,13.64c-2.55,4.88-2.34,10.15-1.84,15.48C408.75,258.44,411.75,258.46,411.57,256.53L411.57,256.53z"/>
	</g>
</g>
<g>
	<g>
		<path d="M357.56,263.65c7.84-8.44,12.81-19.03,20.51-27.58c6.74-7.49,15.36-13.26,24.78-16.81c9.44-3.55,19.64-4.97,29.68-3.85
			c5.94,0.66,11.67,2.26,16.61,5.71c2.13,1.48,4.27,3.51,4.14,6.31c-0.07,1.45-0.6,2.87-1.05,4.24c-0.55,1.68-1.1,3.36-1.64,5.04
			c-1.01,3.09-1.8,6.44-3.48,9.25c-1.44,2.43-3.73,4.18-6.36,5.17c-6.29,2.38-13.02,0.49-19.04-1.78c-1.81-0.68-2.59,2.22-0.8,2.89
			c5.85,2.21,12.21,3.9,18.46,2.44c2.64-0.62,5.13-1.81,7.21-3.53c2.27-1.88,3.68-4.42,4.71-7.13c1.16-3.03,2.07-6.17,3.07-9.26
			c1.01-3.1,2.59-6.57,1.6-9.87c-0.79-2.63-2.84-4.57-5-6.13c-2.58-1.85-5.46-3.3-8.47-4.32c-5.46-1.84-11.48-2.44-17.23-2.4
			c-5.48,0.04-10.98,0.77-16.29,2.14c-10.62,2.74-20.6,8.05-28.72,15.43c-10.11,9.2-15.6,21.98-24.82,31.91
			C354.13,262.94,356.24,265.07,357.56,263.65L357.56,263.65z"/>
	</g>
</g>
<g>
	<g>
		<path d="M355.38,263.84c2.07,0.36,4.13,0.72,6.2,1.07c1.03,0.18,2.07,0.35,3.1,0.54c1.15,0.2,1.4,0.6,1.78,1.69
			c1.38,3.99,0.66,7.85-0.81,11.7c-1.53,4-3.18,7.95-4.77,11.92c-0.79,1.96-1.57,3.92-2.36,5.88c-0.74,1.85-1.56,3.69-1.7,5.71
			c-0.24,3.52,2.09,6.64,4.96,8.41c1.6,0.99,3.42,1.63,5.23,2.13c1.68,0.46,3.6,0.65,5.11,1.55c1.49,0.88,2.16,2.65,2.95,4.11
			c0.9,1.66,1.85,3.29,2.85,4.89c1.95,3.14,4.09,6.15,6.38,9.05c5.15,6.54,11.14,12.34,17.76,17.38c1.54,1.17,3.03-1.43,1.51-2.59
			c-5.9-4.49-11.27-9.71-15.97-15.44c-2.4-2.93-4.62-6.01-6.65-9.21c-0.97-1.54-1.9-3.1-2.79-4.69c-0.87-1.56-1.59-3.24-2.75-4.61
			c-2.39-2.84-6.59-2.83-9.84-4.06c-3.29-1.24-6.52-4.03-5.61-7.89c0.49-2.06,1.46-4.04,2.24-6c0.82-2.04,1.63-4.07,2.45-6.11
			c1.57-3.92,3.38-7.83,4.64-11.87c1.29-4.12,1.3-8.68-0.59-12.63c-1.01-2.12-3.09-2.21-5.16-2.57c-2.46-0.43-4.93-0.85-7.39-1.28
			C354.29,260.62,353.48,263.51,355.38,263.84L355.38,263.84z"/>
	</g>
</g>
<g>
	<g>
		<path d="M404.29,349.96c5.87-3.25,10.41-8.57,15.09-13.26c5.27-5.29,10.54-10.58,15.81-15.87c1.36-1.37-0.76-3.49-2.12-2.12
			c-5.15,5.17-10.31,10.34-15.46,15.51c-4.6,4.62-9.07,9.95-14.84,13.15C401.09,348.31,402.6,350.9,404.29,349.96L404.29,349.96z"/>
	</g>
</g>
<g>
	<g>
		<path d="M435.86,316.82c-2.05-0.9-3.86-2.23-5.22-4.02c-0.43,0.75-0.86,1.5-1.3,2.26c4.8,0.01,9.55-2.16,12.64-5.84
			c1.22-1.46,3.66-4.38,2.07-6.26c-0.75-0.89-2.15-1.33-3.13-1.92c-1.18-0.71-2.33-1.5-3.4-2.37c-8.74-7.06-12.23-17.88-14.31-28.53
			c-0.64-3.26-1.43-6.7-0.94-10.04c0.48-3.2,2.31-6.27,1.06-9.53c-0.69-1.78-3.59-1.01-2.89,0.8c1,2.61-0.64,5.32-1.06,7.9
			c-0.47,2.84-0.13,5.67,0.35,8.48c0.88,5.11,1.98,10.22,3.71,15.11c1.68,4.74,3.96,9.23,7.15,13.14c1.61,1.97,3.45,3.74,5.46,5.3
			c0.97,0.75,1.97,1.46,3.01,2.11c0.47,0.29,0.94,0.57,1.42,0.83c0.3,0.16,0.6,0.35,0.91,0.48c0.15,0.07,0.29,0.15,0.43,0.23
			c-0.11-0.14-0.21-0.28-0.32-0.42c-0.04,0-0.93,1.61-1,1.72c-0.34,0.49-0.71,0.95-1.12,1.39c-0.86,0.93-1.83,1.73-2.9,2.4
			c-2.16,1.33-4.6,2.03-7.14,2.03c-1.04,0-2,1.32-1.3,2.26c1.67,2.21,3.75,3.97,6.29,5.1C436.1,320.19,437.62,317.6,435.86,316.82
			L435.86,316.82z"/>
	</g>
</g>
<g>
	<g>
		<path d="M341.64,403.3c4.94,10.47,13.55,18.94,21.39,27.26c8.39,8.9,16.95,17.69,25.68,26.26c4.47,4.39,9.24,8.58,14.82,11.52
			c1.71,0.9,3.22-1.69,1.51-2.59c-4.85-2.55-9.03-6.07-12.97-9.85c-4.23-4.07-8.31-8.3-12.42-12.48
			c-8.39-8.52-16.79-17.09-24.67-26.09c-4.17-4.76-8.03-9.8-10.74-15.55C343.4,400.04,340.82,401.57,341.64,403.3L341.64,403.3z"/>
	</g>
</g>
<g>
	<g>
		<path d="M343.48,402.95c13.14,7.51,27.67,12.54,42.67,14.6c15.41,2.12,31.23,1.21,46.23-2.94c8.48-2.35,16.62-5.78,24.52-9.63
			c1.74-0.85,0.22-3.43-1.51-2.59c-13.7,6.67-28.04,11.52-43.29,12.85c-14.93,1.3-30.03-0.39-44.32-4.89
			c-7.93-2.5-15.56-5.86-22.78-9.99C343.31,399.4,341.8,401.99,343.48,402.95L343.48,402.95z"/>
	</g>
</g>
<g>
	<g>
		<path d="M406.48,468.37c12.65-17,29.1-30.71,42.02-47.5c3.64-4.72,6.96-9.68,9.8-14.93c0.92-1.7-1.67-3.22-2.59-1.51
			c-10.11,18.73-26.23,32.99-40.34,48.59c-4.02,4.45-7.89,9.03-11.47,13.84C402.73,468.41,405.34,469.91,406.48,468.37
			L406.48,468.37z"/>
	</g>
</g>
<g>
	<g>
		<path d="M390.99,480.54c2.04,0.38,3.98,1.04,5.79,2.06c1.85,1.05,3.42,2.07,5.64,1.6c4.05-0.86,5.51-5,8.44-7.36
			c0.63-0.51,0.53-1.59,0-2.12c-0.62-0.62-1.49-0.51-2.12,0c-1.34,1.08-2.3,2.48-3.37,3.81c-0.96,1.19-2.16,2.51-3.75,2.78
			c-1.57,0.27-3.02-1.18-4.34-1.83c-1.74-0.86-3.58-1.47-5.49-1.83C389.9,477.3,389.09,480.19,390.99,480.54L390.99,480.54z"/>
	</g>
</g>
<g>
	<g>
		<path d="M410.05,477.67c5.58,9.86,9.38,20.55,11.45,31.68c2.01,10.81,2.72,21.83,4.98,32.6c1.25,5.95,3.02,11.77,5.61,17.28
			c0.82,1.75,3.41,0.22,2.59-1.51c-4.69-9.95-6.33-20.95-7.75-31.76c-1.45-11.02-2.86-22.01-6.5-32.56
			c-2.06-5.97-4.68-11.75-7.8-17.25C411.69,474.48,409.1,475.99,410.05,477.67L410.05,477.67z"/>
	</g>
</g>
<g>
	<g>
		<path d="M389.16,478.56c-8.58,22.34-13.54,45.94-15.41,69.78c-0.47,5.92-0.74,11.86-0.84,17.8c-0.04,2.53-0.63,5.67,1.18,7.74
			c1.77,2.03,4.09,1.56,6.47,2c4.5,0.83,8.41,3.29,12.37,5.44c2.04,1.11,4.13,2.15,6.32,2.96c1.05,0.39,2.13,0.71,3.22,0.96
			c0.59,0.13,1.32,0.36,1.92,0.22c0.66-0.15,1.32-0.71,1.9-1.05c10.6-6.27,20.18-14.21,28.39-23.39c1.28-1.44-0.83-3.56-2.12-2.12
			c-8.45,9.45-18.32,17.5-29.32,23.81c0.39-0.05,0.77-0.1,1.16-0.15c-6.85-1.2-12.3-5.69-18.62-8.24c-1.54-0.62-3.14-1.12-4.78-1.39
			c-0.79-0.13-1.6-0.23-2.4-0.27c-0.89-0.05-1.64-0.02-2.26-0.75c-0.65-0.77-0.47-1.77-0.47-2.71c0.01-1.09,0.02-2.19,0.04-3.28
			c0.04-2.19,0.1-4.38,0.18-6.56c0.69-17.43,2.98-34.8,7.13-51.75c2.35-9.58,5.29-19.02,8.83-28.23
			C392.74,477.55,389.84,476.77,389.16,478.56L389.16,478.56z"/>
	</g>
</g>
<g>
	<g>
		<path d="M298.4,501c4.37-11.02,9.96-21.52,16.11-31.65c6.17-10.16,12.88-19.98,20.08-29.43c4.07-5.34,8.31-10.54,12.68-15.62
			c-0.71,0-1.41,0-2.12,0c5.66,4.75,10.32,10.5,13.76,17.03c0.9,1.71,3.49,0.19,2.59-1.51c-3.56-6.74-8.4-12.75-14.23-17.64
			c-0.58-0.49-1.56-0.66-2.12,0c-15.73,18.26-29.92,38.22-41.14,59.58c-3.15,6-6.01,12.15-8.51,18.45
			C294.79,502,297.69,502.78,298.4,501L298.4,501z"/>
	</g>
</g>
<g>
	<g>
		<path d="M324.09,524.71c0.84-11.41,6.02-21.83,11.55-31.64c5.92-10.51,11.94-20.91,17.27-31.73c3.07-6.24,5.99-12.56,8.75-18.94
			c0.76-1.75-1.83-3.28-2.59-1.51c-5.01,11.61-10.55,22.99-16.61,34.1c-5.61,10.29-12.11,20.18-16.65,31.02
			c-2.5,5.98-4.24,12.23-4.72,18.71C320.95,526.64,323.95,526.63,324.09,524.71L324.09,524.71z"/>
	</g>
</g>
<g>
	<g>
		<path d="M296.51,501.45c4.61,4.33,9.29,8.69,13.14,13.75c1.71,2.25,3.09,4.82,5.47,6.44c1.62,1.1,4.54,1.82,5.22,3.85
			c0.61,1.82,3.51,1.04,2.89-0.8c-0.82-2.44-2.9-3.57-5.04-4.72c-1.18-0.64-2.21-1.32-3.09-2.35c-1.05-1.23-1.89-2.64-2.87-3.93
			c-4-5.28-8.8-9.83-13.61-14.35C297.22,498,295.1,500.12,296.51,501.45L296.51,501.45z"/>
	</g>
</g>
<g>
	<g>
		<path d="M331.54,535.58c8.28-25.63,17.94-50.81,28.98-75.37c0.64-1.41,1.24-2.86,1.93-4.25c0.35-0.7,1.14-2.41,2.13-1.81
			c0.53,0.32,0.9,1.03,1.24,1.51c0.48,0.67,0.96,1.35,1.45,2.02c1.01,1.42,2.03,2.83,3.04,4.25c1.92,2.69,4.03,5.32,5.75,8.15
			c0.75,1.22,1.33,2.5,1.36,3.96c0.04,1.71-0.55,3.41-0.99,5.04c-1.83,6.71-3.7,13.41-5.56,20.11c-1.8,6.45-3.5,12.93-4.55,19.56
			c-0.56,3.51-1.44,6.73-2.82,10.01c-1.36,3.24-2.72,6.41-3.18,9.92c-0.47,3.64-0.32,7.31-0.97,10.93
			c-0.65,3.64-1.78,7.18-3.37,10.52c-0.83,1.73,1.76,3.26,2.59,1.51c1.5-3.16,2.68-6.46,3.41-9.88c0.72-3.37,0.88-6.76,1.08-10.19
			c0.2-3.42,1.03-6.5,2.34-9.65c1.23-2.98,2.59-5.91,3.25-9.09c0.72-3.43,1.14-6.91,1.9-10.33c0.76-3.43,1.65-6.82,2.58-10.21
			c1.96-7.15,3.98-14.29,5.94-21.45c0.86-3.15,2-6.46,0.85-9.7c-1.09-3.07-3.4-5.68-5.27-8.3c-2.12-2.97-4.24-5.94-6.37-8.91
			c-0.79-1.1-1.61-2.34-2.97-2.78c-1.33-0.43-2.65-0.03-3.68,0.87c-0.97,0.85-1.57,2.01-2.1,3.17c-0.8,1.75-1.59,3.5-2.37,5.25
			c-1.44,3.22-2.85,6.44-4.24,9.68c-2.77,6.45-5.45,12.93-8.03,19.45c-5.9,14.89-11.31,29.97-16.23,45.2
			C328.05,536.63,330.95,537.41,331.54,535.58L331.54,535.58z"/>
	</g>
</g>
<g>
	<g>
		<path d="M329.36,537.37c2.47,1.74,4.93,3.48,7.4,5.22c2.44,1.72,4.49,3.49,6.22,5.94c3.31,4.67,7.57,8.17,12.08,11.64
			c0.65,0.5,1.67,0.09,2.05-0.54c0.46-0.77,0.1-1.56-0.54-2.05c-2.22-1.71-4.44-3.43-6.48-5.36c-2.16-2.03-3.81-4.33-5.59-6.68
			c-1.68-2.2-3.81-3.83-6.05-5.42c-2.52-1.79-5.05-3.57-7.57-5.35C329.29,533.66,327.79,536.26,329.36,537.37L329.36,537.37z"/>
	</g>
</g>
<g>
	<g>
		<path d="M434.08,455.27c6.45,13.5,12.9,27,19.34,40.5c3.22,6.75,6.45,13.5,9.67,20.25c1.57,3.29,3.23,6.56,4.62,9.93
			c0.61,1.48,1.16,2.98,1.61,4.51c0.23,0.78,0.58,1.63,0.26,2.42c-0.28,0.67-0.95,1.31-1.37,1.89c-3.76,5.21-6.08,13.55-13.33,14.84
			c-1.9,0.34-1.09,3.23,0.8,2.89c6.67-1.18,9.96-7.6,13.03-12.91c0.86-1.5,1.81-2.91,2.84-4.29c1.06-1.42,1.35-2.8,0.97-4.54
			c-0.77-3.51-2.4-6.91-3.92-10.15c-6.68-14.23-13.55-28.38-20.32-42.56c-3.87-8.1-7.74-16.2-11.61-24.3
			C435.84,452.02,433.25,453.54,434.08,455.27L434.08,455.27z"/>
	</g>
</g>
<g>
	<g>
		<path d="M419.51,470.44c5.37,9.46,9.66,19.47,13.64,29.58c4.09,10.4,7.98,20.87,11.68,31.41c2.1,5.98,4.13,11.98,6.11,18
			c0.6,1.83,3.5,1.04,2.89-0.8c-3.55-10.8-7.29-21.54-11.23-32.21c-3.83-10.37-7.74-20.73-12.2-30.85
			c-2.5-5.68-5.23-11.25-8.29-16.65C421.14,467.24,418.55,468.75,419.51,470.44L419.51,470.44z"/>
	</g>
</g>
<g>
	<g>
		<path d="M420.85,469.82c4.54-5.33,9.34-10.44,14.37-15.32c1.39-1.35-0.73-3.47-2.12-2.12c-5.03,4.88-9.83,9.99-14.37,15.32
			c-0.53,0.62-0.6,1.52,0,2.12C419.27,470.35,420.33,470.44,420.85,469.82L420.85,469.82z"/>
	</g>
</g>
<g>
	<g>
		<path d="M444.56,443.49c2.19-3.58,4.46-7.12,6.81-10.6c2.11-3.13,4.83-6.27,5.55-10.09c0.35-1.89-2.54-2.7-2.89-0.8
			c-0.68,3.64-3.45,6.7-5.47,9.7c-2.27,3.38-4.46,6.8-6.59,10.27C440.96,443.63,443.55,445.14,444.56,443.49L444.56,443.49z"/>
	</g>
</g>
<g>
	<g>
		<path d="M454.22,422.91c3.63,4.93,7.25,9.86,10.88,14.79c3.45,4.69,7.02,9.35,9.79,14.5c2.73,5.08,4.85,10.47,7.77,15.46
			c2.77,4.74,6.09,9.03,9.64,13.19c2.09,2.45,3.74,4.96,4.94,7.96c1.25,3.13,2.45,6.27,3.68,9.4c0.05-0.39,0.1-0.77,0.15-1.16
			c-5.19,8.15-11.4,15.59-18.47,22.18c-1.41,1.32,0.71,3.44,2.12,2.12c5.57-5.19,10.61-10.92,15.07-17.09
			c1.08-1.5,2.13-3.03,3.14-4.58c0.46-0.71,1.05-1.38,0.87-2.28c-0.21-1.05-0.85-2.16-1.24-3.16c-1.41-3.61-2.58-7.5-4.6-10.83
			c-1.94-3.2-4.66-5.85-6.96-8.77c-2.39-3.04-4.53-6.29-6.43-9.66c-1.92-3.42-3.51-7.02-5.21-10.55c-1.73-3.6-3.7-7.04-5.96-10.34
			c-5.3-7.72-11.05-15.15-16.6-22.69C455.68,419.86,453.07,421.35,454.22,422.91L454.22,422.91z"/>
	</g>
</g>
<g>
	<g>
		<path d="M442.86,445.74c10.56,19.98,21.12,39.95,31.69,59.93c1.35,2.56,2.74,5.13,3.73,7.86c1.01,2.78,1.57,5.69,2.62,8.46
			c0.68,1.79,3.58,1.01,2.89-0.8c-0.94-2.48-1.49-5.08-2.32-7.6c-0.8-2.42-1.89-4.73-3.06-7c-2.58-5.01-5.26-9.97-7.89-14.94
			c-5.34-10.1-10.68-20.2-16.02-30.3c-3.02-5.71-6.04-11.42-9.05-17.12C444.55,442.52,441.96,444.03,442.86,445.74L442.86,445.74z"
			/>
	</g>
</g>
</svg>
