<?xml version="1.0" encoding="utf-8"?>
<!-- Generator: Adobe Illustrator 27.0.0, SVG Export Plug-In . SVG Version: 6.00 Build 0)  -->
<svg version="1.1" id="Layer_1" xmlns="http://www.w3.org/2000/svg" xmlns:xlink="http://www.w3.org/1999/xlink" x="0px" y="0px"
	 viewBox="0 0 800 800" style="enable-background:new 0 0 800 800;" xml:space="preserve">
<style type="text/css">
	.st0{fill:#FF0000;}
</style>
<g>
	<path class="st0" d="M241.3,256.34c2.74-2.19,4.81-5.08,7.27-7.57c5.62-5.7,13.38-9.24,21.36-9.76"/>
	<g>
		<path class="st0" d="M244.48,259.52c2.27-1.86,4.1-4.14,6.07-6.3c0.94-1.03,1.93-2.03,2.98-2.95c0.26-0.22,0.52-0.44,0.78-0.65
			c0.13-0.1,0.87-0.65,0.21-0.17c0.55-0.4,1.1-0.79,1.67-1.17c1.13-0.74,2.31-1.42,3.53-2.02c0.24-0.12,0.49-0.24,0.73-0.35
			c0.07-0.03,1.29-0.54,0.42-0.2c0.57-0.22,1.14-0.44,1.71-0.64c1.28-0.44,2.59-0.81,3.92-1.09c0.66-0.14,1.33-0.25,2-0.36
			c0.53-0.09-0.66,0.05,0.22-0.02c0.41-0.03,0.81-0.07,1.22-0.1c2.34-0.17,4.61-1.95,4.5-4.5c-0.1-2.29-1.99-4.68-4.5-4.5
			c-6.35,0.45-12.56,2.35-17.95,5.79c-2.62,1.67-5.08,3.66-7.2,5.92c-2.2,2.34-4.16,4.9-6.66,6.94c-1.83,1.5-1.67,4.83,0,6.36
			C240.06,261.3,242.53,261.12,244.48,259.52L244.48,259.52z"/>
	</g>
</g>
<g>
	<path class="st0" d="M226.83,323.1c2.79-8.94,6.5-17.58,11.05-25.76c2.3-4.13,4.87-8.21,8.48-11.27c4.94-4.2,11.37-6.11,17.6-7.92
		c7-2.03,14-4.07,21-6.1c7.6-2.21,15.4-4.52,21.67-9.35c7-5.4,11.41-13.41,15.61-21.19"/>
	<g>
		<path class="st0" d="M231.17,324.29c0.69-2.2,1.43-4.38,2.22-6.54c0.37-1.01,0.75-2.01,1.15-3.01c0.2-0.5,0.4-1,0.6-1.49
			c0.12-0.28,0.23-0.57,0.35-0.85c0.33-0.78-0.41,0.95,0.18-0.41c1.8-4.15,3.79-8.22,5.99-12.18c1.01-1.83,2.07-3.63,3.25-5.36
			c0.32-0.47,0.66-0.94,1-1.4c-0.4,0.55,0.22-0.28,0.36-0.44c0.73-0.88,1.5-1.72,2.33-2.51c0.36-0.34,0.73-0.67,1.12-0.99
			c0.09-0.07,0.77-0.6,0.35-0.29c-0.38,0.28,0.17-0.12,0.2-0.14c0.9-0.62,1.82-1.21,2.78-1.74c0.84-0.46,1.71-0.88,2.58-1.28
			c0.04-0.02,0.66-0.29,0.22-0.1c-0.49,0.21,0.31-0.13,0.42-0.17c0.51-0.21,1.03-0.4,1.55-0.59c4.12-1.5,8.38-2.62,12.59-3.84
			c4.77-1.39,9.54-2.77,14.32-4.16c8.23-2.39,16.87-4.76,23.84-9.96c7.96-5.94,12.92-14.47,17.57-23.06c1.12-2.07,0.58-5-1.61-6.16
			c-2.1-1.11-4.96-0.6-6.16,1.61c-1.98,3.66-3.98,7.33-6.29,10.8c-0.54,0.8-1.09,1.6-1.66,2.38c-0.16,0.22-0.33,0.44-0.5,0.66
			c0.05-0.07,0.4-0.49,0.07-0.1c-0.4,0.47-0.78,0.96-1.18,1.43c-1.34,1.56-2.8,3.02-4.38,4.34c-0.16,0.13-0.32,0.26-0.48,0.39
			c-0.54,0.46,0.51-0.34-0.08,0.06c-0.41,0.28-0.8,0.58-1.21,0.85c-0.87,0.59-1.77,1.14-2.69,1.65c-0.92,0.51-1.86,0.99-2.82,1.44
			c-0.45,0.21-0.9,0.41-1.35,0.61c-0.47,0.21,0.02-0.01,0.1-0.04c-0.33,0.13-0.66,0.27-0.98,0.39c-4.02,1.58-8.19,2.76-12.33,3.96
			c-4.69,1.36-9.39,2.73-14.08,4.09c-4.3,1.25-8.66,2.39-12.88,3.91c-4.4,1.59-8.49,3.59-12.12,6.57
			c-3.44,2.82-6.08,6.59-8.32,10.39c-5.34,9.05-9.54,18.87-12.68,28.89c-0.71,2.25,0.83,5.01,3.14,5.54
			C228.08,327.99,230.42,326.7,231.17,324.29L231.17,324.29z"/>
	</g>
</g>
<g>
	<path class="st0" d="M207.82,318.37c7.81-18.98,19.36-36.26,32.71-51.85c7.16-8.35,15.16-16.47,25.33-20.66
		c3.98-1.64,8.2-2.63,12.22-4.18c3.88-1.49,7.55-3.47,11.21-5.45c2.13,3.97,1.08,9.07-1.57,12.71c-2.65,3.64-6.62,6.08-10.64,8.11
		c-4.77,2.41-9.76,4.38-14.89,5.88c-5.52,1.62-11.26,2.72-16.34,5.41c-4.97,2.63-9.07,6.66-12.73,10.93
		c-10.81,12.6-18.6,28.2-19.88,44.75c3.2-3.39,5.38-7.59,7.6-11.69c7.93-14.7,17.02-29.2,29.93-39.78
		c6.38-5.23,13.55-9.38,20.68-13.52c8.25-4.78,16.55-9.58,25.46-12.96c-6.08-1.38-12.24,1.34-18.39,2.37
		c-5.22,0.87-10.78,0.56-15.53,2.88c-2.38,1.16-4.41,2.93-6.26,4.83c-2.66,2.72-5.11,5.99-5.39,9.78c-0.28,3.79,2.49,7.99,6.29,7.96
		c1.38-0.01,2.69-0.55,3.97-1.07c3.51-1.45,7.02-2.91,10.53-4.36c4.91-2.03,9.83-4.08,14.38-6.83c8.05-4.87,14.79-11.9,23.37-15.76"
		/>
	<g>
		<path class="st0" d="M212.16,319.57c0.08-0.18,0.49-1.17,0.22-0.55c0.2-0.47,0.4-0.94,0.61-1.41c0.38-0.87,0.77-1.74,1.17-2.61
			c0.82-1.8,1.68-3.58,2.57-5.35c1.74-3.47,3.61-6.87,5.58-10.22c3.91-6.63,8.23-13.02,12.87-19.16c0.31-0.41,0.62-0.82,0.93-1.23
			c0.01-0.01,0.45-0.58,0.19-0.24c-0.26,0.34,0.18-0.23,0.19-0.24c0.63-0.81,1.27-1.62,1.91-2.42c1.19-1.49,2.4-2.96,3.63-4.43
			c2.41-2.87,4.87-5.7,7.47-8.4c2.57-2.67,5.28-5.2,8.18-7.49c-0.56,0.44,0.23-0.17,0.41-0.3c0.33-0.25,0.67-0.49,1.01-0.73
			c0.79-0.56,1.6-1.1,2.42-1.61c1.58-0.99,3.22-1.89,4.91-2.68c0.22-0.1,1.36-0.6,0.64-0.3c0.5-0.21,1-0.4,1.5-0.59
			c1.08-0.4,2.17-0.77,3.27-1.12c2.2-0.71,4.41-1.36,6.58-2.15c4.57-1.66,8.87-3.92,13.14-6.23c-2.05-0.54-4.1-1.08-6.16-1.61
			c0.09,0.18,0.32,0.77,0.02-0.03c0.07,0.18,0.13,0.36,0.19,0.54c0.13,0.42,0.22,0.85,0.32,1.29c-0.19-0.89-0.01,0.14-0.01,0.5
			c0,0.19,0,0.38-0.01,0.57c0,0.01-0.1,1.18-0.02,0.55c0.07-0.6-0.05,0.21-0.08,0.35c-0.04,0.19-0.08,0.38-0.13,0.57
			c-0.11,0.44-0.29,0.86-0.4,1.3c-0.16,0.65,0.31-0.59,0.01,0.01c-0.09,0.18-0.16,0.35-0.25,0.53c-0.23,0.46-0.49,0.91-0.77,1.35
			c-0.14,0.22-0.29,0.42-0.44,0.64c0.05-0.07,0.41-0.49,0.08-0.1c-0.31,0.36-0.61,0.72-0.94,1.07c-0.33,0.34-0.67,0.67-1.02,0.99
			c-0.2,0.18-0.4,0.36-0.61,0.54c-0.06,0.05-0.7,0.58-0.34,0.29c0.41-0.33-0.27,0.2-0.36,0.26c-0.17,0.12-0.33,0.24-0.5,0.35
			c-0.39,0.27-0.8,0.53-1.2,0.79c-0.87,0.55-1.77,1.06-2.67,1.55c-1.94,1.04-3.92,1.98-5.94,2.86c-0.08,0.03-0.96,0.41-0.55,0.24
			c0.36-0.15-0.35,0.14-0.33,0.13c-0.51,0.21-1.02,0.41-1.53,0.61c-1.1,0.42-2.21,0.83-3.32,1.21c-4.13,1.41-8.39,2.36-12.57,3.63
			c-4.31,1.31-8.52,3.06-12.19,5.71c-3.53,2.55-6.64,5.54-9.49,8.81c-5.48,6.3-10.28,13.25-13.92,20.77
			c-4.22,8.72-6.91,17.97-7.7,27.65c-0.32,3.9,5.13,5.92,7.68,3.18c5.24-5.64,8.33-12.88,12.12-19.49c1.81-3.14,3.68-6.25,5.67-9.28
			c0.97-1.48,1.96-2.95,2.99-4.4c0.53-0.75,1.07-1.5,1.62-2.24c0.25-0.34,0.51-0.68,0.76-1.02c0.13-0.17,0.26-0.34,0.39-0.51
			c0.44-0.58-0.38,0.47,0.07-0.1c4.56-5.73,9.55-11.08,15.34-15.59c-0.46,0.36,0.41-0.31,0.54-0.41c0.37-0.27,0.73-0.55,1.11-0.81
			c0.8-0.58,1.61-1.15,2.43-1.71c1.64-1.12,3.31-2.19,4.99-3.24c3.32-2.06,6.7-4.01,10.08-5.97c3.93-2.27,7.86-4.54,11.88-6.64
			c1.94-1.02,3.89-1.99,5.87-2.92c1.06-0.49,2.13-0.98,3.21-1.43c0.48-0.2,0.1-0.04,0,0c0.29-0.12,0.58-0.24,0.87-0.35
			c0.58-0.23,1.16-0.46,1.75-0.68c1.8-0.69,3.4-2.24,3.3-4.34c-0.09-1.9-1.32-3.92-3.3-4.34c-5.06-1.06-9.98-0.15-14.93,1.07
			c-2.22,0.55-4.43,1.11-6.7,1.43c0.84-0.12-0.49,0.05-0.73,0.08c-0.5,0.05-1.01,0.1-1.51,0.15c-1.15,0.11-2.3,0.21-3.44,0.35
			c-4.79,0.57-9.33,1.65-13.24,4.64c-3.57,2.73-7.13,6.22-9.06,10.35c-2.02,4.32-2.4,9.42,0.38,13.54c2.92,4.33,7.88,6.1,12.85,4.24
			c4.57-1.71,9.05-3.72,13.55-5.6c4.53-1.89,9.08-3.82,13.3-6.35c8.14-4.88,14.87-11.9,23.57-15.88c2.15-0.98,2.84-4.26,1.61-6.16
			c-1.43-2.22-3.86-2.66-6.16-1.61c-6.95,3.17-12.66,8.3-18.81,12.72c-3.27,2.35-6.71,4.39-10.34,6.13
			c-0.92,0.44-1.84,0.86-2.77,1.27c-0.5,0.22-1,0.44-1.5,0.66c-0.22,0.09-0.43,0.18-0.65,0.28c-0.72,0.31,0.5-0.21-0.22,0.09
			c-2.01,0.84-4.03,1.67-6.04,2.51c-2.06,0.85-4.12,1.71-6.18,2.56c-0.94,0.39-1.88,0.76-2.85,1.08c-0.01,0-0.75,0.19-0.3,0.1
			c0.44-0.09-0.28,0.01-0.31,0.01c-1,0.12,0.3,0.01,0.22,0.07c-0.03,0.02-0.62-0.13-0.62-0.16c-0.01-0.06,0.78,0.46,0.34,0.15
			c-0.16-0.11-0.38-0.26-0.56-0.32c-0.48-0.16,0.28,0.23,0.26,0.23c-0.1-0.02-0.29-0.26-0.36-0.33c-0.27-0.29-0.68-1.07-0.25-0.23
			c-0.17-0.34-0.39-0.69-0.59-1.02c-0.25-0.42,0.1,0.24,0.12,0.29c-0.06-0.22-0.15-0.43-0.21-0.65c-0.05-0.16-0.07-0.34-0.12-0.5
			c-0.17-0.49,0.09,0.31,0.02,0.36c0.05-0.03-0.04-0.91-0.04-1.01c-0.02-0.72-0.02-0.13-0.05,0.06c0.04-0.26,0.09-0.53,0.15-0.79
			c0.09-0.39,0.22-0.77,0.34-1.15c0.26-0.81,0.08-0.21,0-0.04c0.09-0.18,0.18-0.36,0.27-0.54c0.44-0.85,0.97-1.64,1.52-2.42
			c0.3-0.42-0.02,0.03-0.07,0.1c0.18-0.21,0.35-0.42,0.53-0.63c0.27-0.31,0.55-0.62,0.83-0.92c0.66-0.71,1.35-1.4,2.07-2.05
			c0.31-0.28,0.63-0.56,0.94-0.83c0.66-0.57,0.23-0.19,0.07-0.08c0.17-0.13,0.34-0.25,0.51-0.37c0.81-0.57,1.66-1,2.52-1.48
			c0.44-0.25,0-0.01-0.1,0.03c0.26-0.11,0.53-0.2,0.8-0.29c0.4-0.14,0.81-0.26,1.22-0.37c0.96-0.26,1.94-0.44,2.92-0.61
			c0.04-0.01,0.74-0.11,0.25-0.04c-0.53,0.07,0.71-0.08,0.68-0.08c0.5-0.06,1-0.11,1.51-0.16c1.08-0.1,2.16-0.2,3.23-0.32
			c2.48-0.28,4.93-0.68,7.36-1.26c2.32-0.55,4.62-1.18,6.97-1.59c0.22-0.04,0.45-0.07,0.67-0.11c-0.49,0.08-0.14,0.01,0.15-0.01
			c0.6-0.06,1.19-0.1,1.79-0.12c0.52-0.01,1.04,0,1.56,0.03c0.11,0.01,1.03,0.1,0.52,0.03c-0.46-0.06,0.77,0.16,0.74,0.15
			c0-2.89,0-5.79,0-8.68c-7.83,2.99-15.21,6.91-22.47,11.07c-6.91,3.96-13.91,7.87-20.39,12.53c-12.59,9.04-22.12,21.15-30.03,34.36
			c-2.16,3.6-4.2,7.27-6.19,10.96c-1,1.86-2.01,3.73-3.12,5.54c-0.53,0.87-1.09,1.72-1.69,2.55c-0.17,0.24-0.34,0.47-0.52,0.7
			c0.29-0.38,0.06-0.09-0.11,0.11c-0.38,0.44-0.76,0.88-1.15,1.31c2.56,1.06,5.12,2.12,7.68,3.18c0.08-0.97,0.18-1.94,0.29-2.91
			c0.11-0.9,0.03-0.23,0.01-0.04c0.03-0.21,0.06-0.41,0.09-0.62c0.09-0.62,0.2-1.23,0.31-1.85c0.36-1.98,0.81-3.94,1.35-5.89
			c0.54-1.94,1.15-3.86,1.85-5.75c0.36-0.98,0.75-1.95,1.14-2.92c0.2-0.48-0.01,0.04-0.05,0.11c0.11-0.26,0.22-0.51,0.33-0.77
			c0.23-0.51,0.46-1.02,0.69-1.52c1.75-3.74,3.78-7.34,6.05-10.78c1.12-1.7,2.3-3.35,3.51-4.97c0.08-0.11,0.52-0.67,0.06-0.09
			c0.13-0.17,0.26-0.33,0.39-0.5c0.3-0.38,0.61-0.77,0.92-1.15c0.71-0.87,1.43-1.72,2.16-2.57c1.35-1.54,2.75-3.03,4.23-4.44
			c0.72-0.68,1.45-1.33,2.21-1.96c0.16-0.13,1.17-0.91,0.58-0.47c0.45-0.33,0.9-0.66,1.37-0.98c0.87-0.59,1.77-1.14,2.7-1.64
			c0.45-0.24,0.91-0.47,1.37-0.69c0.2-0.09,0.4-0.18,0.6-0.28c0.29-0.13,0.27-0.12-0.06,0.02c0.14-0.06,0.27-0.11,0.41-0.17
			c1.99-0.78,4.03-1.42,6.08-2c4.32-1.21,8.66-2.3,12.87-3.86c4.4-1.63,8.79-3.52,12.87-5.86c4.22-2.42,8.37-5.69,10.66-10.08
			c2.54-4.87,2.97-10.48,0.45-15.44c-1.13-2.22-4.12-2.72-6.16-1.61c-1.83,0.99-3.66,1.98-5.52,2.91c-0.89,0.45-1.8,0.88-2.71,1.29
			c-0.15,0.07-1.17,0.52-0.62,0.28c-0.57,0.24-1.14,0.46-1.72,0.68c-3.89,1.45-7.94,2.44-11.78,4.01
			c-7.46,3.05-13.9,7.85-19.63,13.48c-5.51,5.42-10.46,11.44-15.2,17.54c-5,6.45-9.72,13.11-13.96,20.08
			c-4.78,7.85-8.9,16.05-12.4,24.54c-0.9,2.18,0.97,5.04,3.14,5.54C209.25,323.31,211.2,321.9,212.16,319.57L212.16,319.57z"/>
	</g>
</g>
<g>
	<path class="st0" d="M488.04,278.91c2.12-1.28,4.88-0.5,7.09,0.63c2.21,1.13,4.38,2.62,6.86,2.71"/>
	<g>
		<path class="st0" d="M490.32,282.79c0.2-0.11,0.39-0.21,0.59-0.3c-0.36,0.15-0.72,0.3-1.07,0.45c0.41-0.16,0.82-0.26,1.26-0.32
			c-0.4,0.05-0.8,0.11-1.2,0.16c0.52-0.05,1.03-0.04,1.55,0.02c-0.4-0.05-0.8-0.11-1.2-0.16c0.92,0.13,1.79,0.4,2.65,0.75
			c-0.36-0.15-0.72-0.3-1.07-0.45c1.4,0.6,2.68,1.41,4.05,2.08c1.99,0.97,3.9,1.61,6.12,1.73c2.35,0.13,4.6-2.16,4.5-4.5
			c-0.11-2.55-1.98-4.36-4.5-4.5c-0.23-0.01-0.46-0.03-0.69-0.06c0.4,0.05,0.8,0.11,1.2,0.16c-0.84-0.13-1.63-0.38-2.42-0.71
			c0.36,0.15,0.72,0.3,1.07,0.45c-2.25-0.99-4.28-2.35-6.62-3.16c-2.87-0.99-6.09-0.92-8.76,0.6c-2.05,1.17-2.92,4.13-1.61,6.16
			C485.49,283.25,488.13,284.04,490.32,282.79L490.32,282.79z"/>
	</g>
</g>
<g>
	<path class="st0" d="M490.45,278.47c3.37,0.24,6.7,1.1,9.76,2.53c-4.04,2.23-9.12,0.56-13.07-1.82c-4.23-2.54-8-5.84-11.07-9.7"/>
	<g>
		<path class="st0" d="M490.45,282.97c0.44,0.03,0.88,0.07,1.32,0.13c-0.49-0.06-0.21-0.03,0.11,0.03c0.8,0.14,1.59,0.3,2.37,0.51
			c0.71,0.18,1.41,0.4,2.11,0.64c0.35,0.12,0.69,0.25,1.03,0.38c0.88,0.33-0.38-0.19,0.55,0.24c0-2.59,0-5.18,0-7.77
			c-0.39,0.2-0.39,0.18,0.02,0.04c-0.24,0.09-0.48,0.17-0.73,0.24c-0.25,0.07-0.5,0.1-0.74,0.17c0.38-0.1,0.57-0.04,0.06-0.03
			c-0.58,0.01-1.15-0.01-1.73-0.04c-0.65-0.04,0.66,0.18,0.03-0.01c-0.25-0.08-0.52-0.11-0.78-0.17c-0.52-0.13-1.03-0.29-1.54-0.46
			c-0.26-0.09-0.51-0.19-0.76-0.28c-0.64-0.24,0.55,0.3-0.04-0.03c-1-0.56-2.03-1.04-3.01-1.66c-0.93-0.58-1.83-1.21-2.71-1.86
			c-0.27-0.2-0.42-0.34-0.07-0.05c-0.21-0.17-0.43-0.34-0.64-0.52c-0.42-0.35-0.84-0.71-1.25-1.07c-1.74-1.55-3.33-3.26-4.79-5.08
			c-1.48-1.84-4.84-1.66-6.36,0c-1.8,1.96-1.58,4.4,0,6.36c3.39,4.23,7.62,7.89,12.32,10.61c5.28,3.05,11.62,4.56,17.27,1.61
			c2.82-1.47,3.06-6.38,0-7.77c-3.87-1.76-7.78-2.8-12.03-3.14c-2.35-0.19-4.6,2.2-4.5,4.5
			C486.06,281.06,487.93,282.77,490.45,282.97L490.45,282.97z"/>
	</g>
</g>
<g>
	<path class="st0" d="M555.03,330.16c-5.92,14.29-4.95,30.38-3.88,45.81c0.43,6.26,0.99,12.87,4.62,17.98"/>
	<g>
		<path class="st0" d="M550.69,328.96c-3.44,8.41-4.64,17.58-4.82,26.61c-0.09,4.54,0.08,9.09,0.34,13.62
			c0.24,4.24,0.44,8.52,0.98,12.74c0.64,5.03,1.76,10.05,4.69,14.29c1.34,1.93,4.01,3,6.16,1.61c1.92-1.24,3.05-4.09,1.61-6.16
			c-0.54-0.78-1.03-1.58-1.45-2.43c-0.09-0.18-0.17-0.37-0.26-0.54c-0.33-0.61,0.22,0.62-0.02-0.04c-0.16-0.44-0.33-0.88-0.48-1.33
			c-0.62-1.88-0.99-3.82-1.3-5.78c-0.08-0.53,0.02,0.1,0.02,0.17c-0.03-0.27-0.07-0.55-0.1-0.82c-0.05-0.48-0.1-0.96-0.14-1.44
			c-0.09-0.96-0.16-1.92-0.23-2.88c-0.15-2.16-0.3-4.32-0.43-6.48c-0.25-4.23-0.44-8.47-0.41-12.72c0.01-2.18,0.08-4.37,0.22-6.55
			c0.07-1.05,0.15-2.09,0.26-3.14c0.05-0.45,0.09-0.89,0.15-1.34c0.01-0.11,0.13-1.03,0.06-0.51c-0.06,0.43,0.06-0.43,0.07-0.51
			c0.71-4.8,1.92-9.5,3.76-13.99c0.89-2.18-0.97-5.04-3.14-5.54C553.61,325.22,551.65,326.62,550.69,328.96L550.69,328.96z"/>
	</g>
</g>
<g>
	<path class="st0" d="M550.43,372.58c-0.35,7.17,0.14,14.39,1.44,21.45"/>
	<g>
		<path class="st0" d="M545.93,372.58c-0.35,7.59,0.24,15.17,1.6,22.64c0.42,2.32,3.36,3.85,5.54,3.14c2.49-0.81,3.6-3.05,3.14-5.54
			c-0.16-0.88-0.31-1.77-0.45-2.65c-0.07-0.48-0.14-0.96-0.21-1.43c0.11,0.81-0.02-0.18-0.05-0.45c-0.21-1.71-0.37-3.43-0.48-5.16
			c-0.23-3.52-0.25-7.04-0.09-10.56c0.11-2.35-2.15-4.61-4.5-4.5C547.9,368.19,546.05,370.05,545.93,372.58L545.93,372.58z"/>
	</g>
</g>
<g>
	<path class="st0" d="M554.11,326.27c0.05,2.34,0.1,4.68,0.15,7.01c0.02,0.95-0.04,2.06-0.83,2.58c-0.79,0.52-2.12-0.63-1.4-1.24"/>
	<g>
		<path class="st0" d="M549.61,326.27c0.03,1.42,0.06,2.84,0.09,4.26c0.03,1.26,0.16,2.56,0.02,3.81c0.05-0.4,0.11-0.8,0.16-1.2
			c-0.04,0.26-0.09,0.51-0.19,0.75c0.15-0.36,0.3-0.72,0.45-1.07c-0.07,0.15-0.14,0.29-0.24,0.43c0.23-0.3,0.47-0.61,0.7-0.91
			c-0.08,0.1-0.16,0.18-0.26,0.26c0.3-0.23,0.61-0.47,0.91-0.7c-0.06,0.05-0.12,0.09-0.19,0.12c0.36-0.15,0.72-0.3,1.07-0.45
			c-0.1,0.04-0.18,0.06-0.28,0.08c0.4-0.05,0.8-0.11,1.2-0.16c-0.06,0.01-0.13,0.01-0.19,0c0.4,0.05,0.8,0.11,1.2,0.16
			c-0.13-0.02-0.25-0.05-0.38-0.11c0.36,0.15,0.72,0.3,1.07,0.45c-0.09-0.05-0.17-0.09-0.26-0.15c0.3,0.23,0.61,0.47,0.91,0.7
			c-0.1-0.08-0.19-0.17-0.27-0.27c0.23,0.3,0.47,0.61,0.7,0.91c-0.03-0.05-0.06-0.1-0.09-0.15c0.15,0.36,0.3,0.72,0.45,1.07
			c-0.02-0.05-0.04-0.1-0.05-0.16c0.05,0.4,0.11,0.8,0.16,1.2c-0.01-0.05-0.01-0.11-0.01-0.16c-0.05,0.4-0.11,0.8-0.16,1.2
			c0.01-0.05,0.02-0.11,0.04-0.15c-0.15,0.36-0.3,0.72-0.45,1.07c0.02-0.05,0.06-0.1,0.09-0.15c-0.23,0.3-0.47,0.61-0.7,0.91
			c0.02-0.02,0.05-0.05,0.07-0.07c0.82-0.8,1.32-2.04,1.32-3.18c0-1.1-0.49-2.42-1.32-3.18c-0.86-0.79-1.98-1.37-3.18-1.32
			c-1.2,0.05-2.31,0.46-3.18,1.32c-1.36,1.34-1.78,3.25-1.3,5.06c0.43,1.61,1.72,2.86,3.22,3.49c1.55,0.65,3.37,0.68,4.85-0.2
			c1.39-0.82,2.31-2.11,2.8-3.63c0.28-0.85,0.35-1.8,0.35-2.7c0-0.76-0.03-1.52-0.05-2.28c-0.03-1.64-0.07-3.29-0.1-4.93
			c-0.02-1.17-0.49-2.35-1.32-3.18c-0.78-0.78-2.06-1.37-3.18-1.32c-1.16,0.05-2.37,0.43-3.18,1.32
			C550.13,323.96,549.59,325.06,549.61,326.27L549.61,326.27z"/>
	</g>
</g>
<g>
	<path class="st0" d="M564,352.2c6.82,15.66,10.16,32.82,9.72,49.89c-3.93-4.33-4.7-10.56-5.47-16.35
		c-2.77-20.83-7.83-41.35-15.08-61.07c13.16,23.03,14.3,51.9,5.72,76.99c0.5-15.73,1.01-31.45,1.51-47.18
		c4.88,3.21,9.77,6.41,14.65,9.62c1.27,0.84,2.57,1.7,3.47,2.93c1.71,2.34,1.64,5.49,1.62,8.39c-0.03,7.32,0.78,14.63,2.43,21.76
		c0.13,0.55,0.27,1.12,0.63,1.55c1,1.18,3.1,0.52,3.85-0.83c0.75-1.35,0.55-3.01,0.3-4.53c-1.53-9.51-3.63-20.35,2.35-27.9
		c6.67,5.36,6.38,15.4,5.71,23.94c-0.68,8.53-0.34,18.76,6.84,23.41c1.08-10.89,1.11-21.88,0.09-32.77
		c4.59,10.01,8.8,20.19,12.63,30.51"/>
	<g>
		<path class="st0" d="M560.12,354.48c0.12,0.28,0.24,0.56,0.37,0.85c-0.15-0.37-0.13-0.3,0.08,0.2c0.17,0.43,0.35,0.85,0.52,1.28
			c0.4,1,0.78,2.01,1.15,3.02c0.69,1.88,1.33,3.77,1.92,5.68c1.25,4.04,2.28,8.15,3.09,12.3c0.4,2.04,0.74,4.09,1.03,6.14
			c0.15,1.04-0.03-0.32,0.08,0.63c0.07,0.61,0.15,1.22,0.21,1.83c0.11,0.99,0.2,1.99,0.29,2.99c0.35,4.22,0.47,8.45,0.37,12.68
			c2.56-1.06,5.12-2.12,7.68-3.18c-0.17-0.19-0.34-0.39-0.51-0.59c0.54,0.63,0.11,0.15,0.01-0.01c-0.31-0.49-0.62-0.96-0.9-1.46
			c-0.12-0.22-0.24-0.45-0.35-0.68c-0.06-0.12-0.41-0.85-0.17-0.33c0.24,0.52-0.09-0.23-0.13-0.35c-0.11-0.3-0.22-0.6-0.32-0.91
			c-0.72-2.18-1.15-4.45-1.49-6.72c-0.08-0.52-0.15-1.04-0.22-1.57c-0.1-0.7,0.1,0.73,0,0.03c-0.04-0.27-0.07-0.54-0.11-0.82
			c-0.22-1.65-0.45-3.3-0.69-4.95c-0.4-2.73-0.85-5.46-1.33-8.19c-1.87-10.58-4.34-21.05-7.38-31.35
			c-1.75-5.91-3.69-11.76-5.81-17.54c-2.74,1.16-5.48,2.31-8.22,3.47c1.27,2.23,2.43,4.51,3.49,6.85c0.14,0.32,0.28,0.63,0.42,0.95
			c0.06,0.13,0.34,0.79,0.03,0.07c0.21,0.51,0.42,1.02,0.62,1.54c0.51,1.28,0.98,2.58,1.43,3.89c1.62,4.78,2.82,9.7,3.6,14.68
			c0.1,0.62,0.19,1.23,0.27,1.85c-0.12-0.9,0.07,0.57,0.1,0.87c0.16,1.38,0.29,2.76,0.39,4.14c0.18,2.5,0.26,5,0.24,7.5
			c-0.01,2.51-0.12,5.01-0.32,7.51c-0.1,1.25-0.22,2.5-0.37,3.74c-0.03,0.28-0.07,0.55-0.1,0.83c-0.16,1.33,0.09-0.55-0.03,0.25
			c-0.1,0.69-0.2,1.38-0.31,2.07c-0.92,5.71-2.34,11.32-4.19,16.8c2.95,0.4,5.89,0.8,8.84,1.2c0.5-15.73,1.01-31.45,1.51-47.18
			c-2.26,1.3-4.51,2.59-6.77,3.89c3.05,2,6.1,4.01,9.15,6.01c1.42,0.94,2.85,1.87,4.27,2.81c0.64,0.42,1.28,0.83,1.91,1.26
			c0.07,0.04,1.14,0.87,0.43,0.28c0.37,0.31,0.7,0.65,1.04,1c0.05,0.05,0.09,0.1,0.14,0.15c-0.3-0.37-0.3-0.35-0.02,0.07
			c0.06,0.11,0.12,0.23,0.18,0.34c-0.19-0.49-0.2-0.49-0.02,0c0.08,0.32,0.18,0.62,0.25,0.94c0.05,0.24,0.16,1.11,0.06,0.17
			c0.18,1.65,0.11,3.31,0.12,4.96c0.02,3.5,0.23,7,0.64,10.47c0.43,3.72,1.01,7.42,1.84,11.07c0.45,1.98,1.27,3.73,3.01,4.9
			c1.69,1.14,3.95,1.3,5.84,0.59c2.03-0.76,3.53-2.14,4.38-4.15c0.92-2.19,0.75-4.38,0.41-6.67c-0.2-1.36-0.44-2.72-0.66-4.09
			c-0.11-0.72-0.22-1.44-0.33-2.16c-0.19-1.27,0.07,0.6-0.03-0.19c-0.06-0.46-0.12-0.92-0.17-1.38c-0.36-3.23-0.51-6.48-0.14-9.71
			c-0.11,0.96-0.04,0.28,0,0.08c0.1-0.49,0.18-0.98,0.29-1.46c0.17-0.72,0.38-1.43,0.63-2.13c0.06-0.17,0.56-1.26,0.1-0.29
			c0.16-0.33,0.31-0.67,0.49-1c0.17-0.33,0.36-0.65,0.56-0.97c0.1-0.16,1.01-1.45,0.39-0.64c-2.12,0-4.24,0-6.36,0
			c0.63,0.52,1.18,1.08,1.73,1.67c0.15,0.16,0.5,0.67-0.07-0.13c0.1,0.14,0.2,0.27,0.29,0.41c0.25,0.37,0.49,0.74,0.71,1.13
			c0.19,0.34,0.36,0.69,0.54,1.04c0.11,0.21,0.3,0.78-0.05-0.15c0.06,0.16,0.12,0.32,0.18,0.47c0.3,0.8,0.54,1.63,0.74,2.46
			c0.19,0.8,0.33,1.6,0.45,2.42c-0.13-0.94-0.01,0.01,0.02,0.4c0.04,0.48,0.08,0.96,0.1,1.44c0.09,1.76,0.08,3.53,0,5.29
			c-0.29,7.07-1.26,14.24,1.02,21.12c1.43,4.33,3.96,7.94,7.77,10.48c1.32,0.88,3.22,0.78,4.54,0c1.47-0.86,2.07-2.26,2.23-3.89
			c1.07-10.9,1.1-21.87,0.09-32.77c-2.8,0.76-5.59,1.51-8.39,2.27c4.53,9.89,8.33,19.07,12.17,29.43c0.82,2.2,3.08,3.94,5.54,3.14
			c2.16-0.7,4.02-3.17,3.14-5.54c-3.97-10.68-8.34-21.22-13.08-31.58c-0.79-1.72-3.34-2.63-5.08-2.07c-1.77,0.57-3.49,2.33-3.3,4.34
			c1.01,10.9,0.98,21.88-0.09,32.77c2.26-1.3,4.51-2.59,6.77-3.89c-0.19-0.12-0.37-0.27-0.56-0.38c0.05,0.03,0.57,0.54,0.25,0.19
			c-0.26-0.28-0.58-0.51-0.85-0.77c-0.27-0.27-0.5-0.58-0.77-0.84c-0.37-0.34,0.19,0.27,0.2,0.28c-0.19-0.17-0.33-0.45-0.46-0.66
			c-0.39-0.59-0.71-1.21-1.04-1.84c-0.38-0.72-0.01,0.06,0.05,0.17c-0.07-0.14-0.13-0.31-0.18-0.46c-0.15-0.42-0.3-0.84-0.43-1.27
			c-0.23-0.76-0.42-1.53-0.58-2.31c-0.08-0.4-0.14-0.8-0.21-1.2c-0.02-0.1-0.09-0.7-0.02-0.09c0.09,0.69-0.03-0.31-0.04-0.45
			c-0.17-1.65-0.22-3.32-0.2-4.98c0.08-7.17,1.3-14.22-0.44-21.32c-1-4.07-3.09-8.01-6.36-10.71c-1.69-1.39-4.77-2.07-6.36,0
			c-3.89,5.02-5.39,10.86-5.31,17.18c0.04,3.11,0.44,6.2,0.88,9.28c0.19,1.31,0.39,2.61,0.61,3.91c0.1,0.64,0.21,1.28,0.31,1.92
			c0.14,0.9,0.02,0.26,0.01,0.07c0.03,0.28,0.05,0.57,0.05,0.85c-0.03,0.55-0.01,0.56,0.06,0.05c0.07,0.67-0.21,0.37,0.04,0.09
			c0.91-1.01-0.58,0.09,0.59-0.59c0.83-0.48,0.6-0.18,0.27-0.12c0.68-0.12,1.26-0.08,1.87,0.28c0.33,0.33,0.67,0.66,1,0.98
			c0.19,0.52,0.24,0.62,0.14,0.29c-0.05-0.31-0.16-0.65-0.23-0.96c-0.21-0.93-0.41-1.86-0.59-2.8c-0.3-1.56-0.56-3.13-0.79-4.7
			c-0.22-1.52,0.05,0.44-0.06-0.46c-0.05-0.39-0.1-0.79-0.14-1.18c-0.11-0.95-0.2-1.9-0.27-2.85c-0.26-3.24-0.27-6.46-0.31-9.7
			c-0.04-3.6-0.63-7.1-2.94-9.97c-2.36-2.92-6.17-4.8-9.26-6.84c-3.26-2.14-6.51-4.28-9.77-6.41c-2.97-1.95-6.67,0.65-6.77,3.89
			c-0.5,15.73-1.01,31.45-1.51,47.18c-0.07,2.24,1.77,4.13,3.9,4.42c2.28,0.31,4.21-1.08,4.94-3.22
			c6.88-20.26,7.75-42.97,1.24-63.45c-1.87-5.9-4.36-11.63-7.42-17.01c-1.11-1.95-3.6-2.69-5.62-1.84
			c-1.92,0.81-3.38,3.19-2.61,5.31c3.8,10.38,7.02,20.98,9.61,31.73c1.29,5.38,2.43,10.79,3.41,16.23c0.5,2.8,0.97,5.6,1.39,8.42
			c0.19,1.25,0.37,2.5,0.54,3.75c-0.09-0.63,0,0.03,0.02,0.13c0.06,0.46,0.12,0.92,0.18,1.38c0.1,0.72,0.19,1.44,0.3,2.16
			c0.83,5.7,2.36,11.2,6.26,15.61c2.69,3.04,7.59,0.51,7.68-3.18c0.43-17.95-3.21-35.71-10.33-52.16c-0.94-2.17-4.28-2.82-6.16-1.61
			C559.48,349.77,559.11,352.16,560.12,354.48L560.12,354.48z"/>
	</g>
</g>
<g>
	<path class="st0" d="M399.02,187.03c20.4,2.16,41.67,5.12,63.61,2.19c2.92,0,7.31,1.46,10.24,2.92
		c14.62,11.7,22.67,25.59,44.6,32.9c17.55,11.7,32.34,23.81,44.6,43.14c8.43,13.29,12.58,27.92,20.47,42.41
		c3.5,6.42,11.7,8.77,16.08,14.62c11.7,14.62,8.77,33.63,14.62,51.18c4.39,8.77,2.92,19.01,8.34,28.09"/>
	<g>
		<path d="M399.02,188.53c12.87,1.37,25.73,2.97,38.68,3.34c6.67,0.19,13.35,0.05,19.99-0.58c1.63-0.16,3.3-0.5,4.94-0.56
			c1.25-0.05,2.54,0.27,3.74,0.59c1.25,0.33,2.47,0.74,3.67,1.21c1.33,0.53,2.33,1.14,3.42,2.05c7.14,5.98,13.31,13.01,20.48,18.96
			c3.79,3.14,7.83,5.98,12.18,8.3c2.36,1.26,4.8,2.36,7.28,3.34c1.32,0.52,2.78,0.86,3.97,1.63c1.23,0.79,2.43,1.64,3.63,2.47
			c8.7,6.01,17.03,12.58,24.41,20.18c8.05,8.3,14.96,17.74,20.19,28.06c2.78,5.49,5.16,11.17,7.59,16.82
			c2.52,5.84,5,11.82,8.21,17.32c2.45,4.19,6.69,6.74,10.54,9.48c4.28,3.05,7.38,6.96,9.72,11.66c4.87,9.79,5.39,21.06,7.19,31.66
			c0.47,2.75,1.01,5.49,1.72,8.19c0.33,1.26,0.67,2.53,1.09,3.76c0.5,1.44,1.22,2.78,1.69,4.24c1.76,5.42,2.12,11.17,3.64,16.65
			c0.77,2.78,1.84,5.47,3.3,7.96c0.97,1.67,3.57,0.16,2.59-1.51c-3.07-5.25-3.9-11.2-4.99-17.08c-0.5-2.7-1.09-5.4-2.04-7.98
			c-0.48-1.3-1.12-2.53-1.53-3.85c-0.45-1.44-0.84-2.9-1.19-4.36c-2.59-10.78-2.76-22.07-6.21-32.65c-1.69-5.17-4.19-9.99-7.65-14.2
			c-3.07-3.74-7.48-5.93-11.18-8.95c-1.98-1.62-3.5-3.42-4.71-5.68c-1.53-2.86-2.95-5.79-4.3-8.74c-2.65-5.78-5.04-11.68-7.65-17.48
			c-4.95-10.96-11.21-21.07-19.07-30.19c-7.01-8.13-15.12-15.19-23.74-21.56c-2.22-1.64-4.47-3.23-6.74-4.79
			c-1.09-0.75-2.18-1.56-3.31-2.24c-1.24-0.75-2.8-1.1-4.16-1.63c-4.94-1.93-9.63-4.5-13.95-7.57c-7.6-5.4-13.85-12.35-20.67-18.64
			c-1.81-1.67-3.65-3.29-5.57-4.83c-2.02-1.62-5.13-2.45-7.62-3.04c-1.17-0.28-2.43-0.54-3.64-0.54c-1.57-0.01-3.2,0.35-4.76,0.51
			c-3.42,0.34-6.86,0.55-10.3,0.64c-13.25,0.37-26.46-0.91-39.61-2.35c-3.09-0.34-6.17-0.68-9.26-1.01
			C397.1,185.32,397.12,188.33,399.02,188.53L399.02,188.53z"/>
	</g>
</g>
<g>
	<path class="st0" d="M345.81,616.2c1.65,7.17,7.65,12.71,14.39,15.68c6.73,2.96,14.19,3.74,21.52,4.42
		c24.2,2.22,50.04,3.33,71.23-8.57c5.2-2.92,10.35-6.69,16.31-6.88c7.29-0.24,13.64,4.93,20.81,6.25
		c8.01,1.47,16.02-1.97,23.45-5.33c5.96-2.7,12.24-5.66,15.88-11.1c3.75-5.6,4.01-12.76,6.13-19.15
		c4.33-13.06,16.02-22.08,27.25-30.02c3.31-2.34,6.69-4.71,9.14-7.95c2.02-2.68,3.3-5.83,4.56-8.94
		c3.65-9.03,7.31-18.06,10.96-27.09"/>
	<g>
		<path d="M344.37,616.6c2.27,9.42,10.81,15.56,19.64,18.28c5.3,1.64,10.86,2.26,16.37,2.78c5.3,0.5,10.61,0.94,15.93,1.23
			c10.48,0.56,21.04,0.48,31.43-1.17c10.31-1.64,19.91-5.09,28.89-10.39c4.37-2.58,8.99-5.33,14.26-4.95c5,0.36,9.52,3.1,14.13,4.82
			c5.19,1.93,10.48,2.16,15.86,0.89c5.42-1.27,10.55-3.68,15.58-6.02c4.36-2.03,8.76-4.36,12.09-7.91
			c3.45-3.68,5.07-8.35,6.19-13.17c1.14-4.88,2.09-9.72,4.46-14.19c2.2-4.15,5.15-7.83,8.45-11.15c3.44-3.45,7.23-6.52,11.14-9.41
			c4.02-2.98,8.42-5.62,12-9.13c3.95-3.87,5.87-8.91,7.9-13.93c2.29-5.66,4.58-11.33,6.87-16.99c1.11-2.75,2.23-5.51,3.34-8.26
			c0.72-1.79-2.18-2.57-2.89-0.8c-2.23,5.51-4.46,11.02-6.69,16.53c-2.13,5.26-3.97,10.78-6.61,15.81
			c-2.46,4.7-6.43,7.74-10.67,10.74c-3.86,2.73-7.68,5.52-11.3,8.56c-7.04,5.91-13.37,13-16.45,21.8
			c-1.64,4.69-2.16,9.68-3.77,14.38c-1.6,4.69-4.63,8.23-8.77,10.89c-4.14,2.66-8.78,4.65-13.31,6.54
			c-5.07,2.12-10.52,3.92-16.09,3.51c-5.02-0.37-9.51-2.93-14.12-4.71c-4.63-1.78-9.38-2.46-14.18-0.88
			c-4.8,1.58-8.91,4.61-13.34,6.94c-4.48,2.36-9.22,4.17-14.1,5.51c-9.87,2.72-20.16,3.51-30.36,3.44
			c-10.34-0.07-20.78-0.8-31.03-2.09c-9.4-1.18-19.76-4.04-25.33-12.38c-1.22-1.83-2.1-3.8-2.61-5.93
			C346.81,613.92,343.92,614.72,344.37,616.6L344.37,616.6z"/>
	</g>
</g>
<g>
	<path class="st0" d="M253.98,235.22c27.32-15.3,53.65-31.38,79.97-50.39c5.85-5.85,4.39-16.08,13.16-17.55
		c10.24-1.46,20.47,2.92,29.25,7.31c20.47,13.16,38.02,27.78,59.95,38.02c8.77,4.39,14.62,11.7,23.4,17.55
		c10.24,5.85,24.86,4.39,32.17,13.16c17.55,14.62,30.71,30.71,51.18,42.41l4.35,4.35c0.02,0.02,0.05,0.04,0.08,0.06
		c8.76,4.38,17.52,8.76,27.4,12.12"/>
	<g>
		<path d="M254.74,236.52c25.15-14.09,49.8-29.09,73.39-45.7c2.61-1.84,5.88-3.56,7.9-6.07c1.38-1.72,2.34-3.68,3.18-5.71
			c1.44-3.49,2.53-8.24,6.43-9.81c2.87-1.15,6.56-0.85,9.56-0.49c3.52,0.43,6.96,1.43,10.28,2.65c3.27,1.2,6.54,2.62,9.62,4.25
			c2.97,1.58,5.75,3.68,8.53,5.57c11.24,7.62,22.17,15.71,33.75,22.82c5.81,3.57,11.78,6.79,17.91,9.76
			c5.77,2.79,10.5,7.16,15.34,11.26c2.52,2.13,5.08,4.25,7.83,6.08c2.23,1.48,4.87,2.45,7.42,3.25c5.11,1.61,10.44,2.41,15.53,4.12
			c2.35,0.79,4.65,1.8,6.65,3.28c1.05,0.77,1.84,1.71,2.76,2.61c1.18,1.16,2.57,2.17,3.82,3.26c4.91,4.29,9.64,8.77,14.4,13.23
			c9.34,8.75,18.9,17.34,29.82,24.1c1.04,0.64,2.3,1.19,3.24,1.92c0.55,0.43,1.03,1.03,1.52,1.52c0.96,0.96,1.9,2.19,3.04,2.97
			c1.11,0.76,2.49,1.26,3.69,1.86c1.64,0.81,3.28,1.62,4.93,2.41c3.16,1.52,6.35,2.99,9.58,4.36c3.17,1.34,6.38,2.58,9.63,3.7
			c1.83,0.63,2.62-2.27,0.8-2.89c-6.79-2.33-13.35-5.24-19.8-8.38c-1.56-0.76-3.11-1.53-4.66-2.3c-0.69-0.34-1.37-0.71-2.06-1.03
			c-1.21-0.57,0.03,0.17-0.52-0.31c-1.23-1.08-2.33-2.33-3.49-3.49c-1.63-1.63-3.9-2.6-5.83-3.83c-2.8-1.79-5.53-3.71-8.19-5.72
			c-5.19-3.93-10.09-8.23-14.88-12.64c-4.76-4.37-9.41-8.85-14.18-13.21c-2.44-2.23-4.92-4.43-7.44-6.57
			c-2.03-1.72-3.72-3.68-6.04-5.08c-4.52-2.72-9.82-3.82-14.89-5.02c-5.66-1.35-10.94-2.85-15.66-6.37
			c-5.19-3.88-9.79-8.5-15.09-12.24c-5.51-3.88-11.93-6.37-17.78-9.7c-11.78-6.73-22.78-14.67-33.92-22.39
			c-5.67-3.93-11.28-8.16-17.55-11.08c-6.19-2.88-12.69-5.32-19.55-5.85c-5.18-0.41-10.61,0.03-13.8,4.6
			c-2.48,3.55-3.15,8.04-5.52,11.66c-1.77,2.7-4.98,4.36-7.57,6.19c-3.02,2.13-6.06,4.24-9.12,6.32
			c-5.95,4.05-11.97,8.01-18.04,11.89c-12.16,7.76-24.54,15.18-37.06,22.34c-3.13,1.79-6.27,3.57-9.42,5.33
			C251.54,234.87,253.05,237.46,254.74,236.52L254.74,236.52z"/>
	</g>
</g>
<g>
	<path class="st0" d="M182.93,312.18c-16.35,14.16-25.48,35.3-28.73,56.69c-3.25,21.39-1.1,43.22,1.97,64.63
		c1.41,9.82,3,19.98,0.32,29.54c-2.5,8.94-8.68,17.81-5.93,26.67c1.09,3.52,3.5,6.46,5.9,9.27c17.51,20.43,37.49,38.58,57.42,56.66
		c6.66,6.05,13.32,12.09,19.99,18.14c9.21,8.36,18.52,16.79,29.36,22.88c32.34,18.16,73,12.95,107.52,26.52
		c3.14,1.23,6.3,2.64,9.67,2.76c11.95,0.42,17.99-13.89,27.12-21.61c6.83-5.77,15.92-7.93,24.65-9.91
		c19.74-4.48,40.09-8.98,60.06-5.71c6.17,1.01,12.94,2.66,18.35-0.48c3.45-2,5.6-5.58,7.77-8.92c10.92-16.84,25.7-31.16,42.86-41.57
		c5.73-3.47,11.76-6.54,16.88-10.87c7.73-6.53,12.91-15.51,18.13-24.19c8.2-13.62,17.26-27.33,30.5-36.12
		c7.02-4.66,16.4-10.85,13.74-18.85c-0.78-2.33-2.53-4.18-4.12-6.05c-8.68-10.17-13.97-23.19-14.83-36.54"/>
	<g>
		<path d="M181.87,311.11c-20.65,18.09-29.33,45.72-30.6,72.43c-0.75,15.89,0.87,31.78,3.05,47.51c1.09,7.81,2.5,15.68,2.02,23.6
			c-0.45,7.54-3.66,13.95-6.1,20.96c-2.15,6.18-2.79,12.59,0.64,18.43c3.59,6.13,9.19,11.43,13.99,16.59
			c10.51,11.31,21.68,21.99,33.03,32.46c11.67,10.76,23.47,21.38,35.22,32.04c10.68,9.69,21.58,19.37,34.73,25.6
			c24.86,11.78,52.97,11.92,79.49,17.32c6.76,1.38,13.47,3.1,19.97,5.43c5.81,2.09,11.55,5.17,17.86,3.37
			c10.09-2.89,15.21-14.01,22.49-20.64c5.18-4.72,11.87-7.09,18.55-8.83c7.48-1.94,15.09-3.56,22.68-5.04
			c8.1-1.58,16.29-2.83,24.55-3.16c7.93-0.32,15.51,0.61,23.33,1.8c6.26,0.95,12.69,0.96,17.52-3.72c2.16-2.09,3.75-4.7,5.38-7.2
			c2-3.07,4.12-6.08,6.37-8.97c8.49-10.92,18.7-20.54,30.13-28.32c6.01-4.09,12.54-7.34,18.52-11.45c5.53-3.8,10.07-8.56,14-13.98
			c8.23-11.38,14.24-24.15,23.23-35.03c4.35-5.26,9.25-10.13,14.9-13.99c4.68-3.2,9.8-6.24,13.17-10.94
			c3.31-4.61,3.01-9.8-0.46-14.24c-4.38-5.6-8.52-10.86-11.43-17.42c-2.88-6.5-4.57-13.5-5.08-20.59c-0.14-1.91-3.14-1.93-3,0
			c0.95,13.26,5.86,25.99,14.22,36.34c1.93,2.39,4.59,4.71,5.11,7.9c0.49,3.05-1.19,5.81-3.18,7.97c-4.12,4.48-9.67,7.27-14.41,11
			c-10.31,8.11-17.9,19.07-24.71,30.13c-3.58,5.82-6.93,11.81-10.94,17.36c-4.16,5.75-9.12,10.53-15.11,14.35
			c-5.96,3.81-12.22,7.09-18.01,11.16c-5.21,3.66-10.17,7.68-14.81,12.03c-4.95,4.63-9.55,9.64-13.75,14.96
			c-1.93,2.44-3.78,4.95-5.53,7.51c-1.87,2.74-3.5,5.72-5.7,8.22c-5.26,5.99-12.72,4.5-19.73,3.33c-7.56-1.26-15.2-1.56-22.84-1.06
			c-14.96,0.97-29.9,4.29-44.4,7.95c-6.11,1.54-12.33,3.55-17.51,7.26c-4.47,3.19-7.86,7.5-11.35,11.69
			c-3.25,3.9-6.79,8.31-11.63,10.27c-6.08,2.47-11.93-0.87-17.61-2.91c-25.48-9.15-53.04-8.82-79.09-15.53
			c-13.33-3.44-25.58-9.01-36.58-17.34c-11.99-9.08-22.81-19.8-33.94-29.9c-11.16-10.13-22.35-20.22-33.18-30.69
			c-5.49-5.31-10.9-10.72-16.14-16.27c-4.94-5.23-10.21-10.5-14.41-16.35c-2.04-2.84-3.4-5.94-3.4-9.49c0-3.65,1.2-7.19,2.49-10.57
			c2.43-6.4,4.98-12.43,5.46-19.35c0.52-7.37-0.66-14.73-1.7-22.01c-1.15-8.07-2.17-16.17-2.81-24.3
			c-2.21-27.95,0.34-57.58,16.57-81.35c3.59-5.26,7.82-10.02,12.61-14.21C185.45,311.96,183.32,309.85,181.87,311.11L181.87,311.11z
			"/>
	</g>
</g>
<g>
	<path class="st0" d="M177.22,357.85c4.65-3.39,6.12-9.24,7.58-15.09c1.46-23.4-2.92-45.33-1.46-68.73c1.46-4.39,0-10.24,7.31-11.7
		c23.4-4.39,42.41-14.62,62.34-24.83"/>
	<g>
		<path d="M177.98,359.15c4.1-3.08,6.03-7.68,7.37-12.5c0.33-1.21,0.74-2.45,0.93-3.69c0.25-1.65,0.2-3.42,0.25-5.09
			c0.09-3.06,0.1-6.13,0.04-9.19c-0.23-12.42-1.51-24.79-1.91-37.21c-0.1-3.05-0.15-6.1-0.11-9.15c0.03-2.87-0.18-6.04,0.51-8.83
			c0.69-2.8,0.38-6.71,3.02-8.56c1.96-1.38,4.76-1.47,7.04-1.97c2.86-0.63,5.7-1.36,8.51-2.17c5.47-1.58,10.84-3.5,16.11-5.65
			c11.66-4.75,22.82-10.6,34.01-16.34c1.72-0.88,0.2-3.47-1.51-2.59c-9.99,5.12-19.94,10.34-30.27,14.77
			c-5.22,2.24-10.54,4.25-15.96,5.95c-2.77,0.87-5.56,1.66-8.38,2.36c-2.79,0.69-5.71,1.05-8.46,1.87c-3.82,1.15-5.7,4.04-6.36,7.82
			c-0.27,1.57-0.61,3.1-0.92,4.66c-0.29,1.46-0.2,3.07-0.25,4.56c-0.06,1.7-0.09,3.4-0.1,5.1c-0.06,12.36,1.14,24.68,1.74,37.01
			c0.34,6.99,0.48,14,0.11,20.99c-0.15,2.88-1.21,5.98-2.26,8.66c-1,2.53-2.46,4.96-4.66,6.61
			C174.94,357.7,176.43,360.31,177.98,359.15L177.98,359.15z"/>
	</g>
</g>
<g>
	<g>
		<path class="st0" d="M236.74,335.36c10.97-12.94,23.2-24.79,36.49-35.33c0.55-0.43,3.43-2.61,1.04-0.83
			c0.69-0.52,1.37-1.05,2.06-1.57c1.8-1.36,3.61-2.69,5.44-4c3.38-2.42,6.81-4.75,10.3-7c7.12-4.6,14.47-8.84,22.02-12.72
			c4.16-2.14,8.37-4.16,12.63-6.06c1.11-0.49,2.22-0.98,3.33-1.46c0.54-0.23,2.31-0.91-0.24,0.1c0.64-0.25,1.28-0.53,1.92-0.8
			c2.24-0.92,4.5-1.8,6.76-2.66c-2.92-5.01-5.84-10.03-8.76-15.04c-22.84,19.17-43.27,40.89-61.36,64.58
			c-5.04,6.6-9.87,13.37-14.49,20.28c-2.49,3.73-1.03,9.03,2.32,11.61c3.28,2.53,8.93,2.74,11.82-0.7
			c18.71-22.37,37.43-44.76,57.61-65.82c5.76-6.01,11.64-11.91,17.65-17.67c-4.71-0.61-9.42-1.21-14.14-1.82
			c0.16,0.31,0.82,1.75,0.21,0.33c-0.62-1.46,0,0.12,0.07,0.36c0.25,0.81,0.42,1.63,0.55,2.47c-0.11-0.8-0.21-1.6-0.32-2.39
			c0.3,2.24,0.23,4.46-0.07,6.69c0.11-0.8,0.21-1.6,0.32-2.39c-0.92,6.21-3.27,12.18-5.36,18.07c-2.23,6.27-4.58,12.5-7.05,18.68
			c-0.58,1.45-1.17,2.91-1.76,4.35c-0.3,0.72-0.6,1.45-0.9,2.17c-0.15,0.36-0.3,0.72-0.45,1.08c-0.11,0.27-0.23,0.54-0.34,0.81
			c-0.26,0.63-0.15,0.36,0.34-0.8c-0.03,0.63-0.67,1.57-0.92,2.16c-0.31,0.72-0.62,1.44-0.93,2.16c-0.7,1.62-1.41,3.23-2.13,4.84
			c-2.68,5.99-5.47,11.92-8.37,17.8c-3.34,6.76-6.82,13.44-10.45,20.05c-2.26,4.13-1.15,10,3.23,12.31c2.09,1.1,4.62,1.66,6.94,0.91
			c2.36-0.76,3.91-2.15,5.38-4.14c21.08-28.58,39.78-58.81,57.88-89.33c5.09-8.58,10.14-17.18,15.18-25.79
			c-5.48-2.31-10.97-4.62-16.45-6.94c-0.41,1.02-0.83,2.04-1.25,3.06c-0.73,1.77,0.66-1.54,0.16-0.37
			c-0.18,0.42-0.36,0.84-0.54,1.27c-0.87,2.02-1.77,4.03-2.69,6.04c-1.69,3.67-3.46,7.31-5.27,10.92
			c-3.77,7.48-7.77,14.84-11.81,22.17c-7.99,14.48-16.2,28.87-23.22,43.86c-3.75,8-7.21,16.16-10.13,24.5
			c-1.19,3.4-1.58,6.83,0.38,10.06c2.49,4.11,7.45,5.64,11.96,4.5c5.25-1.33,8.12-5.51,11.34-9.46
			c11.62-14.24,23.49-28.31,34.85-42.76c5.84-7.43,11.58-15.11,15.41-23.81c1.97-4.46,3.69-8.99,4.48-13.82
			c0.94-5.79,0.94-11.14-0.08-16.92c-0.36-2.01-2.36-4.44-4.14-5.38c-1.82-0.96-3.69-1.34-5.74-1.07c-4.39,0.59-7.79,4.33-7.8,8.84
			c-0.02,6.98-0.55,13.93-1.48,20.85c0.11-0.8,0.21-1.6,0.32-2.39c-3.81,27.73-13.81,54.03-21.97,80.66
			c-2.34,7.64-4.53,15.33-6.41,23.1c-1.06,4.39,1.03,8.85,5.21,10.62c1.79,0.75,3.96,1.07,5.86,0.45c2.38-0.77,3.87-2.17,5.38-4.14
			c11.2-14.58,21.18-30.08,29.78-46.33c8.87-16.75,16.37-34.3,22.36-52.29c3.28-9.84,6.07-19.84,8.4-29.95
			c0.87-3.76-0.54-8.26-4.14-10.16c-1.41-0.75-2.94-1.16-4.54-1.23c-2.02-0.09-5.05,1.03-6.36,2.64
			c-11.9,14.53-22.6,29.99-31.75,46.39c-9.14,16.38-16.81,33.64-22.93,51.37c-3.35,9.7-6.19,19.57-8.54,29.55
			c-1.08,4.57,1.42,9.96,6.29,11.07c4.97,1.13,9.47-1.5,11.07-6.29c5.51-16.51,10.86-33.27,17.9-49.2c0.04-0.1-0.8,1.87-0.41,0.97
			c0.1-0.24,0.2-0.47,0.3-0.71c0.24-0.55,0.47-1.1,0.71-1.65c0.44-1.02,0.89-2.03,1.34-3.05c0.87-1.94,1.75-3.88,2.66-5.81
			c1.85-3.91,3.78-7.78,5.82-11.6c4.09-7.64,8.6-15.06,13.66-22.09c0.68-0.95,1.38-1.9,2.08-2.84c0.35-0.47,0.68-0.96,1.06-1.4
			c0.07-0.08-1.24,1.59-0.64,0.83c0.21-0.26,0.41-0.53,0.62-0.79c1.51-1.91,3.06-3.78,4.66-5.62c3.21-3.69,6.61-7.22,10.18-10.57
			c-5.01-2.92-10.03-5.84-15.04-8.76c-5.25,29.05-14.78,57.07-25.2,84.62c-2.96,7.83-6,15.64-9.04,23.45
			c-0.76,1.96-0.21,5.21,0.91,6.94c1.08,1.67,2.46,2.91,4.3,3.68c4.18,1.76,8.83,0.15,11.24-3.68
			c16.69-26.48,30.47-54.75,41.27-84.12c2.96-8.06,5.68-16.2,8.16-24.41c1.36-4.51-1.63-10.01-6.29-11.07
			c-2.3-0.52-4.89-0.41-6.94,0.91c-2.09,1.35-3.21,3.08-4.14,5.38c-12.53,31.21-16.92,64.96-19.53,98.27
			c-0.72,9.25-1.3,18.51-1.88,27.77c-0.23,3.76,2.95,7.84,6.61,8.68c1.58,0.36,3.2,0.36,4.79,0c1.94-0.44,4.52-2.28,5.38-4.14
			c14.33-31.03,28.97-62.63,35.34-96.44c1.85-9.81,3.06-19.77,3.39-29.75c-6,0-12,0-18,0c0.7,7.24,0.31,14.5-0.65,21.69
			c0.11-0.8,0.21-1.6,0.32-2.39c-3.2,23.22-12.33,45.81-11.63,69.51c0.2,6.84,1.22,13.77,3.33,20.29c1.11,3.45,3.84,5.96,7.48,6.45
			c3.57,0.48,7.09-1.18,8.97-4.3c16.03-26.57,21.33-57.6,24.01-88.05c0.74-8.37,1.27-16.76,1.79-25.15
			c-5.89,0.8-11.79,1.6-17.68,2.39c0.3,1.59,0.56,3.19,0.78,4.8c-0.11-0.8-0.21-1.6-0.32-2.39c1.54,11.93,0.64,23.95-0.47,35.87
			c-1.13,12.09-2.31,24.18-3.46,36.27c-0.66,6.94-1.33,13.87-1.99,20.81c-0.29,3.07,1.92,6.29,4.46,7.77c2.74,1.6,6.35,1.67,9.08,0
			c10.24-6.25,18.02-15.96,22.7-26.94c5.3-12.42,7.18-25.67,7.18-39.13c0-7.69-0.56-15.37-1.12-23.03c-6,0-12,0-18,0
			c1.38,12.29,0.38,24.64-1.24,36.86c0.11-0.8,0.21-1.6,0.32-2.39c-2.14,15.83-4.75,31.61-7.16,47.4c-0.32,2.08-0.39,3.86,0.45,5.86
			c0.73,1.73,1.98,3.4,3.68,4.3c3.34,1.76,8.28,1.7,10.91-1.41c7.67-9.05,13.11-19.38,16.83-30.63c3.58-10.81,5.35-22.13,6.61-33.42
			c0.67-6.03,1.12-12.07,1.51-18.12c0.29-4.46-3.65-8.28-7.8-8.84c-4.02-0.54-9.17,2.02-9.87,6.45c-1.85,11.57-1.9,22.91-0.11,34.48
			c0.78,5.05,1.97,10.05,3.56,14.91c1.61,4.91,3.64,9.69,4.35,14.84c-0.11-0.8-0.21-1.6-0.32-2.39c0.32,2.78,0.25,5.54-0.1,8.31
			c0.11-0.8,0.21-1.6,0.32-2.39c-0.73,5.19-2.32,10.17-3.97,15.13c5.79,1.6,11.57,3.19,17.36,4.79
			c4.49-21.61,7.92-43.43,10.38-65.36c0.68-6.02,1.27-12.05,1.79-18.09c-6,0-12,0-18,0c0.43,6.61-0.11,13.2-0.98,19.75
			c0.11-0.8,0.21-1.6,0.32-2.39c-3,22.09-9.08,47.39,5.01,67.2c1.17,1.64,2.41,2.88,4.3,3.68c1.72,0.73,4.05,1.14,5.86,0.45
			c5.84-2.2,10.2-5.84,13.71-10.98c2.74-4.03,4.54-8.8,5.94-13.44c3.41-11.26,5.43-22.97,6.73-34.64c0.72-6.51,1.1-13.06,1.16-19.61
			c0.04-4.49-3.46-8.26-7.8-8.84c-4.58-0.62-8.4,2.16-9.87,6.45c-7.86,22.84-11.33,47.4-10.12,71.53
			c0.37,7.38,1.22,14.72,2.37,22.02c0.84,5.33,8.88,8.69,13.22,5.38c4.59-3.51,8.42-7.57,11.19-12.71
			c2.42-4.48,4.16-9.38,5.24-14.35c2.4-11.02,1.92-22.35,3.39-33.48c-0.11,0.8-0.21,1.6-0.32,2.39c0.45-3.27,1.1-6.5,2.05-9.67
			c-5.79,0-11.57,0-17.36,0c1.7,7.27,3.06,14.6,4.07,22c-0.11-0.8-0.21-1.6-0.32-2.39c1.82,13.6,2.44,27.32,1.86,41.03
			c5.59-1.51,11.18-3.03,16.77-4.54c-4.64-9.98-16-13.03-25.96-14.22c-4.94-0.59-9.94-0.76-14.9-1.16
			c-5.75-0.46-11.5-1.01-17.24-1.62c-6.44-0.69-12.87-1.47-19.29-2.33c0.8,0.11,1.6,0.21,2.39,0.32
			c-29.93-4.02-59.59-9.8-89.01-16.56c-29.28-6.73-58.34-14.42-87.32-22.32c-16.89-4.61-33.7-9.41-51.17-11.22
			c0.8,5.89,1.6,11.79,2.39,17.68c9.52-1.8,19.08-3.35,28.68-4.64c-0.8,0.11-1.6,0.21-2.39,0.32c8.07-1.08,16.16-1.98,24.27-2.7
			c4-0.35,8.01-0.66,12.02-0.92c4.35-0.29,9.19-0.06,13.33-1.53c8.95-3.17,13-12.63,10.9-21.6c-1.09-4.65-4.08-8.26-7.82-11.04
			c-3.46-2.57-7.6-3.63-11.8-4.11c-9.09-1.06-17.62,3.47-25.18,7.94c-4.05,2.4-5.87,8.21-3.23,12.31c2.63,4.08,7.98,5.79,12.31,3.23
			c2.44-1.44,4.88-2.88,7.45-4.08c2.04-0.95-1.57,0.54,0.1-0.07c0.68-0.25,1.35-0.51,2.05-0.73c1.33-0.42,2.69-0.73,4.07-0.92
			c-0.8,0.11-1.6,0.21-2.39,0.32c1.69-0.2,3.36-0.19,5.05,0.02c-0.8-0.11-1.6-0.21-2.39-0.32c0.6,0.09,1.2,0.2,1.8,0.35
			c0.21,0.05,1.62,0.63,1.73,0.54c-0.11,0.08-2.04-0.98-0.91-0.37c0.26,0.14,0.53,0.27,0.79,0.42c0.26,0.15,0.5,0.32,0.76,0.47
			c1.24,0.77-1.32-1.2-0.59-0.45c0.33,0.33,1.66,1.85,0.66,0.53c-1.01-1.33,0.01,0.24,0.25,0.55c0.5,0.64-0.64-1.9-0.44-1.1
			c0.06,0.24,0.17,0.48,0.24,0.73c0.16,0.56,0.27,1.12,0.35,1.69c-0.11-0.8-0.21-1.6-0.32-2.39c0.09,0.9,0.09,1.77,0,2.67
			c0.11-0.8,0.21-1.6,0.32-2.39c-0.11,0.76-0.37,1.45-0.53,2.19c0.44-2.06,0.81-1.72,0.28-0.81c-0.55,0.95-0.91,0.61,0.57-0.63
			c-0.12,0.1-0.78,0.74-0.77,0.77c-0.03-0.15,2.18-1.59,0.61-0.57c-1.05,0.68,1.61-0.43,0.54-0.26c-0.62,0.1-1.24,0.29-1.87,0.39
			c0.8-0.11,1.6-0.21,2.39-0.32c-6.01,0.72-12.13,0.79-18.16,1.3c-6.26,0.53-12.52,1.16-18.76,1.91
			c-12.97,1.55-25.9,3.51-38.74,5.94c-2.02,0.38-4.43,2.34-5.38,4.14c-0.96,1.82-1.34,3.69-1.07,5.74c0.63,4.71,4.32,7.34,8.84,7.8
			c1.4,0.14,2.79,0.31,4.18,0.49c-0.8-0.11-1.6-0.21-2.39-0.32c18.15,2.44,35.77,8.03,53.4,12.8c17.83,4.83,35.7,9.55,53.64,13.99
			c35.61,8.81,71.54,16.51,107.87,21.67c10.82,1.54,21.66,2.89,32.53,3.98c5.04,0.5,10.08,0.95,15.13,1.33
			c4.42,0.34,8.86,0.5,13.25,1.09c-0.8-0.11-1.6-0.21-2.39-0.32c1.72,0.24,3.42,0.54,5.1,0.97c0.75,0.19,1.5,0.41,2.23,0.66
			c0.39,0.13,0.78,0.3,1.17,0.43c0.91,0.3-2.28-1.09-0.65-0.25c0.66,0.34,1.31,0.67,1.93,1.07c0.33,0.21,0.64,0.46,0.97,0.67
			c-2.17-1.35-1.23-0.97-0.62-0.41c0.29,0.27,0.56,0.54,0.82,0.83c0.63,0.69,0.59,1.5-0.43-0.59c0.35,0.72,0.85,1.37,1.19,2.11
			c1.6,3.44,6.65,5.27,10.16,4.14c3.9-1.26,6.43-4.57,6.61-8.68c0.94-21.94-1.24-44.04-6.25-65.42c-0.86-3.69-4.87-6.78-8.68-6.61
			c-4.04,0.18-7.5,2.68-8.68,6.61c-3.69,12.27-2.83,25.18-4.49,37.76c0.11-0.8,0.21-1.6,0.32-2.39c-0.35,2.52-0.81,5.02-1.44,7.49
			c-0.31,1.23-0.67,2.45-1.07,3.65c-0.2,0.6-0.41,1.19-0.64,1.78c-0.11,0.29-0.23,0.59-0.35,0.88c0.58-1.35,0.73-1.71,0.45-1.07
			c-1.01,2.2-2.17,4.24-3.52,6.25c-0.86,1.28,1.52-1.81,0-0.01c-0.4,0.47-0.81,0.93-1.23,1.37c-0.43,0.44-0.87,0.87-1.33,1.28
			c-0.49,0.44-2.32,1.87,0.02,0.07c4.41,1.79,8.81,3.59,13.22,5.38c-0.24-1.53-0.47-3.06-0.67-4.6c0.11,0.8,0.21,1.6,0.32,2.39
			c-2.13-16.14-2.11-32.49,0.02-48.63c-0.11,0.8-0.21,1.6-0.32,2.39c1.63-12.09,4.44-24,8.41-35.54c-5.89-0.8-11.79-1.6-17.68-2.39
			c-0.08,8.07-0.65,16.11-1.72,24.11c0.11-0.8,0.21-1.6,0.32-2.39c-1.28,9.42-3.13,18.87-5.92,27.97c-0.27,0.87-0.55,1.73-0.85,2.58
			c-0.15,0.43-0.31,0.86-0.47,1.28c-0.13,0.33-0.8,1.96-0.14,0.4c0.65-1.55-0.04,0.06-0.19,0.38c-0.19,0.41-0.39,0.81-0.6,1.22
			c-0.41,0.79-0.85,1.57-1.33,2.32c-0.24,0.37-0.48,0.74-0.73,1.1c-1.09,1.54,0.97-1.14,0.35-0.44c-0.57,0.64-1.13,1.28-1.76,1.87
			c-0.27,0.25-1.56,1.28-0.23,0.25c1.33-1.03,0.01-0.04-0.3,0.15c-0.36,0.23-0.73,0.44-1.11,0.64c-1.79,0.93,1.91-0.71,0.36-0.12
			c3.39,1.38,6.78,2.76,10.16,4.14c-0.97-1.36-1.86-2.78-2.63-4.26c-0.39-0.73-0.74-1.48-1.08-2.24c-0.77-1.67,0.76,2.05,0.15,0.31
			c-0.14-0.39-0.29-0.78-0.43-1.17c-1.14-3.24-1.87-6.6-2.32-10c0.11,0.8,0.21,1.6,0.32,2.39c-0.99-7.82-0.47-15.67,0.56-23.45
			c-0.11,0.8-0.21,1.6-0.32,2.39c1.77-13.07,4.75-26.2,3.87-39.47c-0.31-4.69-3.92-9.23-9-9c-5.22,0.23-8.57,3.96-9,9
			c-0.95,11.05-2.16,22.08-3.64,33.08c0.11-0.8,0.21-1.6,0.32-2.39c-2.17,16.08-4.91,32.09-8.21,47.98
			c-0.95,4.6,1.34,9.94,6.29,11.07c4.96,1.13,9.49-1.5,11.07-6.29c3.51-10.59,6.13-21.34,3.23-32.43c-1.19-4.55-3.05-8.89-4.37-13.4
			c-1.36-4.63-2.34-9.36-2.99-14.15c0.11,0.8,0.21,1.6,0.32,2.39c-1.07-8.25-1.09-16.58-0.03-24.83c-0.11,0.8-0.21,1.6-0.32,2.39
			c0.13-0.96,0.27-1.91,0.42-2.86c-5.89-0.8-11.79-1.6-17.68-2.39c-0.51,7.91-1.14,15.81-2.19,23.67c0.11-0.8,0.21-1.6,0.32-2.39
			c-1.27,9.28-3.12,18.51-6.24,27.35c-0.38,1.09-0.78,2.17-1.21,3.24c-0.18,0.46-0.37,0.91-0.55,1.37
			c-0.36,0.87-0.25,0.61,0.33-0.79c-0.13,0.3-0.26,0.6-0.39,0.9c-0.93,2.09-1.95,4.15-3.05,6.15c-1.11,2.01-2.3,3.96-3.59,5.86
			c-0.6,0.88-1.24,1.74-1.87,2.61c-0.41,0.55-0.19,0.27,0.65-0.84c-0.2,0.26-0.41,0.52-0.62,0.78c-0.42,0.52-0.84,1.03-1.27,1.54
			c5.01,2.92,10.03,5.84,15.04,8.76c1.7-11.11,3.39-22.21,5.09-33.32c1.75-11.47,3.59-22.99,4.14-34.6
			c0.3-6.25,0.19-12.51-0.51-18.73c-0.28-2.46-0.82-4.55-2.64-6.36c-1.56-1.56-4.12-2.74-6.36-2.64c-4.58,0.21-9.37,3.97-9,9
			c0.94,12.87,1.85,25.84,0.17,38.7c0.11-0.8,0.21-1.6,0.32-2.39c-0.6,4.4-1.49,8.75-2.82,12.99c-0.29,0.93-0.6,1.85-0.93,2.76
			c-0.17,0.46-0.34,0.91-0.51,1.37c-0.11,0.3-0.94,2.31-0.28,0.73c0.64-1.52-0.09,0.17-0.23,0.48c-0.23,0.52-0.47,1.03-0.72,1.54
			c-0.42,0.87-0.87,1.73-1.33,2.58c-0.93,1.69-1.94,3.33-3.03,4.92c-0.32,0.46-0.64,0.91-0.98,1.36c-1.17,1.57,0.83-1.01,0.24-0.3
			c-0.66,0.8-1.32,1.59-2.02,2.36c-1.28,1.41-2.66,2.74-4.11,3.97c-0.36,0.31-0.76,0.58-1.11,0.91c1.87-1.79,0.88-0.67,0.3-0.26
			c-0.91,0.66-1.85,1.27-2.8,1.85c4.51,2.59,9.03,5.18,13.54,7.77c1.24-12.94,2.47-25.88,3.71-38.83
			c1.21-12.65,2.81-25.35,3.03-38.06c0.13-7.8-0.46-15.59-1.92-23.25c-0.84-4.39-5.78-7-9.87-6.45c-4.58,0.61-7.53,4.32-7.8,8.84
			c-0.89,14.45-1.85,28.9-3.77,43.25c0.11-0.8,0.21-1.6,0.32-2.39c-1.55,11.37-3.69,22.69-6.99,33.69c-0.82,2.72-1.7,5.43-2.66,8.1
			c-0.48,1.34-0.98,2.66-1.5,3.99c-0.26,0.66-0.52,1.32-0.79,1.98c-0.13,0.33-0.27,0.66-0.41,0.98c0.56-1.33,0.66-1.56,0.28-0.68
			c-2.32,5.22-4.87,10.31-7.83,15.2c5.48,0.72,10.97,1.43,16.45,2.15c-1.15-3.56-1.95-7.19-2.45-10.9c0.11,0.8,0.21,1.6,0.32,2.39
			c-0.96-7.55-0.61-15.15,0.39-22.67c-0.11,0.8-0.21,1.6-0.32,2.39c2.75-19.97,9.49-39.14,11.31-59.27
			c0.49-5.41,0.55-10.85,0.03-16.26c-0.23-2.44-0.85-4.57-2.64-6.36c-1.56-1.56-4.12-2.74-6.36-2.64c-5.01,0.22-8.83,3.95-9,9
			c-0.19,5.75-0.68,11.48-1.43,17.18c0.11-0.8,0.21-1.6,0.32-2.39c-1.91,14.15-5.42,28.02-9.91,41.56
			c-2.28,6.87-4.8,13.66-7.48,20.39c-0.65,1.62-1.3,3.23-1.96,4.85c-0.29,0.72-0.59,1.43-0.89,2.15c-0.15,0.36-0.3,0.72-0.45,1.07
			c-0.74,1.78,0.7-1.64,0-0.01c-1.44,3.39-2.91,6.77-4.4,10.14c-3.29,7.43-6.68,14.8-10.09,22.17c5.59,1.51,11.18,3.03,16.77,4.54
			c1.23-19.87,2.5-39.76,5.15-59.5c-0.11,0.8-0.21,1.6-0.32,2.39c2.96-21.89,7.69-43.6,15.94-64.15c-5.79-1.6-11.57-3.19-17.36-4.79
			c-2.21,7.3-4.6,14.55-7.18,21.73c-1.29,3.59-2.63,7.16-4.02,10.71c-1.38,3.53-3.12,7.01-4.3,10.6c0.06-0.17,0.85-1.99,0.24-0.57
			c-0.19,0.44-0.37,0.88-0.56,1.32c-0.34,0.79-0.68,1.58-1.02,2.36c-0.8,1.84-1.61,3.67-2.44,5.49c-1.53,3.39-3.11,6.76-4.73,10.1
			c-3.32,6.87-6.83,13.64-10.51,20.33c-4.14,7.52-8.51,14.91-13.08,22.17c5.48,2.31,10.97,4.62,16.45,6.94
			c10.69-27.47,21.41-55.03,28.83-83.6c2.1-8.09,3.92-16.25,5.41-24.47c0.69-3.83-0.42-8.2-4.14-10.16
			c-3.63-1.92-7.89-1.42-10.91,1.41c-13.12,12.32-23.89,27.1-32.62,42.78c-8.92,16.03-15.92,33.1-22.19,50.31
			c-3.42,9.4-6.61,18.88-9.78,28.36c5.79,1.6,11.57,3.19,17.36,4.79c2.06-8.76,4.5-17.43,7.33-25.97c1.41-4.27,2.92-8.51,4.53-12.71
			c0.77-2.02,1.56-4.03,2.37-6.03c0.41-1,0.82-2,1.23-3c0.75-1.82-0.84,1.97-0.07,0.16c0.28-0.66,0.57-1.32,0.85-1.98
			c7.1-16.34,15.63-32.06,25.47-46.91c2.78-4.2,5.67-8.33,8.66-12.39c0.75-1.01,1.5-2.02,2.26-3.03c0.33-0.43,0.65-0.86,0.98-1.29
			c0.22-0.29,0.44-0.57,0.66-0.86c-0.86,1.11-1,1.29-0.42,0.54c1.56-1.98,3.12-3.95,4.72-5.9c-5.01-2.92-10.03-5.84-15.04-8.76
			c-4.08,17.74-9.64,35.13-16.6,51.94c-0.21,0.5-0.43,1.01-0.63,1.51c-0.03,0.06,0.77-1.81,0.38-0.89c-0.11,0.25-0.21,0.5-0.32,0.75
			c-0.47,1.09-0.94,2.17-1.41,3.26c-0.92,2.08-1.86,4.15-2.82,6.22c-1.96,4.21-4.01,8.37-6.14,12.49
			c-4.19,8.08-8.71,15.98-13.55,23.69c-5.47,8.71-11.36,17.15-17.63,25.3c5.48,2.31,10.97,4.62,16.45,6.94
			c7.89-32.7,21.62-63.84,27.35-97.08c1.7-9.88,2.8-19.89,2.83-29.93c-5.89,0.8-11.79,1.6-17.68,2.39c0.09,0.51,0.17,1.02,0.25,1.54
			c-0.11-0.8-0.21-1.6-0.32-2.39c0.41,3.2,0.39,6.4-0.02,9.6c0.11-0.8,0.21-1.6,0.32-2.39c-0.43,3.01-1.17,5.96-2.19,8.83
			c-0.23,0.65-0.48,1.28-0.73,1.92c-0.64,1.71,0.72-1.61,0.21-0.48c-0.14,0.32-0.28,0.63-0.42,0.95c-0.69,1.51-1.44,3-2.23,4.46
			c-1.49,2.74-3.15,5.38-4.9,7.96c-0.86,1.26-1.74,2.51-2.64,3.74c-0.48,0.65-0.96,1.3-1.45,1.94c-0.22,0.29-0.43,0.57-0.65,0.86
			c-0.53,0.7,1.34-1.72,0.1-0.12c-8.85,11.33-18.15,22.33-27.25,33.47c-2.63,3.23-5.27,6.45-7.9,9.68
			c-1.32,1.61-2.63,3.23-3.95,4.84c-0.27,0.33-0.58,0.64-0.82,0.98c-0.74,1.04,1.65-1.12,0.83-0.61c-0.89,0.55-0.83,0,1-0.33
			c-0.33,0.06-0.65,0.19-0.98,0.25c0.8-0.11,1.6-0.21,2.39-0.32c-0.2,0.03-0.39,0.03-0.59,0.01c0.8,0.11,1.6,0.21,2.39,0.32
			c-1.5-0.32-0.68,0.57,2.45,2.67c2.07,3.15,2.97,3.95,2.67,2.41c0,1.6,0,3.19,0,4.79c1.35-4,2.82-7.95,4.41-11.86
			c0.34-0.84,0.74-1.68,1.05-2.54c-0.96,2.72,0.22-0.5,0.5-1.13c0.84-1.93,1.71-3.85,2.59-5.76c3.47-7.5,7.25-14.84,11.16-22.12
			c7.75-14.43,16.01-28.59,23.46-43.19c4.53-8.88,8.7-17.92,12.41-27.17c0.78-1.94,0.2-5.22-0.91-6.94
			c-1.08-1.67-2.46-2.91-4.3-3.68c-4.08-1.72-8.95-0.21-11.24,3.68c-17.95,30.62-35.93,61.27-55.82,90.69
			c-5.58,8.26-11.32,16.41-17.24,24.43c5.18,3.03,10.36,6.06,15.54,9.08c15.1-27.52,28-56.52,37.81-86.36
			c3.06-9.3,4.48-19.23-0.24-28.24c-2.75-5.26-10.13-5.66-14.14-1.82c-21.07,20.17-40.36,42.09-59.19,64.35
			c-5.38,6.36-10.73,12.76-16.08,19.15c4.71,3.64,9.42,7.27,14.14,10.91c4-5.99,8.16-11.87,12.48-17.63
			c0.55-0.74,1.11-1.48,1.67-2.21c0.35-0.46,2.44-2.95,0.62-0.81c1.2-1.4,2.28-2.92,3.42-4.35c2.25-2.81,4.53-5.6,6.85-8.35
			c9.34-11.08,19.3-21.65,29.81-31.63c5.89-5.6,11.96-11,18.18-16.23c2.91-2.45,3.42-7.78,1.41-10.91c-0.84-1.3-1.93-2.39-3.23-3.23
			c-1.75-1.13-4.95-1.66-6.94-0.91c-33.24,12.58-63.8,31.52-89.7,55.88c-7.06,6.64-13.73,13.68-20,21.08
			c-1.57,1.85-2.64,3.86-2.64,6.36c0,2.21,0.98,4.84,2.64,6.36C227.37,338.43,233.49,339.19,236.74,335.36L236.74,335.36z"/>
	</g>
</g>
<g>
	<g>
		<path d="M176.18,356.28c-4.87,4.02-9.97,8.46-12.72,14.28c-2.73,5.77-2.4,12.18,0.99,17.6c3.46,5.52,9.02,9.42,14.76,12.27
			c3.34,1.65,6.83,3.02,10.41,4.04c3.32,0.95,6.97,1.38,9.43,4.04c2.38,2.57,3.98,6.08,5.62,9.15c1.78,3.34,3.43,6.74,4.95,10.21
			c3.04,6.94,5.47,14.13,7.41,21.45c1.9,7.16,3.61,14.48,7.26,21c3.53,6.31,8.55,11.64,12.11,17.94
			c6.13,10.82,8.61,23.18,12.38,34.91c1.82,5.65,3.93,11.26,6.88,16.43c3.1,5.44,7.15,10.03,11.98,13.99
			c4.96,4.07,10.58,7.76,14.22,13.16c3.31,4.9,4.64,10.81,7.81,15.78c1.56,2.44,3.57,4.61,6.13,6.02c3.07,1.69,6.61,2.22,10.07,2.38
			c7.83,0.36,15.79-0.14,23.6-0.76c15.97-1.26,31.84-3.96,47.33-8.08c11.51-3.06,24.14-7.22,32.08-16.64
			c1.82-2.16,3.34-4.54,4.48-7.13c0.77-1.75-1.82-3.28-2.59-1.51c-4.84,11.05-16.33,16.68-27.22,20.2
			c-14.22,4.6-29.19,7.42-44.01,9.17c-7.81,0.92-15.66,1.49-23.53,1.71c-3.65,0.1-7.34,0.23-10.99-0.01
			c-3.26-0.21-6.62-0.9-9.27-2.94c-4.49-3.45-6.2-9.45-8.43-14.39c-1.21-2.68-2.63-5.19-4.48-7.48c-2.03-2.51-4.45-4.67-6.94-6.71
			c-4.77-3.9-9.8-7.48-13.67-12.34c-3.65-4.59-6.29-9.95-8.37-15.4c-4.28-11.23-6.53-23.14-11.18-34.25
			c-2.55-6.1-5.96-11.47-9.87-16.78c-2.1-2.84-4.2-5.7-5.93-8.79c-1.75-3.14-3.04-6.49-4.11-9.91c-2.19-7.03-3.72-14.23-6.12-21.2
			c-2.41-6.98-5.34-13.8-8.76-20.35c-1.61-3.08-3.24-6.26-5.25-9.1c-1.97-2.78-4.45-4.47-7.7-5.45c-3.52-1.06-7.05-1.87-10.48-3.25
			c-3.16-1.28-6.26-2.85-9.1-4.74c-4.94-3.28-9.72-8.08-10.67-14.18c-0.96-6.16,2.59-11.66,6.66-15.92c2.16-2.26,4.53-4.3,6.94-6.29
			C179.79,357.17,177.66,355.06,176.18,356.28L176.18,356.28z"/>
	</g>
</g>
<g>
	<g>
		<path d="M209.44,421.27c3.05-16.42,8.29-32.23,13.55-48.05c2.6-7.82,5.16-15.65,7.38-23.59c2.14-7.66,3.75-15.41,5.5-23.16
			c1.54-6.83,3.32-13.75,6.65-19.96c3.36-6.27,8.28-11.2,14.57-14.52c12.27-6.48,26.67-7.05,39.42-12.3
			c13.91-5.72,23.88-17.05,33.02-28.57c4.59-5.78,8.91-12.2,14.73-16.84c3.21-2.57,6.95-4.27,11.05-4.72
			c4.19-0.46,8.47-0.06,12.65,0.22c7.63,0.51,15.28,1.36,22.65,3.47c7.53,2.16,14.1,5.79,20,10.93c5.32,4.64,10.52,9.82,17.39,12.05
			c7.01,2.27,15.47,0.87,21.63,5.5c3.11,2.33,5.19,5.75,7.51,8.8c2.19,2.88,4.63,5.53,7.39,7.88c5.39,4.58,11.63,8.01,18.24,10.48
			c15.26,5.69,31.36,5.51,47.3,3.5c4.26-0.54,8.51-1.13,12.78-1.64c1.89-0.23,1.92-3.23,0-3c-8.59,1.03-17.16,2.44-25.82,2.9
			c-8.26,0.44-16.56-0.09-24.63-1.99c-7.29-1.72-14.35-4.49-20.65-8.59c-3.09-2.01-5.96-4.34-8.52-6.98
			c-2.61-2.7-4.68-5.78-6.98-8.74c-2.29-2.95-4.9-5.54-8.36-7.06c-3.38-1.48-7.06-1.93-10.69-2.38c-3.82-0.47-7.68-0.98-11.18-2.7
			c-3.31-1.62-6.2-3.92-8.96-6.33c-5.69-4.95-11.11-9.78-18.11-12.83c-7.02-3.06-14.54-4.58-22.11-5.48
			c-3.88-0.46-7.77-0.75-11.67-0.97c-4.25-0.25-8.55-0.49-12.74,0.39c-7.51,1.57-13.13,7.19-17.82,12.91
			c-9.56,11.65-18.25,24.69-31.22,32.89c-12.25,7.74-26.96,8.63-40.36,13.39c-6.35,2.25-12.42,5.47-17.1,10.4
			c-4.82,5.08-7.89,11.47-10.04,18.08c-2.24,6.9-3.54,14.06-5.13,21.13c-1.86,8.29-4.19,16.47-6.75,24.57
			c-4.98,15.77-10.74,31.31-14.73,47.38c-1.05,4.21-1.97,8.46-2.76,12.73C206.2,422.36,209.09,423.17,209.44,421.27L209.44,421.27z"
			/>
	</g>
</g>
<g>
	<g>
		<path d="M382.23,579.3c2.95,4.25,7.76,6.18,12.59,7.5c5.88,1.61,12.06,3.22,18.21,2.82c6.06-0.39,11.8-2.43,17.58-4.1
			c6.12-1.76,12.13-2.66,18.49-1.86c7.26,0.92,14.23,3.46,21.07,5.93c1.82,0.66,2.6-2.24,0.8-2.89c-5.96-2.16-11.97-4.31-18.21-5.48
			c-6.09-1.14-12.16-1.19-18.22,0.17c-5.63,1.26-11.04,3.39-16.69,4.55c-6.24,1.28-12.14,0.48-18.26-1.03
			c-5.16-1.27-11.52-2.46-14.77-7.13C383.72,576.21,381.12,577.71,382.23,579.3L382.23,579.3z"/>
	</g>
</g>
<g>
	<g>
		<path d="M225.56,358.4c2.22,6.38,3.94,12.9,5.77,19.4c1.66,5.91,3.3,11.86,6.1,17.35c2.45,4.8,5.7,9.3,9.79,12.85
			c1.99,1.73,4.16,3.15,6.43,4.47c2.38,1.39,4.69,2.89,3.72,5.97c-0.93,2.95-1.87,5.64-1.98,8.78c-0.1,2.98,0.38,5.98,1.17,8.85
			c1.67,5.98,4.7,11.52,7.9,16.8c7.31,12.1,14.82,24.09,22.22,36.13c6.47,10.51,12.49,21.8,23.55,28.14
			c5.29,3.03,11.13,4.99,16.99,6.59c6.56,1.78,13.21,3.23,19.9,4.41c13.36,2.35,26.93,3.57,40.49,3.6c3.45,0.01,6.9-0.06,10.34-0.2
			c3.29-0.14,6.66-0.18,9.91-0.76c5.9-1.04,8.97-6.15,13.9-8.94c9.34-5.29,21.14-3.96,30.09-10.23c8.72-6.11,11.73-16.8,15.53-26.18
			c4.27-10.51,11.14-19.72,20.48-26.24c8.19-5.72,19.88-8.75,24.55-18.38c2.7-5.56,2.33-11.84,1.28-17.77
			c-1.2-6.75-2.93-13.43-4.44-20.12c-3.02-13.39-5.81-26.87-9.23-40.16c-1.67-6.49-3.59-12.92-6.05-19.16
			c-2.28-5.77-4.91-11.53-8.68-16.49c-3.59-4.73-8.19-8.26-13.21-11.36c-5.06-3.13-10.38-5.9-14.96-9.72
			c-8.93-7.44-15.18-17.42-23.36-25.58c-8.34-8.31-18.88-13.77-30.6-15.29c-11.3-1.47-22.33,1.19-32.44,6.21
			c-10.11,5.01-19.11,11.92-28.44,18.19c-4.62,3.11-9.35,6.09-14.32,8.61c-4.9,2.49-10.05,4.45-15.06,6.7
			c-4.97,2.22-9.83,4.76-14,8.3c-4.18,3.55-7.24,8.09-9.21,13.19c-2.02,5.24-2.82,10.88-3.2,16.46c-0.4,6-0.61,12.21-0.12,18.2
			c0.26,3.13,0.85,6.19,2.07,9.1c1.11,2.66,2.59,5.12,4.11,7.56c3.16,5.1,6.05,10.08,6.07,16.26c0.03,12.53-8,23.65-7.15,36.34
			c0.35,5.29,2.37,10.28,6.34,13.88c3.59,3.26,8.11,5.16,12.52,7.02c4.63,1.95,9.43,3.91,13.09,7.46c2.18,2.11,3.97,4.56,5.99,6.8
			c1.99,2.2,4.26,4.08,6.72,5.73c5.49,3.67,11.53,6.61,17.31,9.79c6.25,3.44,12.49,6.87,18.74,10.31c5.65,3.11,11.4,6.44,17.89,7.33
			c5.88,0.8,11.73-0.44,17.14-2.73c5.68-2.41,10.85-5.84,15.8-9.48c4.87-3.58,9.66-7.28,14.36-11.07c9.21-7.43,18-15.49,25.08-25.04
			c7.21-9.73,12.03-20.91,14.6-32.72c2.58-11.82,3.09-24.01,2.69-36.07c-0.2-6.23-0.65-12.46-1.21-18.67
			c-0.28-3.09-0.58-6.17-0.9-9.25c-0.27-2.61-0.24-5.65-1.8-7.89c-1.64-2.35-4.46-2.78-7.04-3.48c-2.65-0.71-5.24-1.64-7.74-2.77
			c-5.11-2.31-9.85-5.36-14.31-8.74c-9.12-6.92-17.05-15.24-25.57-22.85c-4.35-3.89-9.16-7.75-15-9
			c-6.45-1.39-13.03,0.37-19.28,1.94c-9.89,2.48-20.08,5.4-28.63,11.14c-4.14,2.78-7.82,6.24-10.55,10.43
			c-1.39,2.13-2.22,4.83-3.97,6.69c-2.01,2.15-5.29,1.55-7.94,1.85c-10.28,1.18-17.35,9.66-22.43,17.95
			c-2.94,4.8-5.45,9.87-8.16,14.8c-3.11,5.66-6.28,11.28-9.3,16.99c-0.9,1.71,1.69,3.22,2.59,1.51c3.02-5.71,6.19-11.34,9.3-16.99
			c2.75-4.99,5.28-10.13,8.27-14.98c2.6-4.22,5.58-8.3,9.4-11.51c1.8-1.51,3.85-2.81,6.04-3.67c2.4-0.93,4.79-1.17,7.33-1.29
			c2.6-0.12,5.15-0.58,7.01-2.55c1.7-1.8,2.55-4.19,3.8-6.28c2.51-4.2,6.07-7.66,10.11-10.37c8.35-5.61,18.26-8.42,27.91-10.84
			c6.16-1.54,12.82-3.44,19.12-1.57c5.52,1.64,9.93,5.74,14.09,9.53c8.18,7.47,15.98,15.4,24.87,22.05
			c4.3,3.22,8.87,6.12,13.78,8.34c2.46,1.12,5,2.08,7.6,2.83c2.49,0.72,5.84,0.83,6.78,3.69c0.86,2.6,0.79,5.71,1.06,8.42
			c0.3,3.01,0.58,6.02,0.83,9.04c0.5,5.97,0.87,11.95,1,17.94c0.26,11.78-0.4,23.66-3.19,35.14c-2.79,11.46-7.81,22.15-15.1,31.44
			c-7.2,9.18-16.03,16.94-25.14,24.17c-4.55,3.61-9.15,7.19-13.89,10.56c-4.94,3.51-10.19,6.84-15.95,8.84
			c-5.67,1.96-11.59,2.39-17.35,0.57c-6.17-1.94-11.8-5.59-17.43-8.69c-6.08-3.34-12.16-6.69-18.25-10.03
			c-5.42-2.98-11.34-5.69-16.07-9.74c-4.3-3.68-7.17-8.71-11.78-12.06c-3.88-2.82-8.44-4.5-12.82-6.38
			c-4.23-1.82-8.6-3.86-11.62-7.46c-3.59-4.28-4.2-10.03-3.61-15.4c1.31-11.98,8.75-23.03,6.61-35.39
			c-0.99-5.7-4.37-10.44-7.28-15.29c-1.43-2.38-2.76-4.84-3.56-7.51c-0.89-3.02-1.12-6.17-1.18-9.3c-0.2-10.9-0.41-23.13,4.66-33.1
			c5.07-9.96,15.2-14.6,25-18.77c4.87-2.07,9.71-4.16,14.33-6.76c4.81-2.71,9.4-5.77,13.95-8.89c8.87-6.1,17.62-12.56,27.45-17.04
			c10.23-4.66,21.48-6.42,32.54-3.95c5.58,1.24,10.91,3.43,15.73,6.51c4.76,3.04,8.81,6.99,12.55,11.19
			c7.47,8.38,13.92,17.78,23.2,24.34c4.66,3.3,9.78,5.89,14.53,9.06c4.98,3.32,9.07,7.38,12.19,12.5
			c6.59,10.81,10.02,23.51,12.97,35.72c3.18,13.17,6.03,26.43,9.01,39.64c1.42,6.28,3.24,12.63,3.97,19.04
			c0.66,5.75,0.05,11.68-3.92,16.17c-3.28,3.71-7.78,6.04-12.1,8.34c-4.77,2.54-9.34,5.25-13.47,8.75
			c-4.16,3.52-7.82,7.64-10.88,12.15c-2.98,4.4-5.17,9.18-7.11,14.11c-3.63,9.24-6.98,19.71-16.52,24.44
			c-9.31,4.61-20.71,3.56-29.3,9.9c-2.15,1.58-3.92,3.62-6.08,5.17c-2.55,1.83-5.44,2.15-8.49,2.35c-6.7,0.44-13.42,0.59-20.14,0.45
			c-13.3-0.28-26.57-1.69-39.62-4.24c-6.35-1.24-12.69-2.68-18.88-4.55c-5.56-1.68-11.03-3.83-15.85-7.13
			c-5.02-3.44-8.83-8.22-12.15-13.26c-3.58-5.43-6.89-11.06-10.3-16.6c-3.6-5.86-7.21-11.71-10.81-17.57
			c-3.52-5.72-7.18-11.38-10.5-17.22c-2.97-5.23-5.72-10.85-6.55-16.88c-0.4-2.92-0.28-5.91,0.53-8.75
			c0.75-2.65,2.26-5.15,1.07-7.92c-0.94-2.19-3.05-3.54-5.03-4.69c-2.31-1.35-4.49-2.77-6.47-4.58c-3.93-3.6-6.97-8.05-9.25-12.84
			c-2.5-5.23-3.95-10.92-5.5-16.48c-1.72-6.16-3.38-12.33-5.48-18.37C227.82,355.79,224.92,356.57,225.56,358.4L225.56,358.4z"/>
	</g>
</g>
<g>
	<g>
		<path d="M260.39,413.91c1.01-9.03,1.48-18.11,1.39-27.19c-0.02-2.06-0.29-4.29,0.2-6.32c0.48-1.97,1.94-3.44,3.3-4.86
			c2.93-3.07,5.98-6.03,9.14-8.88c3.63-3.28,7.4-6.4,11.3-9.36c1.52-1.15,0.03-3.76-1.51-2.59c-7.19,5.44-13.97,11.4-20.25,17.87
			c-1.41,1.45-2.93,2.92-3.93,4.69c-1.06,1.88-1.31,3.97-1.3,6.1c0.02,4.8,0.08,9.59-0.12,14.39c-0.21,5.4-0.63,10.78-1.23,16.15
			C257.17,415.82,260.17,415.81,260.39,413.91L260.39,413.91z"/>
	</g>
</g>
<g>
	<g>
		<path d="M331.63,467.38c-1.44,6.68,1.06,13.73,6.51,17.89c2.94,2.24,6.4,3.56,9.73,5.09c3.19,1.47,6.14,3.31,8.91,5.47
			c5.47,4.28,10.28,9.35,16,13.33c6.56,4.57,14.24,6.44,21.82,8.63c2.03,0.59,4.09,1.11,6.06,1.89c1.79,0.71,3.52,1.55,5.27,2.32
			c3.49,1.54,7.27,3.11,11.17,2.72c1.9-0.19,1.92-3.19,0-3c-3.17,0.32-6.24-0.83-9.1-2.06c-3.04-1.31-6-2.84-9.19-3.77
			c-7.28-2.13-15.14-3.64-21.74-7.53c-5.72-3.37-10.42-8.14-15.44-12.41c-2.48-2.11-5.05-4.14-7.83-5.85
			c-2.95-1.81-6.17-3.04-9.28-4.53c-3.36-1.61-6.42-3.63-8.32-6.93c-1.82-3.15-2.44-6.91-1.67-10.47
			C334.93,466.3,332.04,465.49,331.63,467.38L331.63,467.38z"/>
	</g>
</g>
<g>
	<g>
		<path d="M433.16,281.82c1.27-1.79,3.46-2.52,5.52-2.94c2.72-0.55,5.55-0.67,8.31-0.82c6.16-0.33,12.33-0.19,18.47,0.38
			c1.92,0.18,1.91-2.82,0-3c-6.79-0.64-13.63-0.74-20.44-0.26c-5.09,0.36-11.21,0.56-14.46,5.12
			C429.45,281.89,432.05,283.39,433.16,281.82L433.16,281.82z"/>
	</g>
</g>
<g>
	<g>
		<path d="M299.61,395.32c0.12,3.95,0.18,7.89,0.29,11.84c0.1,3.62,0.03,7.35,0.54,10.94c0.34,2.35,1.17,4.59,2.76,6.38
			c1.69,1.89,4.14,3.01,6.56,3.61c3.45,0.85,7.01,0.66,10.52,0.89c3.11,0.21,6.25,0.84,8.5,3.15c1.81,1.86,2.88,4.33,4.04,6.61
			c1.28,2.5,2.74,4.86,4.47,7.07c13.47,17.25,37.59,19.96,57.89,21.36c16.55,1.14,33.15-0.52,49.7,0.55c1.93,0.12,1.92-2.88,0-3
			c-14.55-0.93-29.14,0.28-43.7-0.23c-10.75-0.37-21.7-1.32-32.18-3.81c-9.94-2.36-19.78-6.44-26.96-13.95
			c-1.79-1.87-3.38-3.92-4.74-6.13c-1.39-2.24-2.44-4.66-3.74-6.95c-1.24-2.17-2.81-4.17-4.96-5.49c-2.88-1.78-6.39-2.11-9.69-2.25
			c-5.64-0.22-13.41-0.05-15.21-6.78c-0.91-3.4-0.66-7.24-0.76-10.73c-0.12-4.36-0.19-8.71-0.32-13.07
			C302.55,393.39,299.55,393.39,299.61,395.32L299.61,395.32z"/>
	</g>
</g>
<g>
	<g>
		<path d="M435.94,465.5c3.8-6.84,7.77-13.59,11.47-20.49c1.92-3.57,3.6-7.27,4.56-11.22c0.98-4.05,1.35-8.22,1.61-12.36
			c0.56-8.85,1.02-17.71,1.52-26.56c0.47-8.22,1.41-16.74-1.16-24.72c-4.38-13.58-16.42-23.05-28.29-29.97
			c-13.73-8-28.97-13.47-44.66-15.96c-8-1.27-16.3-1.83-24.21,0.27c-3.98,1.05-7.72,2.84-11.3,4.84c-3.39,1.9-6.82,3.85-10,6.1
			c-3.04,2.15-5.77,4.7-7.59,8c-1.9,3.43-2.9,7.3-3.84,11.08c-2,8.11-3.21,16.49-3.06,24.85c0.25,14.48,4.89,28.96,15,39.6
			c4.81,5.06,10.6,8.73,17.14,11.12c3.68,1.35,7.19,2.72,10.51,4.82c3.05,1.93,5.91,4.14,8.9,6.17c2.95,1.99,6.07,3.79,9.47,4.91
			c3.58,1.18,7.41,1.56,11.16,1.28c7.76-0.59,15.05-3.61,22.13-6.63c3.69-1.57,7.37-3.2,11.14-4.58c3.58-1.31,7.28-2.4,10.68-4.17
			c5.89-3.05,10.61-8.41,13.38-14.39c1.39-3.01,2.38-6.16,3.14-9.38c0.44-1.88-2.45-2.68-2.89-0.8c-1.44,6.09-3.76,11.96-8.12,16.57
			c-2.35,2.48-5.06,4.52-8.16,5.97c-3.31,1.54-6.85,2.54-10.25,3.84c-13.14,5.04-28.07,14.52-42.53,8.99
			c-6.36-2.44-11.46-7.28-17.21-10.8c-3.26-2-6.75-3.32-10.32-4.62c-3.18-1.16-6.2-2.59-9.01-4.47
			c-10.99-7.34-17.75-19.77-20.1-32.56c-1.43-7.8-1.33-15.87-0.27-23.71c0.55-4.01,1.35-7.98,2.34-11.91
			c0.92-3.65,1.9-7.4,3.92-10.63c1.88-3.01,4.73-5.22,7.67-7.13c3.21-2.07,6.53-4.04,9.9-5.83c3.48-1.84,7.1-3.32,10.97-4.12
			c3.83-0.79,7.76-0.94,11.66-0.76c7.71,0.36,15.42,1.92,22.85,3.97c7.37,2.03,14.55,4.72,21.44,8.05
			c12.12,5.87,24.88,13.68,32.1,25.43c1.69,2.75,3.02,5.68,3.87,8.8c1.06,3.91,1.25,7.95,1.15,11.98
			c-0.2,8.36-0.89,16.73-1.37,25.08c-0.46,8.08-0.32,16.55-2.42,24.42c-1.02,3.84-2.78,7.36-4.69,10.83
			c-1.83,3.32-3.69,6.62-5.56,9.92c-1.76,3.11-3.52,6.23-5.25,9.35C432.41,465.68,435,467.19,435.94,465.5L435.94,465.5z"/>
	</g>
</g>
<g>
	<g>
		<path d="M331.23,436.56c1.37,1.42,2.06,3.05,2.87,4.81c0.63,1.38,1.54,2.28,2.93,2.89c1.96,0.85,4.13,0.93,6.23,1.08
			c2.23,0.16,4.46,0.32,6.69,0.48c2.18,0.16,4.36,0.38,6.54,0.42c1.91,0.03,4.23-0.04,5.92-1.05c2.56-1.52,4.42-4.97,4.94-7.83
			c0.34-1.89-2.55-2.7-2.89-0.8c-0.39,2.14-1.77,5.32-3.92,6.22c-1.68,0.71-3.87,0.5-5.64,0.39c-1.97-0.12-3.94-0.28-5.91-0.42
			c-1.91-0.14-3.83-0.27-5.74-0.41c-1.75-0.13-3.91-0.07-5.46-1.03c-0.91-0.56-1.19-1.64-1.6-2.58c-0.71-1.61-1.63-3.03-2.85-4.3
			C332.01,433.04,329.89,435.16,331.23,436.56L331.23,436.56z"/>
	</g>
</g>
<g>
	<g>
		<path d="M338.81,416.45c-2.73-9.01,1.46-18.15,4.19-26.63c2.63-8.15,4.48-17.16,2.22-25.62c-0.26-0.98-0.58-1.94-0.96-2.88
			c-0.36-0.91-1.36-2.4-0.87-3.37c0.38-0.75,1.46-1.2,2.15-1.59c1.02-0.58,2.04-1.14,3.08-1.68c4.16-2.19,8.46-4.12,12.81-5.92
			c4.33-1.79,8.68-3.57,13.09-5.17c4.12-1.49,8.23-2.46,12.63-2.41c7.85,0.09,17.03,2.26,23.42-3.66c1.42-1.31-0.71-3.43-2.12-2.12
			c-5.57,5.15-14.49,2.86-21.3,2.78c-4.49-0.05-8.76,0.86-12.98,2.36c-4.49,1.6-8.91,3.42-13.31,5.24
			c-4.37,1.81-8.71,3.71-12.91,5.88c-1.99,1.02-4.17,2.01-5.92,3.41c-1.81,1.46-2.08,3.52-1.26,5.61c0.8,2.05,1.58,4.03,2,6.21
			c0.42,2.21,0.53,4.47,0.45,6.71c-0.16,4.53-1.15,8.98-2.44,13.31c-2.9,9.78-8,19.97-4.85,30.34
			C336.48,419.09,339.37,418.31,338.81,416.45L338.81,416.45z"/>
	</g>
</g>
<g>
	<g>
		<path d="M394.86,342.45c14.76,5.42,27.8,15.49,36.85,28.34c2.26,3.22,4.29,6.6,6.04,10.12c1.62,3.26,3.1,6.85,2.89,10.57
			c-0.09,1.63-0.64,3.25-1.81,4.42c-1.36,1.36-3.15,2.13-4.41,3.63c-2.37,2.82-3.2,6.47-3.4,10.08c-0.24,4.16,0.48,8.3,0.28,12.46
			c-0.18,3.73-1.07,7.88-4.36,10.11c-1.59,1.08-0.09,3.68,1.51,2.59c6.79-4.59,5.93-13.45,5.57-20.6c-0.19-3.75-0.22-7.95,1.7-11.3
			c1.04-1.82,2.62-2.75,4.24-3.99c1.48-1.13,2.54-2.62,3.14-4.39c1.24-3.67,0.28-7.89-1.09-11.38c-1.49-3.78-3.53-7.39-5.71-10.81
			c-4.47-7-10.02-13.33-16.4-18.67c-7.23-6.05-15.41-10.81-24.26-14.06C393.84,338.89,393.06,341.79,394.86,342.45L394.86,342.45z"
			/>
	</g>
</g>
<g>
	<g>
		<path d="M340.35,390.02c2.32,4.76,4.65,9.52,6.97,14.28c2.18,4.47,4.26,9.02,6.62,13.4c2.11,3.92,4.69,7.56,8.28,10.25
			c3.63,2.71,8,4.48,12.28,5.9c8.76,2.89,18.2,3.83,27.36,2.77c4.51-0.52,8.97-1.48,13.27-2.95c2.99-1.02,5.46-2.52,7.88-4.56
			c2.9-2.45,5.52-5.34,7.57-8.54c1.67-2.6,3.13-5.7,2.6-8.86c-0.32-1.9-3.21-1.09-2.89,0.8c0.38,2.23-1.14,4.75-2.29,6.55
			c-1.67,2.6-3.78,4.94-6.06,7.02c-1.87,1.7-3.96,3.38-6.37,4.27c-4.06,1.49-8.3,2.55-12.59,3.14c-8.54,1.17-17.33,0.52-25.6-1.89
			c-4.09-1.19-8.2-2.75-11.83-5.01c-3.68-2.29-6.29-5.57-8.4-9.3c-2.5-4.4-4.57-9.06-6.79-13.6c-2.47-5.06-4.94-10.12-7.41-15.17
			C342.09,386.77,339.51,388.29,340.35,390.02L340.35,390.02z"/>
	</g>
</g>
<g>
	<g>
		<path d="M355.73,348.68c-1.87,9.12-4.13,18.27-5.39,27.5c-0.6,4.38-0.61,8.69-0.45,13.1c0.15,4.4,0.22,8.81-1.28,13.02
			c-0.65,1.82,2.25,2.61,2.89,0.8c1.48-4.14,1.56-8.55,1.42-12.9c-0.14-4.41-0.26-8.75,0.3-13.13c0.59-4.55,1.6-9.05,2.52-13.54
			c0.96-4.68,1.92-9.36,2.87-14.05C359.01,347.59,356.12,346.78,355.73,348.68L355.73,348.68z"/>
	</g>
</g>
<g>
	<g>
		<path d="M356.68,361.03c8.09-2.26,16.16-4.76,24.33-6.74c3.73-0.9,7.7-1.56,11.51-0.7c3.53,0.8,6.46,2.91,9.05,5.36
			c2.83,2.68,5.41,5.65,8.06,8.51c2.92,3.15,5.85,6.3,8.76,9.46c4.59,4.99,10.11,11.67,7.03,18.82c-0.75,1.75-1.6,3.44-2.27,5.22
			c-0.61,1.63-1.27,3.17-2.59,4.35c-2.39,2.13-5.87,2.7-8.95,2.89c-3.92,0.24-7.98,0.05-11.72,1.42c-3.34,1.23-6.11,3.43-9.01,5.42
			c-2.69,1.84-5.66,3.5-9.01,3.5c-1.43,0-2.86-0.35-4.01-1.23c-1.41-1.09-2.2-2.81-2.91-4.39c-1.73-3.84-3.4-7.71-5.1-11.57
			c-1.59-3.61-3.16-7.25-4-11.12c-0.73-3.34-0.8-6.84,0.21-10.13c1.04-3.42,3.22-5.66,6.09-7.66c2.71-1.89,4.95-3.91,6.36-6.96
			c1.25-2.7,1.93-5.65,3.3-8.3c0.66-1.29,1.48-2.4,2.6-3.33c1.48-1.24-0.65-3.35-2.12-2.12c-5.15,4.31-4.43,12.17-9.47,16.49
			c-1.47,1.26-3.16,2.23-4.66,3.44c-1.38,1.12-2.55,2.49-3.45,4.03c-1.76,3.04-2.49,6.66-2.41,10.15c0.09,4.16,1.32,8.21,2.85,12.05
			c1.63,4.09,3.49,8.1,5.27,12.13c1.55,3.52,2.82,7.84,6.2,10.06c2.87,1.89,6.65,1.71,9.8,0.67c3.55-1.17,6.43-3.52,9.48-5.6
			c1.56-1.06,3.19-2.09,4.97-2.72c2.04-0.72,4.19-0.95,6.34-1.06c3.79-0.19,7.68-0.11,11.28-1.49c3.5-1.34,5.8-3.68,7.18-7.16
			c0.76-1.93,1.61-3.79,2.43-5.7c0.78-1.8,1.28-3.65,1.27-5.62c-0.02-3.86-1.76-7.5-3.93-10.61c-2.38-3.42-5.3-6.41-8.12-9.45
			c-3.15-3.41-6.31-6.82-9.46-10.22c-2.58-2.79-5.2-5.61-8.39-7.74c-3.34-2.23-7.2-3.29-11.21-3.2c-4.27,0.09-8.42,1.24-12.51,2.38
			c-4.42,1.23-8.83,2.47-13.25,3.7c-2.21,0.62-4.42,1.23-6.62,1.85C354.02,358.65,354.81,361.55,356.68,361.03L356.68,361.03z"/>
	</g>
</g>
<g>
	<g>
		<path d="M376.32,364.6c2.07,3.04,5.75,4.43,9.14,5.45c3.57,1.07,7.45,1.45,10.86,2.99c7.72,3.47,12.42,11.33,16.27,18.49
			c0.5,0.92,1.02,1.84,1.47,2.79c0.49,1.05,0.89,2.2-0.46,2.65c-0.99,0.33-2.12,0.28-3.14,0.34c-1.48,0.08-2.96,0.17-4.44,0.25
			c-2.88,0.16-5.76,0.33-8.64,0.49c-2.75,0.16-5.55,0.49-8.31,0.39c-4.58-0.16-6.42-3.98-7.31-7.96c-0.7-3.12-2.28-9.54,1.82-10.92
			c2.54-0.85,5.13,0.52,7.25,1.82c2.06,1.26,4.54,2.59,5.71,4.81c0.92,1.76,1.1,3.98,1.15,5.94c0.05,1.98-0.01,4.23-0.89,6.06
			c-0.83,1.73,1.76,3.26,2.59,1.51c1.83-3.82,1.7-9.01,0.53-13.01c-0.71-2.43-2.25-4.22-4.26-5.71c-2.16-1.6-4.58-3.18-7.13-4.07
			c-2.32-0.82-5.08-0.87-7.25,0.41c-2.21,1.3-3.15,3.67-3.31,6.13c-0.15,2.36,0.28,4.85,0.74,7.16c0.43,2.19,1.1,4.44,2.3,6.34
			c1.23,1.96,3.04,3.48,5.29,4.11c2.9,0.82,6.14,0.28,9.09,0.11c3.37-0.19,6.75-0.39,10.12-0.58c1.48-0.08,2.96-0.17,4.44-0.25
			c1.45-0.08,3.03-0.04,4.43-0.47c2.7-0.82,3.74-3.32,2.76-5.92c-0.88-2.32-2.26-4.53-3.49-6.68c-2.41-4.23-5.15-8.38-8.66-11.78
			c-1.93-1.87-4.11-3.54-6.53-4.73c-2.22-1.1-4.55-1.7-6.95-2.25c-2.42-0.56-4.84-1.13-7.18-1.97c-1.95-0.7-4.22-1.66-5.43-3.44
			C377.84,361.5,375.24,363,376.32,364.6L376.32,364.6z"/>
	</g>
</g>
<g>
	<g>
		<path d="M396.08,383c-3.99-0.1-7.47,2.61-9.31,6c-0.82,1.52-1.5,3.32-1.83,5.02c-0.32,1.63-0.16,3.27-0.05,4.92
			c0.05,0.81,0.65,1.5,1.5,1.5c0.77,0,1.55-0.69,1.5-1.5c-0.05-0.85-0.12-1.7-0.14-2.55c-0.01-0.28-0.01-0.56,0.01-0.85
			c0.01-0.14,0.02-0.28,0.03-0.42c0.02-0.18-0.04,0.2,0.01-0.09c0.25-1.4,0.75-2.87,1.37-4.14c1.31-2.65,3.79-4.98,6.91-4.89
			C398.02,386.05,398.01,383.05,396.08,383L396.08,383z"/>
	</g>
</g>
<g>
	<g>
		<path d="M368.1,532.67c12.79,7.52,25.58,15.05,38.37,22.57c2.94,1.73,5.85,3.69,9.1,4.81c3.28,1.13,6.74,0.87,10.12,0.46
			c6.82-0.82,13.66-1.67,20.37-3.17c6.68-1.49,13.12-3.75,19.14-7.01c6.04-3.27,11.62-7.3,17.2-11.28
			c12.11-8.63,24.21-17.26,36.32-25.89c5.24-3.74,10.99-7.29,15.19-12.25c4.16-4.91,5.91-10.95,7.58-17.05
			c1.79-6.51,4.3-12.75,6.34-19.18c2.12-6.67,3.23-13.44,2.94-20.45c-0.29-7.17-1.68-14.25-3.05-21.27
			c-1.4-7.15-2.63-14.32-3.5-21.56c-1.72-14.32-2.27-28.77-1.66-43.18c0.31-7.27,0.95-14.51,1.8-21.74
			c0.86-7.27,1.84-14.53,2.27-21.84c0.38-6.41,0.93-13.3-3.28-18.64c-1.72-2.19-3.99-3.96-6.62-4.92c-3-1.1-6.14-0.4-9.24-0.37
			c-3.66,0.03-7.31-0.2-10.96-0.02c-1.92,0.1-1.93,3.1,0,3c3.65-0.18,7.31,0.04,10.96,0.02c2.93-0.02,6.02-0.8,8.8,0.41
			c2.45,1.07,4.48,3.06,5.81,5.35c1.68,2.88,1.78,6.18,1.73,9.43c-0.19,14.19-2.92,28.2-3.9,42.34
			c-0.96,13.95-0.82,27.99,0.42,41.92c0.61,6.93,1.5,13.83,2.64,20.69c1.15,6.88,2.7,13.69,3.77,20.59
			c1.06,6.85,1.58,13.92,0.37,20.78c-1.13,6.47-3.55,12.61-5.71,18.78c-1.07,3.07-2.04,6.16-2.9,9.29c-0.82,2.99-1.61,6.01-2.8,8.88
			c-2.38,5.77-6.73,9.86-11.67,13.49c-11.47,8.42-23.17,16.54-34.76,24.8c-10.94,7.8-21.82,16.78-34.63,21.32
			c-6.18,2.2-12.65,3.47-19.13,4.44c-3.37,0.5-6.74,0.92-10.12,1.33c-3.42,0.41-6.81,0.63-10.04-0.75
			c-3.07-1.31-5.91-3.26-8.78-4.95c-3.12-1.84-6.24-3.67-9.36-5.51c-6.17-3.63-12.33-7.26-18.5-10.88
			c-3.05-1.79-6.09-3.58-9.14-5.37C367.95,529.1,366.44,531.69,368.1,532.67L368.1,532.67z"/>
	</g>
</g>
<g>
	<g>
		<path class="st0" d="M427.72,302.07c1.93,0,1.93-3,0-3C425.79,299.07,425.79,302.07,427.72,302.07L427.72,302.07z"/>
	</g>
</g>
<g>
	<g>
		<path class="st0" d="M418.18,304.13c1.49,2.05,2.91,4.58,4.79,6.27c0.92,0.82,1.78,1.35,2.87,1.83c0.34,0.15,0.67,0.32,1.01,0.48
			c0.51,0.32,0.32,0.16-0.59-0.49c-0.49-0.51-0.84-1.11-1.05-1.79c0.91,2.86,3.58,4.7,6.58,4.3c2.86-0.38,5.28-2.89,5.2-5.89
			c-0.1-3.89-1.7-7.31-3.71-10.56c-0.78-1.26-1.58-2.5-2.23-3.83c-0.09-0.19-0.19-0.39-0.27-0.58c0.12,0.28,0.24,0.56,0.36,0.84
			c-0.05-0.39-0.3-0.82-0.4-1.2c-0.08-0.31-0.12-0.62-0.21-0.93c0.13,1.07,0.16,1.29,0.1,0.64c0.02-1.46-0.41-0.46-1.29,2.98
			c-0.88,0.51-1.77,1.03-2.65,1.54c-1.14-0.13-2.28-0.25-3.41-0.38c0.13,0.07,0.27,0.15,0.4,0.22c0.3,0.22,0.68,0.37,1,0.55
			c0.6,0.33,1.2,0.66,1.8,1c1.32,0.73,3.15,1.08,4.62,0.6c1.58-0.51,2.6-1.44,3.59-2.76c2.3-3.07,1.95-7.55,0.26-10.79
			c-1.46-2.8-4.21-4.79-7.01-6.11c-1.49-0.7-2.99-1.06-4.62-0.6c-1.39,0.38-2.9,1.46-3.59,2.76c-1.41,2.67-0.88,6.78,2.15,8.21
			c0.75,0.35,1.49,0.73,2.19,1.18c1.22,0.8-0.6-0.75,0.13,0.11c0.09,0.09,0.18,0.18,0.27,0.27c0.42,0.48,0.35,0.36-0.22-0.34
			c0.1,0.14,0.18,0.28,0.26,0.43c0.22,0.41,0.13,0.19-0.26-0.66c0.08,0.21,0.14,0.43,0.18,0.66c-0.04-0.31-0.08-0.62-0.12-0.93
			c0.02,0.22,0.02,0.45,0,0.67c0.04-0.31,0.08-0.63,0.12-0.94c-0.18,0.6-0.09,0.43,0.26-0.52c-0.11,0.19-0.23,0.38-0.37,0.55
			c2.74-0.72,5.47-1.43,8.21-2.15c-1.56-0.86-3.21-2.04-4.93-2.53c-2.96-0.85-6.42,0.12-7.98,2.96c-1.89,3.45-0.72,7.37,0.78,10.71
			c0.86,1.9,2.04,3.62,3.1,5.4c0.28,0.47,0.55,0.94,0.8,1.42c0.12,0.24,0.24,0.48,0.36,0.72c0.22,0.46,0.23,1.07-0.16-0.41
			c0.12,0.45,0.31,0.89,0.43,1.35c0.05,0.22,0.19,0.54,0.16,0.77c-0.05-0.32-0.09-0.65-0.14-0.97c0.02,0.21,0.03,0.43,0.03,0.64
			c3.93-0.53,7.86-1.06,11.79-1.6c-0.63-1.98-1.75-3.42-3.44-4.61c-0.65-0.46-1.39-0.71-2.1-1.05c-0.15-0.07-0.34-0.22-0.5-0.26
			c-0.45-0.1,0.87,0.8,0.44,0.34c-0.53-0.57,0.66,0.96,0.2,0.32c-0.17-0.24-0.35-0.48-0.52-0.72c-0.77-1.06-1.54-2.12-2.31-3.19
			c-0.94-1.3-1.98-2.32-3.59-2.76c-1.44-0.4-3.35-0.22-4.62,0.6C417.82,297.54,416.2,301.42,418.18,304.13L418.18,304.13z"/>
	</g>
</g>
<g>
	<g>
		<path class="st0" d="M463.98,291.51c3.14,0,6.15-2.76,6-6c-0.15-3.25-2.64-6-6-6c-3.14,0-6.15,2.76-6,6
			C458.12,288.76,460.62,291.51,463.98,291.51L463.98,291.51z"/>
	</g>
</g>
<g>
	<g>
		<path class="st0" d="M467.3,311.94c3.14,0,6.15-2.76,6-6c-0.15-3.25-2.64-6-6-6c-3.14,0-6.15,2.76-6,6
			C461.44,309.19,463.93,311.94,467.3,311.94L467.3,311.94z"/>
	</g>
</g>
<g>
	<g>
		<path class="st0" d="M462.7,326.23c3.14,0,6.15-2.76,6-6c-0.15-3.25-2.64-6-6-6c-3.14,0-6.15,2.76-6,6
			C456.85,323.48,459.34,326.23,462.7,326.23L462.7,326.23z"/>
	</g>
</g>
<g>
	<g>
		<path class="st0" d="M390.96,280.02c3.14,0,6.15-2.76,6-6c-0.15-3.25-2.64-6-6-6c-3.14,0-6.15,2.76-6,6
			C385.1,277.27,387.59,280.02,390.96,280.02L390.96,280.02z"/>
	</g>
</g>
<g>
	<g>
		<path class="st0" d="M387.89,265.72c3.14,0,6.15-2.76,6-6c-0.15-3.25-2.64-6-6-6c-3.14,0-6.15,2.76-6,6
			C382.04,262.97,384.53,265.72,387.89,265.72L387.89,265.72z"/>
	</g>
</g>
<g>
	<g>
		<path class="st0" d="M392.23,264.96c3.14,0,6.15-2.76,6-6c-0.15-3.25-2.64-6-6-6c-3.14,0-6.15,2.76-6,6
			C386.38,262.21,388.87,264.96,392.23,264.96L392.23,264.96z"/>
	</g>
</g>
<g>
	<g>
		<path class="st0" d="M344.43,256.17c0.01,0.31-0.11,1.74,0.04,0.82c0.14-0.93-0.14,0.5-0.22,0.78c-0.06,0.19-0.14,0.38-0.19,0.58
			c-0.21,0.77,0.53-1,0.13-0.3c-0.27,0.48-0.5,0.97-0.8,1.44c-0.11,0.17-0.23,0.34-0.34,0.52c-0.4,0.61-0.32-0.01,0.19-0.23
			c-0.26,0.11-0.61,0.71-0.82,0.92c-0.74,0.78-1.55,1.45-2.36,2.15c-0.62,0.55,0.87-0.64,0.21-0.15c-0.17,0.13-0.34,0.26-0.51,0.38
			c-0.4,0.3-0.81,0.59-1.22,0.88c-0.87,0.62-1.75,1.22-2.62,1.85c-2,1.44-3.95,2.95-5.84,4.53c-3.33,2.78-6.32,5.87-9.24,9.07
			c-1.37,1.5-2.77,2.94-4.32,4.26c-0.63,0.54-0.14-0.17,0.2-0.15c-0.09-0.01-0.43,0.3-0.51,0.36c-0.4,0.27-0.81,0.54-1.23,0.79
			c-0.42,0.25-0.84,0.48-1.27,0.7c-0.18,0.1-0.37,0.19-0.56,0.28c-0.18,0.09-1.3,0.56-0.42,0.21c0.77-0.31,0.09-0.04-0.05,0.02
			c-0.26,0.1-0.52,0.2-0.78,0.29c-0.39,0.14-0.79,0.27-1.19,0.4c-1,0.31-2.02,0.57-3.05,0.79c-0.48,0.1-0.96,0.2-1.45,0.28
			c-0.28,0.05-0.55,0.09-0.83,0.14c-0.17,0.03-0.9,0.13-0.03,0.01c0.9-0.12-0.58,0.06-0.87,0.09c-0.65,0.06-1.31,0.11-1.96,0.16
			c-4.67,0.29-9.35,0.06-14.02,0.08c-2.6,0.01-5.21,0.13-7.76,0.69c-2.35,0.51-4.66,1.58-6.72,2.82c-3.52,2.12-6.76,4.79-10.01,7.3
			c-7.32,5.65-14.35,12.02-18.65,20.36c-1.82,3.53-0.24,7.6,3.59,8.81c3.81,1.21,7.16-0.72,9.95-3.13c0.88-0.76,1.76-1.52,2.67-2.25
			c0.23-0.18,0.46-0.36,0.68-0.54c-0.64,0.49-0.7,0.54-0.17,0.14c0.47-0.34,0.94-0.69,1.41-1.03c3.8-2.7,7.87-4.98,12.14-6.85
			c1.29-0.56,2.4-2.3,2.76-3.59c0.4-1.44,0.22-3.35-0.6-4.62c-1.93-2.99-5.12-3.51-8.21-2.15c-3.86,1.7-7.57,3.73-11.06,6.11
			c-1.98,1.35-3.9,2.81-5.76,4.32c-0.79,0.64-1.56,1.31-2.33,1.98c-0.2,0.18-0.4,0.35-0.61,0.52c0.68-0.51,0.75-0.59,0.22-0.24
			c-0.59,0.31-0.46,0.26,0.37-0.15c0.58-0.15,1.16-0.18,1.75-0.08c1.2,2.94,2.39,5.88,3.59,8.81c0.89-1.73,1.91-3.4,3.05-4.98
			c0.16-0.22,0.32-0.43,0.48-0.65c0.39-0.55-0.33,0.43-0.33,0.42c0.16-0.39,0.61-0.77,0.89-1.09c0.65-0.77,1.32-1.53,2.01-2.26
			c2.7-2.87,5.7-5.45,8.78-7.89c0.21-0.17,0.43-0.34,0.64-0.51c0.12-0.1,0.69-0.53,0.04-0.03c-0.65,0.5-0.08,0.06,0.04-0.03
			c0.22-0.17,0.43-0.33,0.65-0.5c0.81-0.62,1.63-1.23,2.45-1.84c1.62-1.21,3.23-2.45,4.93-3.54c0.83-0.53,1.69-0.99,2.56-1.46
			c0.14-0.08,0.81-0.34,0.05-0.04c-0.81,0.32,0.06-0.01,0.26-0.08c0.56-0.19,1.12-0.35,1.69-0.48c0.07-0.01,0.66-0.18,0.7-0.14
			c-0.07-0.09-1.15,0.1-0.19,0.03c0.55-0.04,1.1-0.09,1.66-0.11c1.21-0.05,2.42-0.05,3.63-0.04c9.66,0.04,19.3,0.37,28.34-3.58
			c4.15-1.81,7.61-4.69,10.66-7.99c2.88-3.12,5.74-6.2,8.97-8.98c0.9-0.78,1.9-1.88,2.96-2.43c-0.03,0.02-0.87,0.65-0.32,0.25
			c0.3-0.22,0.6-0.45,0.9-0.67c0.47-0.35,0.95-0.69,1.43-1.03c2.16-1.53,4.35-3.03,6.37-4.75c4.3-3.64,7.57-8.98,7.39-14.77
			c-0.09-3.13-2.69-6.15-6-6C347.26,250.31,344.33,252.81,344.43,256.17L344.43,256.17z"/>
	</g>
</g>
<g>
	<g>
		<path class="st0" d="M311.81,322.4c3.14,0,6.15-2.76,6-6c-0.15-3.25-2.64-6-6-6c-3.14,0-6.15,2.76-6,6
			C305.95,319.66,308.44,322.4,311.81,322.4L311.81,322.4z"/>
	</g>
</g>
<g>
	<g>
		<path class="st0" d="M305.17,337.21c3.14,0,6.15-2.76,6-6c-0.15-3.25-2.64-6-6-6c-3.14,0-6.15,2.76-6,6
			C299.32,334.46,301.81,337.21,305.17,337.21L305.17,337.21z"/>
	</g>
</g>
<g>
	<g>
		<path class="st0" d="M371.3,287.68c3.14,0,6.15-2.76,6-6c-0.15-3.25-2.64-6-6-6c-3.14,0-6.15,2.76-6,6
			C365.44,284.93,367.93,287.68,371.3,287.68L371.3,287.68z"/>
	</g>
</g>
<g>
	<g>
		<path class="st0" d="M370.53,287.94c3.14,0,6.15-2.76,6-6c-0.15-3.25-2.64-6-6-6c-3.14,0-6.15,2.76-6,6
			C364.68,285.19,367.17,287.94,370.53,287.94L370.53,287.94z"/>
	</g>
</g>
<g>
	<g>
		<path class="st0" d="M363.33,281.64c-3.73,3.65-7.08,7.64-10.14,11.86c-1.38,1.9-2.67,3.86-3.88,5.88
			c-0.13,0.22-1.48,2.64-1.62,2.58c-0.01,0,1.06-1.26,0.26-0.38c-0.06,0.06-0.54,0.52-0.53,0.53c-0.05-0.14,1.27-0.77,0.51-0.41
			c-1.03,0.49,1.46-0.49,0.35-0.11c-2.97,1-5.23,4.18-4.19,7.38c0.96,2.95,4.2,5.26,7.38,4.19c3.26-1.1,5.48-3.31,7.28-6.18
			c1.3-2.07,2.53-4.17,3.93-6.18c0.73-1.04,1.51-2.04,2.25-3.07c-0.17,0.24-0.73,0.93-0.24,0.31c0.24-0.3,0.47-0.6,0.71-0.89
			c0.36-0.44,0.73-0.88,1.1-1.32c1.68-1.99,3.47-3.88,5.33-5.7c2.25-2.2,2.37-6.31,0-8.49C369.4,279.42,365.73,279.29,363.33,281.64
			L363.33,281.64z"/>
	</g>
</g>
<g>
	<g>
		<path class="st0" d="M303.82,245.37c-0.35,0.43-0.71,0.83-1.1,1.22c-0.16,0.16-1.44,1.18-0.62,0.59c0.75-0.54,0.07-0.07-0.12,0.07
			c-0.25,0.17-0.5,0.34-0.76,0.5c-0.46,0.29-0.94,0.56-1.42,0.82c-1.92,1.03-3.94,1.85-5.92,2.76c-4.48,2.07-8.16,5.34-12.44,7.76
			c-0.75,0.42,1.39-0.44,0.08-0.03c-0.27,0.08-0.53,0.18-0.79,0.27c-0.51,0.15-1.13,0.17-1.61,0.37c0.2-0.08,1.4-0.07,0.37-0.1
			c-0.27-0.01-0.55-0.01-0.81-0.01c-1.11,0.01,0.29-0.06,0.39,0.06c-0.03-0.03-1.06-0.33-1.14-0.33c0.16,0,1.27,0.66,0.45,0.16
			c-0.2-0.12-0.41-0.25-0.62-0.37c-0.83-0.46,0.25,0.16,0.35,0.3c-0.11-0.16-0.39-0.34-0.54-0.48c-0.22-0.21-0.43-0.43-0.63-0.66
			c-0.16-0.18-0.65-0.83-0.12-0.1c0.54,0.74,0.05,0.05-0.08-0.14c-0.18-0.26-0.34-0.52-0.51-0.79c-1.55-2.55-2.22-5.43-5-7.06
			c-3.1-1.83-6.96-1.23-10.25-0.26c-2.59,0.76-5.07,1.92-7.51,3.06c-1.12,0.52-2.25,1.05-3.38,1.56c-0.51,0.23-0.43,0.47,0.29-0.12
			c-0.15,0.13-0.61,0.24-0.77,0.3c-0.64,0.24-1.29,0.47-1.94,0.67c-4.85,1.47-10.19,1.11-14.51,4.17
			c-4.54,3.22-7.13,8.16-7.92,13.61c-0.46,3.16-0.51,6.3-0.6,9.49c-0.02,0.65-0.04,1.3-0.08,1.94c-0.02,0.34,0.08,1.9-0.19,2.18
			c0.02-0.02,0.26-1.44,0.02-0.27c-0.06,0.28-0.1,0.56-0.16,0.84c-0.14,0.7-0.31,1.39-0.51,2.08c-0.18,0.62-0.38,1.23-0.6,1.83
			c-0.14,0.37-0.35,1.33,0.05-0.04c-0.1,0.33-0.3,0.66-0.45,0.97c-0.59,1.23-1.28,2.42-2.06,3.55c-0.44,0.63-0.88,1.28-1.37,1.87
			c0.81-0.98,0.26-0.33,0.09-0.12c-0.5,0.65-1.01,1.3-1.51,1.95c-0.86,1.13-1.69,2.27-2.42,3.49c-3.32,5.52-5.08,11.89-5.28,18.31
			c-0.06,1.88,0.92,3.59,2.36,4.71c1.59,1.23,3.28,1.43,5.23,1.07c3.5-0.64,7.03-2.19,8.79-5.47c2.11-3.93,1.12-9.43-2.93-11.72
			c-3.24-1.83-7.4-0.83-10.92-0.53c-3.31,0.28-6.62,0.56-9.93,0.83c-3.12,0.26-6.15,2.57-6,6c0.14,3.03,2.65,6.28,6,6
			c4.76-0.4,9.53-0.8,14.29-1.2c0.56-0.05,1.13-0.11,1.7-0.14c0.25-0.02,0.5-0.04,0.74-0.04c-0.65-0.01-1.25-0.18-1.82-0.5
			c-1.49-1.76-2.01-2.26-1.55-1.5c0.23,0.41,0.12,0.13-0.35-0.83c-0.11-1.15-0.14-1.41-0.11-0.78c-0.03,0.63,0,0.38,0.11-0.76
			c-0.19,0.59-0.09,0.37,0.29-0.65c0.72-0.84,0.83-1,0.36-0.49c0.21-0.16,0.42-0.32,0.64-0.48c-0.21,0.14-0.42,0.26-0.64,0.37
			c0.87-0.34,0.99-0.41,0.38-0.19c-0.24,0.08-0.49,0.14-0.74,0.2c-0.49,0.12-1,0.21-1.5,0.31c2.53,1.93,5.06,3.86,7.6,5.79
			c0.02-0.57,0.04-1.14,0.09-1.71c0.02-0.29,0.06-0.57,0.08-0.85c0.12-1.42-0.19,1.01-0.01,0.11c0.23-1.2,0.45-2.39,0.78-3.56
			c0.16-0.55,0.32-1.1,0.51-1.64c0.12-0.34,0.24-0.68,0.36-1.01c0.08-0.2,0.41-1.08,0.1-0.28c-0.31,0.8,0.04-0.07,0.13-0.27
			c0.12-0.26,0.24-0.52,0.37-0.77c0.29-0.58,0.59-1.15,0.91-1.7c0.62-1.08,1.31-2.12,2.05-3.12c0.18-0.25,0.37-0.49,0.56-0.74
			c0.52-0.69-0.62,0.79-0.09,0.11c0.69-0.89,1.39-1.78,2.07-2.68c1.62-2.17,2.87-4.46,3.93-6.95c2.3-5.45,2.55-11.09,2.71-16.92
			c0.02-0.65,0.04-1.3,0.08-1.94c0.04-0.66,0.27-1.52,0.19-2.18c0.01,0.12-0.26,1.51-0.06,0.49c0.05-0.24,0.09-0.49,0.14-0.73
			c0.11-0.55,0.24-1.1,0.4-1.63c0.09-0.31,0.6-1.31,0.54-1.59c0.03,0.12-0.65,1.31-0.16,0.42c0.12-0.21,0.22-0.44,0.34-0.65
			c0.22-0.39,0.63-0.82,0.77-1.23c-0.05,0.14-0.95,1.06-0.27,0.36c0.21-0.22,0.41-0.44,0.62-0.65c0.83-0.79,0.02,0.23-0.24,0.12
			c0.02,0.01,0.71-0.47,0.64-0.43c0.23-0.14,0.47-0.26,0.7-0.4c0.79-0.46-0.32,0.06-0.34,0.11c0.08-0.21,1.29-0.44,1.53-0.5
			c0.65-0.18,1.32-0.32,1.99-0.45c2.3-0.43,4.63-0.64,6.89-1.28c2.61-0.74,5.1-1.89,7.55-3.03c1-0.46,1.99-0.94,3-1.39
			c0.16-0.07,0.55-0.31,0.75-0.33c-0.99,0.14-0.79,0.32-0.3,0.13c0.63-0.25,1.27-0.49,1.91-0.71c0.31-0.1,3.05-1.01,3.15-0.8
			c0.05,0.11-1.35,0.08-0.4,0.06c-0.06,0,0.78,0,0.78-0.01c-0.25,0.46-2.36-0.89-2.55-1.05c-0.89-0.78-0.49-0.64-0.19,0.02
			c1.08,2.33,2.23,4.39,3.88,6.38c3.93,4.74,10.42,6.39,16.23,4.44c5.61-1.89,9.67-6.24,14.94-8.76c4.65-2.22,9.68-4.01,13.04-8.15
			c1.04-1.28,1.76-2.54,1.76-4.24c0-1.47-0.65-3.23-1.76-4.24C310.12,243.36,305.93,242.77,303.82,245.37L303.82,245.37z"/>
	</g>
</g>
<g>
	<g>
		<path class="st0" d="M262.83,235.5c-2.13-0.07-4.26,0.04-6.36,0.48c-1.21,0.25-2.39,0.74-3.48,1.3c-1.11,0.57-2.17,1.38-2.98,2.33
			c-0.59,0.54-1,1.19-1.24,1.93c-0.38,0.72-0.55,1.49-0.52,2.31c0,1.47,0.65,3.23,1.76,4.24c1.14,1.05,2.64,1.83,4.24,1.76
			c1.52-0.07,3.22-0.56,4.24-1.76c0.26-0.31,0.55-0.58,0.87-0.83c-0.4,0.31-0.81,0.63-1.21,0.94c0.41-0.31,0.86-0.56,1.33-0.76
			c-0.48,0.2-0.96,0.4-1.43,0.6c0.79-0.33,1.63-0.52,2.48-0.64c-0.53,0.07-1.06,0.14-1.6,0.21c1.3-0.17,2.6-0.16,3.9-0.12
			c1.51,0.05,3.19-0.7,4.24-1.76c0.59-0.54,1-1.19,1.24-1.93c0.38-0.72,0.55-1.49,0.52-2.31c-0.07-1.55-0.58-3.16-1.76-4.24
			C265.87,236.16,264.47,235.56,262.83,235.5L262.83,235.5z"/>
	</g>
</g>
<g>
	<g>
		<path class="st0" d="M478.85,279.37c0.14,1.33,0.31,2.42,0.96,3.61c0.37,0.68,0.86,1.32,1.43,1.85c1.43,1.34,3.12,2.05,5.03,2.31
			c2.04,0.27,4.04-0.28,6.09-0.02c-0.53-0.07-1.06-0.14-1.6-0.21c1.88,0.28,3.66,0.9,5.41,1.63c-0.48-0.2-0.96-0.4-1.43-0.6
			c0.67,0.28,1.33,0.57,1.99,0.87c0.48-3.66,0.96-7.31,1.43-10.97c-0.16,0.04-0.32,0.07-0.48,0.08c0.53-0.07,1.06-0.14,1.6-0.21
			c-0.41,0.04-0.81,0.03-1.22-0.03c0.53,0.07,1.06,0.14,1.6,0.21c-0.33-0.06-0.63-0.15-0.94-0.26c0.48,0.2,0.96,0.4,1.43,0.6
			c-0.15-0.06-0.3-0.13-0.44-0.21c-1.44-0.73-3.03-1.04-4.62-0.6c-1.39,0.38-2.9,1.46-3.59,2.76c-0.74,1.39-1.1,3.08-0.6,4.62
			c0.46,1.44,1.37,2.88,2.76,3.59c2.52,1.27,4.97,1.58,7.72,1.02c0.93-0.19,1.99-0.88,2.65-1.54c0.94-0.94,1.48-2.15,1.65-3.45
			c0.15-1.1,0.02-2.09-0.41-3.11c-0.46-1.09-1.33-2.36-2.45-2.87c-2.47-1.11-4.99-2.3-7.65-2.89c-1.5-0.33-3.08-0.57-4.63-0.54
			c-1.15,0.02-2.28,0.32-3.44,0.24c0.53,0.07,1.06,0.14,1.6,0.21c-0.31-0.04-0.58-0.1-0.87-0.21c0.48,0.2,0.96,0.4,1.43,0.6
			c-0.2-0.09-0.37-0.19-0.55-0.31c0.4,0.31,0.81,0.63,1.21,0.94c-0.17-0.14-0.3-0.27-0.45-0.43c0.31,0.4,0.63,0.81,0.94,1.21
			c-0.08-0.11-0.15-0.22-0.21-0.34c0.2,0.48,0.4,0.96,0.6,1.43c-0.06-0.12-0.1-0.25-0.12-0.38c0.07,0.53,0.14,1.06,0.21,1.6
			c-0.01-0.07-0.01-0.14-0.02-0.2c-0.18-1.64-0.55-3.04-1.76-4.24c-1.04-1.04-2.75-1.82-4.24-1.76c-1.55,0.07-3.16,0.58-4.24,1.76
			C479.59,276.23,478.68,277.82,478.85,279.37L478.85,279.37z"/>
	</g>
</g>
<g>
	<g>
		<path class="st0" d="M469.34,303c3.14,0,6.15-2.76,6-6c-0.15-3.25-2.64-6-6-6c-3.14,0-6.15,2.76-6,6
			C463.49,300.25,465.98,303,469.34,303L469.34,303z"/>
	</g>
</g>
<g>
	<g>
		<path class="st0" d="M461.43,337.47c3.14,0,6.15-2.76,6-6c-0.15-3.25-2.64-6-6-6c-3.14,0-6.15,2.76-6,6
			C455.57,334.72,458.06,337.47,461.43,337.47L461.43,337.47z"/>
	</g>
</g>
<g>
	<g>
		<path class="st0" d="M419.55,323.94c3.14,0,6.15-2.76,6-6c-0.15-3.25-2.64-6-6-6c-3.14,0-6.15,2.76-6,6
			C413.7,321.19,416.19,323.94,419.55,323.94L419.55,323.94z"/>
	</g>
</g>
<g>
	<g>
		<path class="st0" d="M418.79,335.94c3.14,0,6.15-2.76,6-6c-0.15-3.25-2.64-6-6-6c-3.14,0-6.15,2.76-6,6
			C412.93,333.19,415.42,335.94,418.79,335.94L418.79,335.94z"/>
	</g>
</g>
<g>
	<g>
		<path class="st0" d="M419.55,331.85c3.14,0,6.15-2.76,6-6c-0.15-3.25-2.64-6-6-6c-3.14,0-6.15,2.76-6,6
			C413.7,329.1,416.19,331.85,419.55,331.85L419.55,331.85z"/>
	</g>
</g>
<g>
	<g>
		<path class="st0" d="M357.26,340.79c3.14,0,6.15-2.76,6-6c-0.15-3.25-2.64-6-6-6c-3.14,0-6.15,2.76-6,6
			C351.4,338.04,353.89,340.79,357.26,340.79L357.26,340.79z"/>
	</g>
</g>
<g>
	<g>
		<path class="st0" d="M347.55,347.17c3.14,0,6.15-2.76,6-6c-0.15-3.25-2.64-6-6-6c-3.14,0-6.15,2.76-6,6
			C341.7,344.42,344.19,347.17,347.55,347.17L347.55,347.17z"/>
	</g>
</g>
<g>
	<g>
		<path class="st0" d="M550.35,349.92c0.56,1.99,1.05,3.99,1.45,6.02c0.19,0.93,0.36,1.87,0.51,2.81c0.08,0.47,0.14,0.94,0.22,1.41
			c0.1,0.69,0.09,0.63-0.02-0.18c0.03,0.24,0.06,0.47,0.09,0.71c0.48,4.02,0.64,8.07,0.52,12.12c-0.09,2.99,2.35,5.51,5.2,5.89
			c2.79,0.38,5.96-1.37,6.58-4.3c1.14-5.33,2.57-10.6,4.3-15.78c0.84-2.51,1.75-5,2.73-7.46c0.26-0.65,0.52-1.3,0.79-1.95
			c0.06-0.13,0.43-1.1,0.15-0.36c-0.32,0.81,0.18-0.41,0.25-0.57c0.56-1.29,1.14-2.56,1.73-3.83c-1.2,0.92-2.39,1.84-3.59,2.76
			c0.1-0.02,0.19-0.03,0.29-0.05c-1.06,0-2.13,0-3.19,0c-0.45-0.33-0.9-0.66-1.34-0.98c-0.9-0.32-1.47-0.91-1.7-1.78
			c-0.05,0.07,0.17,0.62,0.19,0.71c0.15,0.55,0.29,1.11,0.44,1.66c0.29,1.11,0.57,2.21,0.86,3.32c0.58,2.3,1.14,4.6,1.69,6.9
			c1.07,4.53,2.06,9.08,2.98,13.65c0.45,2.24,0.88,4.49,1.3,6.74c0.44,2.38,0.83,4.82,2.2,6.89c1.44,2.18,3.57,3.73,5.54,5.39
			c1.73,1.46,3.45,2.94,5.2,4.39c1.97,1.64,3.96,2.71,6.61,2.35c1.57-0.21,3.12-0.92,4.42-1.84c3.16-2.23,5.57-5.89,4.22-9.91
			c-1-2.97-4.18-5.23-7.38-4.19c-2.95,0.96-5.26,4.19-4.19,7.38c0.03,0.1,0.07,0.21,0.1,0.31c-0.31-1.14-0.19-2.19,0.34-3.16
			c0.05-0.09,1-1.13,0.31-0.43c-0.84,0.86,0.92-0.54,0.23-0.15c-0.26,0.14-0.53,0.3-0.77,0.46c-2.01,1.3,6.17,2.22,4.59,0.69
			c-0.29-0.28-0.62-0.52-0.93-0.78c-0.68-0.57-1.36-1.15-2.04-1.72c-1.18-0.99-2.35-1.98-3.53-2.98c-0.6-0.51-1.22-1.01-1.81-1.53
			c-0.26-0.23-0.51-0.53-0.79-0.73c-0.3-0.32-0.22-0.19,0.24,0.4c-0.16-0.23-0.3-0.48-0.43-0.73c0.02-0.07,0.41,1.47,0.16,0.24
			c-0.09-0.42-0.21-0.83-0.3-1.25c-0.14-0.68-0.25-1.37-0.38-2.05c-0.31-1.69-0.63-3.37-0.96-5.06c-0.63-3.21-1.29-6.41-2-9.6
			c-0.72-3.27-1.48-6.53-2.28-9.79c-0.37-1.51-0.75-3.01-1.13-4.52c-0.51-2-0.9-4.16-1.83-6.02c-1.31-2.63-4.04-4.37-7.02-3.97
			c-1.97,0.26-3.61,1.19-4.67,2.91c-0.48,0.77-0.8,1.72-1.17,2.55c-1.42,3.18-2.75,6.39-3.97,9.65c-2.51,6.71-4.51,13.61-6.01,20.62
			c3.93,0.53,7.86,1.06,11.79,1.6c0.26-8.77-0.84-17.63-3.21-26.08c-0.85-3.02-4.29-5.19-7.38-4.19
			C551.45,343.54,549.44,346.68,550.35,349.92L550.35,349.92z"/>
	</g>
</g>
<g>
	<g>
		<path class="st0" d="M533.17,325.72c3.14,0,6.15-2.76,6-6c-0.15-3.25-2.64-6-6-6c-3.14,0-6.15,2.76-6,6
			C527.32,322.97,529.81,325.72,533.17,325.72L533.17,325.72z"/>
	</g>
</g>
<g>
	<g>
		<path class="st0" d="M509.08,305.2c0.46,4.42,0.48,8.87,0.02,13.3c-0.03,0.31-0.19,2.41-0.08,0.77c-0.03,0.47-0.14,0.95-0.22,1.41
			c-0.18,1.1-0.39,2.19-0.63,3.27c-0.47,2.14-1.18,4.22-1.57,6.38c-0.53,2.89-0.46,5.54,0.42,8.36c0.11,0.37,0.32,1.6,0.08-0.03
			c-0.04,0.68-0.02,0.59,0.05-0.28c-0.06,0.29-0.13,0.58-0.2,0.87c-0.25,1.07-0.48,2.14-0.66,3.23c-0.8,4.73-1.13,9.48-0.74,14.26
			c0.25,3.12,2.58,6.15,6,6c3.03-0.14,6.27-2.65,6-6c-0.18-2.19-0.23-4.39-0.13-6.59c0.05-1.1,0.15-2.19,0.26-3.28
			c0.08-0.69,0.07-0.62-0.04,0.19c0.04-0.31,0.09-0.62,0.14-0.93c0.07-0.46,0.16-0.93,0.24-1.39c0.54-2.85,1.45-5.58,0.77-8.5
			c-0.1-0.44-0.25-0.87-0.39-1.3c-0.06-0.18-0.12-0.37-0.17-0.56c-0.14-0.68-0.15-0.59-0.02,0.26c-0.21-0.3,0.01-1.22,0.02-1.58
			c0.04-0.46,0.02-0.3-0.06,0.46c0.05-0.3,0.12-0.61,0.18-0.91c0.48-2.15,1.14-4.24,1.58-6.4c0.52-2.54,0.89-5.12,1.16-7.7
			c0.46-4.42,0.44-8.87-0.02-13.3c-0.17-1.63-0.56-3.04-1.76-4.24c-1.04-1.04-2.75-1.82-4.24-1.76
			C512.1,299.34,508.73,301.86,509.08,305.2L509.08,305.2z"/>
	</g>
</g>
<g>
	<g>
		<path class="st0" d="M485.17,376.28c3.14,0,6.15-2.76,6-6c-0.15-3.25-2.64-6-6-6c-3.14,0-6.15,2.76-6,6
			C479.32,373.53,481.81,376.28,485.17,376.28L485.17,376.28z"/>
	</g>
</g>
<g>
	<g>
		<path class="st0" d="M485.17,372.19c3.14,0,6.15-2.76,6-6c-0.15-3.25-2.64-6-6-6c-3.14,0-6.15,2.76-6,6
			C479.32,369.44,481.81,372.19,485.17,372.19L485.17,372.19z"/>
	</g>
</g>
<g>
	<g>
		<path class="st0" d="M487.21,365.04c3.14,0,6.15-2.76,6-6c-0.15-3.25-2.64-6-6-6c-3.14,0-6.15,2.76-6,6
			C481.36,362.29,483.85,365.04,487.21,365.04L487.21,365.04z"/>
	</g>
</g>
<g>
	<g>
		<path class="st0" d="M611.55,409.98c3.14,0,6.15-2.76,6-6c-0.15-3.25-2.64-6-6-6c-3.14,0-6.15,2.76-6,6
			C605.7,407.23,608.19,409.98,611.55,409.98L611.55,409.98z"/>
	</g>
</g>
<g>
	<g>
		<path class="st0" d="M611.55,413.81c3.14,0,6.15-2.76,6-6c-0.15-3.25-2.64-6-6-6c-3.14,0-6.15,2.76-6,6
			C605.7,411.06,608.19,413.81,611.55,413.81L611.55,413.81z"/>
	</g>
</g>
</svg>
