<?xml version="1.0" encoding="utf-8"?>
<!-- Generator: Adobe Illustrator 27.0.0, SVG Export Plug-In . SVG Version: 6.00 Build 0)  -->
<svg version="1.1" id="Layer_1" xmlns="http://www.w3.org/2000/svg" xmlns:xlink="http://www.w3.org/1999/xlink" x="0px" y="0px"
	 viewBox="0 0 800 800" style="enable-background:new 0 0 800 800;" xml:space="preserve">
<style type="text/css">
	.st0{fill:#FFFFFF;}
</style>
<g>
	<g>
		<path class="st0" d="M586.73,378.4c-0.16,13.67,3.91,27.73,11.74,38.98c6.16-6.16,12.31-12.31,18.47-18.47
			c-13.07-5.96-24.71-14.61-36.07-23.28c0.91,0.7,1.82,1.41,2.73,2.11c-1.92-1.49-3.77-3.06-5.32-4.94c0.7,0.91,1.41,1.82,2.11,2.73
			c-0.78-1.01-1.42-2.04-1.93-3.21c0.45,1.07,0.91,2.15,1.36,3.22c-0.32-0.85-0.54-1.69-0.67-2.59c0.16,1.2,0.32,2.39,0.48,3.59
			c-0.03-0.46-0.03-0.88,0.01-1.34c-0.16,1.2-0.32,2.39-0.48,3.59c0.1-0.6,0.25-1.16,0.46-1.73c-0.45,1.07-0.91,2.15-1.36,3.22
			c0.32-0.71,0.69-1.33,1.16-1.95c-0.7,0.91-1.41,1.82-2.11,2.73c0.39-0.46,0.81-0.88,1.27-1.27c-0.91,0.7-1.82,1.41-2.73,2.11
			c0.59-0.44,1.18-0.8,1.86-1.08c-1.07,0.45-2.15,0.91-3.22,1.36c0.4-0.14,0.77-0.24,1.18-0.31c-1.2,0.16-2.39,0.32-3.59,0.48
			c0.41-0.04,0.77-0.04,1.18-0.01c-1.2-0.16-2.39-0.32-3.59-0.48c0.41,0.08,0.75,0.18,1.13,0.33c-1.08-0.45-2.15-0.91-3.22-1.36
			c0.25,0.12,0.49,0.26,0.71,0.43c-0.91-0.7-1.82-1.41-2.73-2.11c0.11,0.09,0.22,0.19,0.34,0.28c2.68,2.25,5.88,4.12,9.55,3.95
			c3.05-0.14,5.75-1.02,8.18-2.9c2.23-1.72,4.19-4.19,4.84-7.01c0.75-3.31,0.76-7.55-1.36-10.4c-5.97-8.01-12.7-15.04-20.37-21.42
			c-7.66-6.38-15.75-12.22-23.64-18.32c0.91,0.7,1.82,1.41,2.73,2.11c-6.94-5.38-13.75-10.99-19.72-17.45
			c-6.12-6.63-11.06-14.28-17.43-20.7c-7.7-7.76-17.25-13.16-27.8-15.99c-9.67-2.59-19.85-3.23-29.81-3.63
			c-11.21-0.45-22.34-1.03-33.47-2.52c1.2,0.16,2.39,0.32,3.59,0.48c-11.68-1.6-23.26-3.93-34.64-7.03
			c-10.99-2.99-21.64-6.91-32.33-10.82c-10.34-3.79-20.88-7.46-31.82-9.06c-6.13-0.9-12.27-1.6-18.47-1.04
			c-7.44,0.66-13.98,2.33-20.8,5.31c-10,4.36-18.22,12.25-24.85,20.76c-7.05,9.05-13.65,18.59-19.62,28.39
			c-2.81,4.61-5.4,9.37-7.54,14.33c-2.69,6.22-5.13,12.49-6.04,19.24c-0.97,7.19,0.26,15.21,5.92,20.34
			c4.71,4.28,10.84,5.78,17.04,4.48c4.3-0.9,8.09-3.63,11.28-6.53c4.52-4.09,8.71-8.6,13.03-12.9c4.33-4.3,8.66-8.59,12.98-12.89
			c8.6-8.53,16.58-17.24,22.67-27.79c1.28-2.22,2.6-4.4,4.16-6.43c-0.7,0.91-1.41,1.82-2.11,2.73c1.22-1.52,2.56-2.88,4.09-4.09
			c-0.91,0.7-1.82,1.41-2.73,2.11c1.73-1.31,3.59-2.36,5.58-3.23c-1.07,0.45-2.15,0.91-3.22,1.36c3.07-1.27,6.27-2.03,9.56-2.5
			c-1.2,0.16-2.39,0.32-3.59,0.48c5.06-0.67,10.17-0.69,15.26-0.59c-3.89-6.77-7.77-13.54-11.66-20.31
			c-3.44,6.76-7.65,13.07-12.27,19.09c0.7-0.91,1.41-1.82,2.11-2.73c-14.75,19.05-33.13,35.13-46.14,55.55
			c-4.04,6.34-7.26,13.08-9.96,20.09c-1.14,2.96-0.32,7.8,1.36,10.4c1.83,2.85,4.64,5.5,8.07,6.2c9.08,1.87,17.89,0.35,26.03-4.07
			c7.09-3.86,12.41-9.69,17.2-16.03c3.75-4.96,6.89-10.35,10.3-15.54c3.69-5.62,7.6-11.09,11.7-16.41c-0.7,0.91-1.41,1.82-2.11,2.73
			c6.99-9.04,14.54-17.64,22.6-25.74c-7.52-1.99-15.04-3.97-22.56-5.96c0.27,1.4,0.5,2.81,0.69,4.22c-0.16-1.2-0.32-2.39-0.48-3.59
			c0.83,6.55,0.7,13.13-0.15,19.67c0.16-1.2,0.32-2.39,0.48-3.59c-3.15,23.06-14.27,43.99-21.95,65.7
			c-2.21,6.25-4.15,12.6-5.59,19.08c8.68,0,17.36,0,26.04,0c-0.03-0.21-0.06-0.43-0.09-0.64c0.16,1.2,0.32,2.39,0.48,3.59
			c-0.47-3.6-0.45-7.2-0.01-10.8c-0.16,1.2-0.32,2.39-0.48,3.59c0.69-5.12,2.18-10.04,4.16-14.8c-0.45,1.07-0.91,2.15-1.36,3.22
			c5.21-12.25,13.17-23.3,21.27-33.78c-0.7,0.91-1.41,1.82-2.11,2.73c6.03-7.78,12.47-15.23,19.31-22.31
			c6.78-7.02,13.89-13.95,21.57-19.97c-0.91,0.7-1.82,1.41-2.73,2.11c1.18-0.89,2.38-1.67,3.71-2.3c-1.07,0.45-2.15,0.91-3.22,1.36
			c0.95-0.39,1.89-0.67,2.9-0.82c-1.2,0.16-2.39,0.32-3.59,0.48c0.9-0.09,1.76-0.08,2.66,0.02c-1.2-0.16-2.39-0.32-3.59-0.48
			c1.06,0.18,2.05,0.47,3.04,0.86c-1.07-0.45-2.15-0.91-3.22-1.36c1.89,0.84,3.59,1.97,5.24,3.22c-0.91-0.7-1.82-1.41-2.73-2.11
			c5.23,4.09,10.02,8.72,15.91,11.9c5.8,3.13,12.12,5.44,18.51,7.03c11.41,2.84,23.19,3.67,34.66,6.18
			c5.87,1.28,11.59,3.1,17.13,5.41c-1.07-0.45-2.15-0.91-3.22-1.36c8.36,3.53,16.2,8.15,23.41,13.66c-0.91-0.7-1.82-1.41-2.73-2.11
			c7.47,5.78,14.17,12.48,19.96,19.95c-0.7-0.91-1.41-1.82-2.11-2.73c5.53,7.2,10.15,15.04,13.72,23.39
			c-0.45-1.07-0.91-2.15-1.36-3.22c2.83,6.72,4.95,13.71,6.28,20.89c6.61-5.08,13.22-10.16,19.83-15.25
			c-28.01-15.53-56.28-30.68-85.54-43.77c-15.5-6.93-31.23-13.38-47.25-18.98c-16.31-5.7-34.35-12.51-51.78-8.07
			c-9.53,2.43-18.26,8.48-23.47,16.86c-3.18,5.12-5.46,12.34-3.72,18.28c1.55,5.28,6.17,9.59,11.62,10.59
			c2.98,0.55,6.05,0.71,9.06,1.1c-1.2-0.16-2.39-0.32-3.59-0.48c22.52,3.08,43.69,11.74,65.43,17.93c11.6,3.31,23.46,5.79,35.5,6.69
			c5.6,0.42,11.25,0.4,16.85-0.18c2.14-0.23,4.38-0.37,6.45-1.02c3.72-1.18,6.66-3.22,9.02-6.27c3.93-5.08,4.06-11.02,2.92-17.07
			c-1.2-6.36-3.96-12.76-7.5-18.16c-4.34-6.62-9.63-11.89-16.1-16.42c-1.07,8.22-2.15,16.45-3.22,24.67c3-0.72,6.02-1.29,9.07-1.7
			c-1.2,0.16-2.39,0.32-3.59,0.48c6.6-0.84,13.23-0.93,19.85-0.27c3.24,0.33,7.33-1.74,9.55-3.95c2.34-2.34,4.1-6.18,3.95-9.55
			c-0.16-3.49-1.3-7.11-3.95-9.55c-2.78-2.56-5.79-3.58-9.55-3.95c-10.85-1.09-21.92-0.1-32.51,2.45
			c-5.19,1.25-8.99,6.13-9.67,11.22c-0.76,5.63,1.9,10.27,6.45,13.45c0.62,0.44,1.24,0.89,1.84,1.35c-0.91-0.7-1.82-1.41-2.73-2.11
			c2.85,2.24,5.38,4.81,7.6,7.67c-0.7-0.91-1.41-1.82-2.11-2.73c2.18,2.89,4,6.01,5.44,9.33c-0.45-1.07-0.91-2.15-1.36-3.22
			c1.23,2.96,2.22,6.07,2.69,9.25c-0.16-1.2-0.32-2.39-0.48-3.59c0.08,0.75,0.1,1.47,0.03,2.22c0.16-1.2,0.32-2.39,0.48-3.59
			c-0.04,0.36-0.12,0.7-0.24,1.04c0.45-1.07,0.91-2.15,1.36-3.22c-0.12,0.33-0.27,0.65-0.48,0.94c0.7-0.91,1.41-1.82,2.11-2.73
			c-0.21,0.3-0.47,0.57-0.76,0.79c0.91-0.7,1.82-1.41,2.73-2.11c-0.3,0.23-0.63,0.41-0.97,0.55c1.07-0.45,2.15-0.91,3.22-1.36
			c-0.74,0.26-1.47,0.42-2.24,0.54c1.2-0.16,2.39-0.32,3.59-0.48c-8.26,0.96-16.61,0.63-24.84-0.47c1.2,0.16,2.39,0.32,3.59,0.48
			c-25.69-3.57-49.57-14.44-74.68-20.43c-8.12-1.94-16.32-3.14-24.62-4.06c1.2,0.16,2.39,0.32,3.59,0.48
			c-0.46-0.07-0.85-0.17-1.29-0.33c1.07,0.45,2.15,0.91,3.22,1.36c-0.12-0.07-0.24-0.14-0.36-0.21c0.91,0.7,1.82,1.41,2.73,2.11
			c-0.1-0.09-0.2-0.18-0.3-0.27c0.7,0.91,1.41,1.82,2.11,2.73c-0.08-0.12-0.15-0.23-0.23-0.35c0.45,1.07,0.91,2.15,1.36,3.22
			c-0.05-0.17-0.09-0.34-0.14-0.51c0.16,1.2,0.32,2.39,0.48,3.59c0-0.18,0-0.36,0-0.54c-0.16,1.2-0.32,2.39-0.48,3.59
			c0.19-1.4,0.58-2.74,1.09-4.06c-0.45,1.07-0.91,2.15-1.36,3.22c0.68-1.61,1.55-3.08,2.6-4.47c-0.7,0.91-1.41,1.82-2.11,2.73
			c1.21-1.52,2.58-2.86,4.1-4.07c-0.91,0.7-1.82,1.41-2.73,2.11c1.87-1.42,3.88-2.57,6.03-3.51c-1.07,0.45-2.15,0.91-3.22,1.36
			c2.39-0.99,4.84-1.64,7.4-2.01c-1.2,0.16-2.39,0.32-3.59,0.48c3.71-0.46,7.4-0.36,11.1,0.11c-1.2-0.16-2.39-0.32-3.59-0.48
			c10.78,1.5,21.28,5.45,31.5,9.05c10.23,3.61,20.34,7.56,30.33,11.78c-1.07-0.45-2.15-0.91-3.22-1.36
			c26.21,11.08,51.6,23.96,76.63,37.48c7.12,3.85,14.22,7.75,21.3,11.68c4.8,2.66,10.65,2.3,14.99-1.06
			c4.52-3.49,5.85-8.71,4.84-14.19c-4.28-23.18-16.65-44.93-33.38-61.42c-17.13-16.88-38.94-28.33-62.62-32.5
			c-13.25-2.33-26.98-3.3-39.51-8.56c1.07,0.45,2.15,0.91,3.22,1.36c-3.69-1.59-7.18-3.55-10.39-5.97c0.91,0.7,1.82,1.41,2.73,2.11
			c-4.52-3.5-8.58-7.81-13.65-10.54c-7.96-4.28-16.81-4.62-24.81-0.21c-3.03,1.67-5.67,4.06-8.29,6.3c-1.99,1.71-3.96,3.44-5.91,5.2
			c-4.05,3.67-7.98,7.47-11.8,11.39c-8.15,8.35-15.63,17.26-22.73,26.51c-6.5,8.47-12.83,17.26-17.78,26.74
			c-3.23,6.17-6.09,12.75-7.69,19.54c-0.91,3.84-1.47,7.82-1.69,11.75c-0.22,4.01,0.29,7.91,0.88,11.87
			c0.45,1.07,0.91,2.15,1.36,3.22c0.85,1.57,2.01,2.84,3.48,3.79c2.28,1.76,5.22,3.03,8.18,2.9c5.74-0.26,11.7-3.97,13.02-9.91
			c3.28-14.82,9.22-28.83,14.84-42.88c2.82-7.04,5.57-14.11,7.88-21.33c2.52-7.92,4.24-15.92,5.3-24.16
			c1.19-9.22,0.73-18.35-1.02-27.48c-0.87-4.51-5.17-8.26-9.43-9.43c-4.64-1.28-9.74,0.06-13.13,3.47
			c-9.52,9.56-18.21,19.84-26.35,30.61c-3.78,5.01-7.39,10.14-10.81,15.4c-3.26,5.01-6.3,10.18-9.96,14.92
			c0.7-0.91,1.41-1.82,2.11-2.73c-2.33,2.96-4.89,5.71-7.87,8.03c0.91-0.7,1.82-1.41,2.73-2.11c-2.13,1.59-4.4,2.93-6.85,3.97
			c1.07-0.45,2.15-0.91,3.22-1.36c-1.87,0.75-3.78,1.3-5.77,1.62c1.2-0.16,2.39-0.32,3.59-0.48c-1.78,0.24-3.54,0.27-5.33,0.08
			c1.2,0.16,2.39,0.32,3.59,0.48c-0.6-0.08-1.18-0.18-1.77-0.3c3.14,5.54,6.29,11.07,9.43,16.61c0.33-0.86,0.67-1.72,1.03-2.57
			c-0.45,1.07-0.91,2.15-1.36,3.22c3.73-8.8,8.89-16.84,14.71-24.39c-0.7,0.91-1.41,1.82-2.11,2.73
			c13.33-17.19,29.43-31.98,42.15-49.68c3.4-4.73,6.48-9.67,9.12-14.86c2.22-4.37,2.55-9.27,0-13.63
			c-2.44-4.17-6.87-6.59-11.66-6.69c-11.41-0.22-22.98,0.47-33.34,5.72c-6.04,3.07-10.69,8.03-14.4,13.6
			c-2.99,4.48-5.35,9.29-8.62,13.6c0.7-0.91,1.41-1.82,2.11-2.73c-5.92,7.66-13.1,14.28-19.95,21.08
			c-3.64,3.61-7.27,7.22-10.91,10.83c-3.55,3.52-6.95,7.38-10.83,10.54c0.91-0.7,1.82-1.41,2.73-2.11
			c-0.81,0.61-1.62,1.14-2.54,1.57c1.07-0.45,2.15-0.91,3.22-1.36c-0.55,0.21-1.04,0.37-1.62,0.49c1.2-0.16,2.39-0.32,3.59-0.48
			c-0.59,0.06-1.08,0.06-1.67,0c1.2,0.16,2.39,0.32,3.59,0.48c-0.34-0.06-0.66-0.15-0.98-0.27c1.07,0.45,2.15,0.91,3.22,1.36
			c-0.4-0.18-0.74-0.36-1.1-0.61c0.91,0.7,1.82,1.41,2.73,2.11c-0.33-0.27-0.6-0.53-0.88-0.85c0.7,0.91,1.41,1.82,2.11,2.73
			c-0.34-0.45-0.61-0.91-0.86-1.43c0.45,1.07,0.91,2.15,1.36,3.22c-0.34-0.84-0.55-1.69-0.69-2.59c0.16,1.2,0.32,2.39,0.48,3.59
			c-0.16-1.43-0.12-2.84,0.06-4.27c-0.16,1.2-0.32,2.39-0.48,3.59c0.71-4.68,2.37-9.27,4.18-13.62c-0.45,1.07-0.91,2.15-1.36,3.22
			c3.18-7.49,7.36-14.47,11.82-21.26c4.25-6.47,8.58-12.94,13.3-19.08c-0.7,0.91-1.41,1.82-2.11,2.73
			c3.77-4.86,7.9-9.43,12.76-13.23c-0.91,0.7-1.82,1.41-2.73,2.11c3.05-2.32,6.31-4.27,9.83-5.78c-1.07,0.45-2.15,0.91-3.22,1.36
			c3.63-1.5,7.38-2.5,11.26-3.06c-1.2,0.16-2.39,0.32-3.59,0.48c5.34-0.71,10.71-0.57,16.05,0.11c-1.2-0.16-2.39-0.32-3.59-0.48
			c19.82,2.67,38.03,11.78,56.99,17.62c20.99,6.46,42.84,10.31,64.75,11.77c10.61,0.71,21.29,0.55,31.85,1.94
			c-1.2-0.16-2.39-0.32-3.59-0.48c5.73,0.79,11.37,2.06,16.72,4.27c-1.07-0.45-2.15-0.91-3.22-1.36c3.5,1.49,6.78,3.36,9.81,5.67
			c-0.91-0.7-1.82-1.41-2.73-2.11c8.25,6.46,13.86,15.4,20.68,23.21c7.14,8.18,15.66,14.92,24.22,21.53
			c4.51,3.48,9.07,6.87,13.58,10.35c-0.91-0.7-1.82-1.41-2.73-2.11c8.91,6.9,17.57,14.22,24.53,23.14c-0.7-0.91-1.41-1.82-2.11-2.73
			c0.36,0.46,0.71,0.93,1.06,1.4c7.07-5.45,14.14-10.91,21.2-16.36c-2.33-1.95-4.52-3.63-7.56-4.39c-3.11-0.77-5.82-0.74-8.93-0.12
			c-3.7,0.73-7.63,3.17-10.12,5.96c-3.42,3.83-5.53,8.43-5.74,13.62c-0.17,4.14,1.24,8.67,3.37,12.18
			c3.76,6.2,9.69,10.18,15.38,14.44c4.7,3.52,9.43,6.99,14.32,10.24c5.63,3.73,11.47,7.14,17.62,9.94c2.85,1.3,5.42,2.03,8.61,1.6
			c2.83-0.38,5.76-1.54,7.75-3.71c1.58-1.72,2.75-3.73,3.47-5.96c0.97-3,0.47-7.78-1.36-10.4c-2.18-3.13-4.02-6.45-5.54-9.95
			c0.45,1.07,0.91,2.15,1.36,3.22c-1.88-4.5-3.18-9.18-3.87-14.01c0.16,1.2,0.32,2.39,0.48,3.59c-0.36-2.73-0.53-5.46-0.49-8.21
			c0.08-7.06-6.27-13.82-13.5-13.5C592.85,365.24,586.82,370.83,586.73,378.4L586.73,378.4z"/>
	</g>
</g>
<g>
	<path class="st0" d="M413.6,194.81c20.18,2.14,41.22,5.06,62.91,2.17c2.89,0,7.23,1.45,10.12,2.89
		c14.46,11.57,22.42,25.31,44.11,32.54c17.35,11.57,31.98,23.55,44.11,42.66c8.34,13.14,12.44,27.61,20.25,41.94
		c3.46,6.35,11.57,8.68,15.91,14.46c11.57,14.46,8.68,33.26,14.46,50.62c4.34,8.68,2.89,18.8,8.25,27.78"/>
	<g>
		<path d="M413.6,196.31c12.67,1.34,25.33,2.93,38.07,3.3c6.64,0.19,13.3,0.06,19.92-0.57c1.63-0.15,3.29-0.5,4.92-0.56
			c1.17-0.04,2.37,0.24,3.5,0.53c2.53,0.64,5.06,1.48,7.07,3.16c7.03,5.87,13.11,12.78,20.14,18.65c3.7,3.1,7.65,5.9,11.9,8.2
			c2.33,1.26,4.74,2.37,7.19,3.36c1.31,0.52,2.78,0.87,4.01,1.55c1.27,0.71,2.45,1.65,3.65,2.47c8.67,5.98,16.98,12.5,24.33,20.07
			c7.96,8.19,14.81,17.52,19.98,27.72c2.75,5.41,5.1,11.01,7.5,16.58c2.51,5.83,4.98,11.81,8.2,17.3c2.4,4.11,6.54,6.62,10.32,9.3
			c4.29,3.05,7.4,6.94,9.73,11.65c4.77,9.65,5.3,20.72,7.07,31.16c0.45,2.67,0.98,5.34,1.65,7.97c0.34,1.32,0.7,2.65,1.14,3.94
			c0.47,1.38,1.16,2.66,1.62,4.05c1.77,5.36,2.13,11.06,3.61,16.5c0.76,2.79,1.83,5.49,3.29,7.98c0.97,1.67,3.57,0.16,2.59-1.51
			c-3-5.14-3.84-10.97-4.91-16.73c-0.53-2.85-1.14-5.69-2.18-8.4c-0.47-1.23-1.06-2.4-1.45-3.67c-0.42-1.37-0.79-2.76-1.13-4.15
			c-2.55-10.61-2.73-21.72-6.1-32.14c-1.67-5.16-4.16-9.97-7.61-14.16c-3.09-3.75-7.54-5.92-11.23-8.99
			c-4.41-3.67-6.54-9.31-8.86-14.41c-2.6-5.71-4.96-11.53-7.55-17.24c-4.9-10.81-11.11-20.79-18.89-29.77
			c-7-8.08-15.09-15.09-23.68-21.41c-2.17-1.6-4.38-3.16-6.6-4.68c-1.08-0.74-2.16-1.65-3.33-2.25c-1.23-0.64-2.71-0.96-4-1.47
			c-4.84-1.91-9.43-4.45-13.67-7.47c-7.55-5.38-13.76-12.32-20.56-18.56c-1.79-1.64-3.6-3.39-5.57-4.8c-2-1.43-4.89-2.22-7.26-2.79
			c-1.16-0.28-2.4-0.53-3.6-0.54c-1.64-0.01-3.35,0.37-4.99,0.53c-3.33,0.32-6.67,0.52-10.01,0.61
			c-13.04,0.36-26.05-0.91-38.99-2.32c-3.08-0.33-6.15-0.68-9.23-1C411.69,193.1,411.7,196.11,413.6,196.31L413.6,196.31z"/>
	</g>
</g>
<g>
	<path class="st0" d="M199.88,318.58c-16.17,14.01-25.2,34.91-28.41,56.07s-1.09,42.74,1.95,63.92c1.39,9.72,2.96,19.77,0.32,29.22
		c-2.48,8.84-8.59,17.61-5.86,26.38c1.08,3.48,3.46,6.39,5.84,9.16c17.31,20.21,37.08,38.16,56.79,56.04
		c6.59,5.98,13.18,11.96,19.77,17.94c9.11,8.27,18.32,16.61,29.04,22.63c31.99,17.96,72.2,12.81,106.35,26.23
		c3.1,1.22,6.23,2.61,9.56,2.73c11.82,0.42,17.79-13.74,26.82-21.38c6.76-5.71,15.75-7.84,24.38-9.8
		c19.53-4.43,39.65-8.88,59.41-5.65c6.11,1,12.8,2.63,18.15-0.48c3.41-1.98,5.54-5.52,7.69-8.82
		c10.81-16.65,25.41-30.82,42.39-41.11c5.67-3.44,11.63-6.47,16.69-10.75c7.65-6.46,12.76-15.34,17.93-23.92
		c8.11-13.47,17.07-27.03,30.16-35.72c6.94-4.61,16.22-10.74,13.59-18.64c-0.77-2.31-2.5-4.14-4.08-5.99
		c-8.59-10.06-13.82-22.94-14.67-36.14"/>
	<g>
		<path d="M198.82,317.52c-20.43,17.9-29.01,45.23-30.27,71.65c-0.75,15.72,0.86,31.44,3.02,46.99c1.07,7.72,2.47,15.51,2,23.33
			c-0.45,7.46-3.62,13.79-6.03,20.72c-2.13,6.11-2.76,12.46,0.63,18.24c3.55,6.06,9.09,11.3,13.84,16.42
			c10.4,11.19,21.45,21.75,32.67,32.1c11.54,10.64,23.21,21.14,34.84,31.69c10.56,9.58,21.35,19.16,34.35,25.32
			c24.59,11.65,52.39,11.79,78.62,17.13c6.69,1.36,13.32,3.07,19.75,5.37c5.75,2.06,11.43,5.12,17.68,3.33
			c9.99-2.86,15.04-13.86,22.25-20.42c5.12-4.67,11.74-7.01,18.34-8.72c7.4-1.92,14.93-3.52,22.43-4.98
			c8.01-1.57,16.11-2.79,24.27-3.13c7.84-0.32,15.34,0.6,23.07,1.78c6.19,0.94,12.56,0.95,17.34-3.68c2.14-2.07,3.71-4.65,5.32-7.12
			c1.98-3.04,4.07-6.01,6.3-8.87c8.39-10.8,18.49-20.31,29.8-28c5.94-4.04,12.4-7.26,18.32-11.32c5.47-3.76,9.97-8.47,13.85-13.84
			c8.14-11.25,14.09-23.89,22.97-34.65c4.3-5.21,9.15-10.01,14.73-13.84c4.63-3.17,9.7-6.18,13.03-10.82
			c3.27-4.56,2.98-9.71-0.45-14.11c-4.33-5.53-8.43-10.74-11.31-17.22c-2.85-6.42-4.52-13.35-5.02-20.35c-0.14-1.91-3.14-1.93-3,0
			c0.94,13.12,5.8,25.71,14.07,35.96c1.91,2.36,4.54,4.65,5.05,7.8c0.49,3.01-1.18,5.73-3.14,7.86c-4.08,4.43-9.56,7.19-14.25,10.88
			c-10.2,8.02-17.71,18.86-24.45,29.81c-3.54,5.76-6.85,11.68-10.82,17.17c-4.11,5.68-9.01,10.41-14.94,14.19
			c-5.9,3.76-12.08,7.01-17.82,11.04c-5.15,3.62-10.06,7.6-14.66,11.9c-4.9,4.58-9.45,9.53-13.6,14.8
			c-1.91,2.42-3.74,4.89-5.48,7.43c-1.85,2.71-3.46,5.66-5.63,8.13c-5.2,5.92-12.57,4.45-19.5,3.29c-7.48-1.25-15.03-1.54-22.6-1.05
			c-14.8,0.96-29.57,4.24-43.92,7.87c-6.05,1.53-12.2,3.52-17.32,7.18c-4.42,3.16-7.78,7.42-11.23,11.56
			c-3.21,3.85-6.71,8.22-11.49,10.16c-6.01,2.44-11.8-0.87-17.41-2.88c-25.2-9.05-52.46-8.72-78.22-15.36
			c-13.18-3.4-25.3-8.91-36.17-17.15c-11.86-8.98-22.56-19.58-33.56-29.57c-11.03-10.01-22.11-20-32.82-30.35
			c-5.43-5.25-10.78-10.6-15.96-16.1c-4.88-5.17-10.1-10.38-14.25-16.17c-2.02-2.81-3.36-5.87-3.36-9.38
			c0-3.61,1.19-7.11,2.46-10.45c2.41-6.33,4.92-12.3,5.4-19.14c0.51-7.29-0.66-14.57-1.69-21.77c-1.14-7.98-2.15-15.99-2.78-24.03
			c-2.19-27.64,0.34-56.94,16.39-80.45c3.55-5.2,7.74-9.9,12.47-14.05C202.4,318.37,200.27,316.26,198.82,317.52L198.82,317.52z"/>
	</g>
</g>
<g>
	<path class="st0" d="M194.23,363.76c4.6-3.36,6.05-9.14,7.5-14.93c1.45-23.14-2.89-44.83-1.45-67.97c1.45-4.34,0-10.12,7.23-11.57
		c23.14-4.34,41.94-14.46,61.66-24.56"/>
	<g>
		<path d="M194.99,365.06c4.06-3.05,5.97-7.6,7.29-12.37c0.31-1.13,0.68-2.29,0.89-3.45c0.28-1.54,0.21-3.22,0.26-4.78
			c0.1-3.05,0.11-6.11,0.06-9.16c-0.21-12.21-1.45-24.38-1.87-36.59c-0.11-3.12-0.16-6.23-0.14-9.35c0.01-1.53,0.05-3.07,0.1-4.6
			c0.05-1.4,0.02-2.84,0.35-4.21c0.66-2.74,0.4-6.66,2.86-8.56c1.88-1.46,4.72-1.54,6.96-2.03c2.87-0.63,5.72-1.35,8.54-2.17
			c5.34-1.54,10.59-3.41,15.74-5.5c11.62-4.72,22.74-10.55,33.9-16.26c1.72-0.88,0.2-3.47-1.51-2.59
			c-9.88,5.06-19.73,10.23-29.94,14.61c-5.23,2.24-10.57,4.25-16,5.95c-2.71,0.85-5.44,1.61-8.19,2.29
			c-2.72,0.67-5.58,1.02-8.26,1.82c-3.85,1.16-5.67,4.11-6.31,7.91c-0.27,1.6-0.73,3.24-0.94,4.84c-0.38,3.01-0.28,6.18-0.3,9.22
			c-0.06,12.23,1.13,24.42,1.72,36.62c0.33,6.88,0.47,13.78,0.11,20.67c-0.15,2.86-1.19,5.91-2.24,8.57c-0.98,2.5-2.43,4.9-4.6,6.53
			C191.95,363.61,193.45,366.22,194.99,365.06L194.99,365.06z"/>
	</g>
</g>
<g>
	<g>
		<path class="st0" d="M254.66,266.15c1.93,0,1.93-3,0-3C252.73,263.15,252.73,266.15,254.66,266.15L254.66,266.15z"/>
	</g>
</g>
<g>
	<g>
		<path class="st0" d="M255.96,265.97c5.43-4.26,10.85-8.52,16.28-12.78c4.66-3.66,9.44-8.24,15.46-9.34
			c-0.49-0.84-0.97-1.67-1.46-2.51c-1.26,1.63-2.81,2.95-4.67,3.85c-1.96,0.95-3.95,1.06-6.06,1.35c-2.16,0.29-3.71,1.34-5.22,2.85
			c-0.88,0.88-3.07,3.43-4.55,2.25c0.08,0.61,0.16,1.21,0.23,1.82c2.86-5.36,8.95-7.64,14.35-9.58c-0.49-0.84-0.97-1.67-1.46-2.51
			c-4.61,4.95-11.41,6.95-16.41,11.42c-5.92,5.29-6.36,12.99-7.91,20.26c-1.82,8.54-5.26,16.62-8.78,24.57
			c-3.69,8.35-7.4,16.7-11.1,25.04c-2.11,4.76-4.22,9.51-6.33,14.27c-0.99,2.23-2.06,4.44-2.93,6.72c-0.81,2.12-1.24,4.39-0.51,6.6
			c0.44,1.31,1.97,1.38,2.74,0.36c12.12-15.99,23.99-32.16,35.69-48.46c11.65-16.24,23.12-32.6,34.47-49.04
			c6.42-9.29,12.8-18.6,19.16-27.93c-0.86-0.5-1.73-1.01-2.59-1.51c-16.33,26.73-32.66,53.45-49,80.18
			c-4.6,7.53-9.21,15.07-13.81,22.6c0.86,0.5,1.73,1.01,2.59,1.51c8.81-15.93,18.43-31.39,28.23-46.73
			c2.77-4.34,5.56-8.68,8.35-13.02c0.93-1.45-1.16-3.01-2.36-1.82c-12.57,12.52-22.91,27.23-30.42,43.3
			c-0.81,1.74,1.5,3.14,2.59,1.51c8.67-12.97,18.33-25.26,28.89-36.74c3.03-3.3,6.14-6.53,9.32-9.69c-0.79-0.61-1.57-1.21-2.36-1.82
			c-10.83,14.7-22.25,28.95-34.23,42.72c-3.43,3.94-6.91,7.85-10.44,11.71c0.79,0.61,1.57,1.21,2.36,1.82
			c9.45-17.1,19.66-33.77,30.59-49.95c0.94-1.4-1.25-3.13-2.36-1.82c-10.51,12.46-20.68,25.19-30.52,38.18
			c0.86,0.5,1.73,1.01,2.59,1.51c5.07-7.01,10.14-14.02,15.21-21.04c0.99-1.37-1.3-3.16-2.36-1.82
			c-6.34,8.04-12.68,16.08-19.03,24.12c0.84,0.49,1.67,0.97,2.51,1.46c0.62-4.16,1.84-8.19,3.7-11.96
			c-0.91-0.39-1.83-0.77-2.74-1.16c-3.5,9.22-6.57,18.6-9.21,28.1c0.96,0.27,1.93,0.53,2.89,0.8c2.78-10.66,5.57-21.32,8.35-31.99
			c-0.98-0.13-1.96-0.27-2.95-0.4c0.32,10.36,0.66,21.3-3.79,30.93c0.91,0.12,1.83,0.24,2.74,0.36c-1.14-4.41-0.7-8.95,0.2-13.36
			c0.92-4.52,2.16-8.99,3.47-13.41c2.63-8.84,5.85-17.5,9.63-25.91c-0.91-0.39-1.83-0.77-2.74-1.16c-4.18,12.02-7.52,24.33-10,36.81
			c0.98,0.13,1.96,0.27,2.95,0.4c0.24-2.21,0.48-4.41,0.72-6.62c0.12-1.06,0.23-2.12,0.35-3.19c0.05-0.42,0.03-0.94,0.16-1.35
			c0.04-0.17,0.11-0.32,0.22-0.45c0.38-0.33,0.09-0.38-0.88-0.15c0.35-0.85,0.71-1.71,1.06-2.56c-1.54,0.11-3.08,0.22-4.62,0.33
			c-1.08,0.08-1.94,1.23-1.3,2.26c1.45,2.3,3.23,4.34,5.35,6.05c0.61-0.79,1.21-1.57,1.82-2.36c-1.09-0.73-2.19-1.47-3.28-2.2
			c-0.39,0.91-0.77,1.83-1.16,2.74c1,0.15,1.82,0.44,2.68,0.98c0.25-0.93,0.5-1.86,0.76-2.8c-1.82-0.04-3.56-0.31-5.31-0.8
			c-1.4-0.4-2.59,1.49-1.46,2.51c1.26,1.13,2.63,1.95,4.22,2.54c1.56,0.58,2.29-1.48,1.46-2.51c-0.45-0.57-0.91-1.13-1.36-1.7
			c-0.35,0.85-0.71,1.71-1.06,2.56c2.27,0.19,4.16-1.6,4.76-3.7c0.75-2.62-0.67-5.2-2.01-7.36c-0.3,0.73-0.6,1.47-0.9,2.2
			c1.18-0.18,2.31-0.03,3.43,0.34c-0.35-0.35-0.7-0.7-1.05-1.05c0.31,1.8,1.26,3.42,2.67,4.57c1.48,1.21,3.62-0.9,2.12-2.12
			c-1.07-0.87-1.67-1.89-1.9-3.25c-0.09-0.52-0.58-0.89-1.05-1.05c-1.66-0.55-3.31-0.61-5.02-0.34c-0.96,0.15-1.36,1.45-0.9,2.2
			c0.81,1.3,1.88,2.84,1.8,4.45c-0.05,1.1-0.79,2.19-1.97,2.09c-1.44-0.12-1.79,1.66-1.06,2.56c0.45,0.57,0.91,1.13,1.36,1.7
			c0.49-0.84,0.97-1.67,1.46-2.51c-1.08-0.4-2.04-1-2.89-1.76c-0.49,0.84-0.97,1.67-1.46,2.51c1.99,0.57,4.04,0.87,6.11,0.91
			c1.53,0.03,1.98-2.03,0.76-2.8c-1.04-0.66-2.17-1.1-3.39-1.28c-1.65-0.25-2.64,1.75-1.16,2.74c1.09,0.73,2.19,1.47,3.28,2.2
			c1.39,0.93,3.15-1.28,1.82-2.36c-1.93-1.55-3.56-3.35-4.88-5.45c-0.43,0.75-0.86,1.5-1.3,2.26c1.54-0.11,3.08-0.22,4.62-0.33
			c1.36-0.1,1.9-1.54,1.06-2.56c-0.8-0.98-2.12-0.89-3.04-0.14c-1.02,0.83-1.33,1.99-1.48,3.24c-0.41,3.59-0.79,7.19-1.18,10.79
			c-0.18,1.67,2.62,2.05,2.95,0.4c2.48-12.49,5.82-24.79,10-36.81c0.55-1.58-2.04-2.71-2.74-1.16c-3.96,8.79-7.35,17.83-10.07,27.08
			c-1.35,4.57-2.63,9.19-3.52,13.87c-0.88,4.65-1.22,9.41-0.02,14.04c0.3,1.17,2.19,1.56,2.74,0.36c4.7-10.17,4.54-21.48,4.2-32.44
			c-0.05-1.66-2.51-2.08-2.95-0.4c-2.78,10.66-5.57,21.32-8.35,31.99c-0.49,1.87,2.38,2.66,2.89,0.8c2.64-9.5,5.71-18.88,9.21-28.1
			c0.6-1.58-1.99-2.68-2.74-1.16c-1.97,4.01-3.34,8.25-4,12.68c-0.19,1.27,1.46,2.79,2.51,1.46c6.34-8.04,12.68-16.08,19.03-24.12
			c-0.79-0.61-1.57-1.21-2.36-1.82c-5.07,7.01-10.14,14.02-15.21,21.04c-1.14,1.58,1.45,3.02,2.59,1.51
			c9.69-12.79,19.71-25.31,30.05-37.58c-0.79-0.61-1.57-1.21-2.36-1.82c-10.94,16.18-21.15,32.85-30.59,49.95
			c-0.8,1.45,1.17,3.12,2.36,1.82c12.47-13.68,24.38-27.87,35.69-42.52c3.2-4.14,6.34-8.31,9.45-12.52c1.03-1.4-1.18-2.99-2.36-1.82
			c-11.23,11.19-21.59,23.25-30.96,36.03c-2.65,3.61-5.22,7.29-7.71,11.01c0.86,0.5,1.73,1.01,2.59,1.51
			c7.41-15.86,17.55-30.34,29.95-42.7c-0.79-0.61-1.57-1.21-2.36-1.82c-9.85,15.31-19.7,30.62-28.92,46.32
			c-2.61,4.44-5.17,8.92-7.66,13.43c-0.94,1.69,1.58,3.16,2.59,1.51c16.33-26.73,32.66-53.45,49-80.18
			c4.6-7.53,9.21-15.07,13.81-22.6c1.02-1.67-1.51-3.09-2.59-1.51c-11.3,16.58-22.68,33.11-34.19,49.54
			c-11.47,16.36-23.08,32.63-34.89,48.74c-6.68,9.1-13.42,18.16-20.24,27.15c0.91,0.12,1.83,0.24,2.74,0.36
			c-0.65-1.93,0-3.83,0.76-5.63c0.85-2.03,1.78-4.04,2.68-6.05c1.81-4.08,3.62-8.15,5.42-12.23c3.65-8.23,7.3-16.46,10.95-24.68
			c3.38-7.63,6.81-15.31,8.98-23.39c1.01-3.79,1.54-7.65,2.34-11.48c0.75-3.57,1.88-7.12,4.41-9.84
			c4.99-5.37,12.64-7.25,17.66-12.65c0.95-1.02,0.03-3.04-1.46-2.51c-6.15,2.21-12.89,4.87-16.14,10.96
			c-0.29,0.53-0.29,1.4,0.23,1.82c1.86,1.48,4.18,1.31,6.15,0.08c2.02-1.26,3.24-3.75,5.68-4.27c1.26-0.27,2.58-0.24,3.85-0.48
			c1.19-0.23,2.34-0.63,3.44-1.14c2.2-1.01,4.14-2.57,5.63-4.49c0.92-1.19,0.09-2.79-1.46-2.51c-6.25,1.14-11.18,5.71-16.01,9.5
			c-5.69,4.46-11.37,8.93-17.06,13.39C252.32,265.04,254.46,267.15,255.96,265.97L255.96,265.97z"/>
	</g>
</g>
<g>
	<path class="st0" d="M270.16,242.48c27.03-15.13,53.06-31.04,79.09-49.84c5.78-5.78,4.34-15.91,13.02-17.35
		c10.12-1.45,20.25,2.89,28.92,7.23c20.25,13.02,37.6,27.48,59.3,37.6c8.68,4.34,14.46,11.57,23.14,17.35
		c10.12,5.78,24.59,4.34,31.82,13.02c17.35,14.46,30.37,30.37,50.62,41.94l4.3,4.3c0.02,0.02,0.05,0.04,0.08,0.06
		c8.66,4.33,17.33,8.66,27.1,11.99"/>
	<g>
		<path d="M270.91,243.77c24.88-13.93,49.26-28.78,72.58-45.2c2.59-1.82,5.82-3.52,7.82-6.01c1.37-1.71,2.31-3.65,3.15-5.66
			c1.43-3.45,2.5-8.14,6.35-9.69c2.83-1.14,6.49-0.84,9.45-0.48c3.48,0.43,6.89,1.41,10.17,2.62c3.24,1.19,6.46,2.59,9.51,4.2
			c2.94,1.56,5.69,3.64,8.44,5.5c11.11,7.54,21.93,15.53,33.38,22.57c5.74,3.53,11.65,6.72,17.71,9.65
			c5.7,2.76,10.38,7.08,15.17,11.14c2.49,2.11,5.03,4.21,7.75,6.02c2.21,1.47,4.82,2.42,7.34,3.22c5.05,1.59,10.33,2.38,15.36,4.07
			c2.32,0.78,4.59,1.78,6.57,3.24c1.03,0.76,1.82,1.69,2.72,2.58c1.16,1.15,2.54,2.14,3.77,3.22c4.86,4.24,9.54,8.67,14.24,13.08
			c9.24,8.66,18.69,17.15,29.49,23.84c1.03,0.63,2.27,1.17,3.21,1.89c0.55,0.42,1.02,1.02,1.51,1.51c0.95,0.95,1.88,2.17,3.01,2.94
			c1.1,0.75,2.46,1.25,3.65,1.84c1.62,0.8,3.25,1.6,4.88,2.39c3.13,1.51,6.28,2.96,9.48,4.31c3.14,1.33,6.31,2.56,9.53,3.66
			c1.83,0.63,2.62-2.27,0.8-2.89c-6.72-2.31-13.2-5.19-19.58-8.29c-1.54-0.75-3.08-1.51-4.61-2.27c-0.68-0.34-1.35-0.7-2.04-1.02
			c-1.21-0.56,0.03,0.18-0.51-0.3c-1.21-1.07-2.31-2.31-3.45-3.45c-1.61-1.61-3.86-2.57-5.77-3.79c-2.77-1.77-5.47-3.67-8.1-5.65
			c-5.14-3.88-9.98-8.14-14.71-12.5c-4.7-4.32-9.31-8.75-14.03-13.06c-2.42-2.21-4.87-4.38-7.36-6.5c-2.01-1.7-3.69-3.64-5.97-5.02
			c-4.47-2.69-9.71-3.78-14.73-4.97c-5.6-1.33-10.81-2.82-15.49-6.3c-5.14-3.83-9.68-8.41-14.93-12.11
			c-5.45-3.83-11.8-6.3-17.58-9.6c-11.65-6.65-22.53-14.51-33.54-22.14c-5.61-3.89-11.16-8.07-17.36-10.96
			c-6.12-2.85-12.56-5.26-19.34-5.79c-5.13-0.4-10.5,0.04-13.66,4.56c-2.45,3.51-3.11,7.95-5.46,11.53
			c-1.75,2.67-4.92,4.31-7.48,6.12c-2.99,2.11-6,4.19-9.02,6.25c-5.89,4.01-11.84,7.93-17.84,11.76
			c-12.03,7.68-24.27,15.01-36.66,22.1c-3.1,1.77-6.2,3.53-9.32,5.27C267.71,242.13,269.23,244.72,270.91,243.77L270.91,243.77z"/>
	</g>
</g>
<g>
	<g>
		<path d="M195.84,361.68c-4.88,4.03-10.01,8.49-12.69,14.36c-2.61,5.7-2.21,12,1.17,17.31c3.45,5.43,8.94,9.26,14.62,12.07
			c3.4,1.68,6.96,3.05,10.61,4.07c3.22,0.89,6.64,1.37,9,3.97c1.15,1.26,1.99,2.79,2.85,4.26c0.99,1.7,1.95,3.42,2.87,5.16
			c1.77,3.35,3.41,6.76,4.91,10.24c2.95,6.83,5.29,13.9,7.19,21.09c1.87,7.08,3.6,14.29,7.28,20.7c3.55,6.18,8.47,11.44,11.94,17.68
			c5.99,10.75,8.42,22.98,12.19,34.59c1.83,5.64,3.97,11.23,6.97,16.36c3.11,5.32,7.16,9.76,11.93,13.64
			c4.89,3.98,10.39,7.65,13.9,13.02c3.23,4.94,4.53,10.88,7.83,15.77c1.57,2.33,3.59,4.38,6.11,5.67c3.1,1.58,6.59,2.06,10.02,2.18
			c7.71,0.28,15.51-0.17,23.2-0.79c15.7-1.26,31.29-3.91,46.5-7.96c11.38-3.03,23.85-7.13,31.73-16.42c1.82-2.15,3.34-4.52,4.47-7.1
			c0.77-1.75-1.82-3.28-2.59-1.51c-4.72,10.79-15.88,16.36-26.52,19.84c-14.03,4.6-28.86,7.4-43.51,9.15
			c-7.67,0.92-15.38,1.49-23.11,1.72c-3.66,0.11-7.36,0.24-11.02,0.04c-3.27-0.18-6.61-0.79-9.32-2.73
			c-4.52-3.25-6.26-9.16-8.42-14.03c-1.19-2.69-2.57-5.22-4.39-7.53c-1.93-2.44-4.23-4.55-6.62-6.52
			c-4.77-3.94-9.86-7.49-13.78-12.34c-3.61-4.46-6.23-9.69-8.3-15.02c-4.29-11.09-6.5-22.88-11.04-33.88
			c-2.46-5.97-5.71-11.29-9.53-16.48c-2.12-2.88-4.27-5.74-6.05-8.85c-1.8-3.14-3.13-6.51-4.21-9.96
			c-2.18-6.91-3.66-14.01-6.01-20.88c-2.34-6.85-5.2-13.54-8.53-19.98c-1.63-3.15-3.29-6.37-5.3-9.29c-1.96-2.84-4.46-4.61-7.77-5.6
			c-3.41-1.03-6.83-1.81-10.15-3.13c-3.22-1.29-6.36-2.87-9.25-4.8c-4.85-3.24-9.55-7.96-10.5-13.96
			c-0.97-6.12,2.57-11.58,6.62-15.8c2.13-2.22,4.46-4.22,6.82-6.18C199.46,362.57,197.32,360.46,195.84,361.68L195.84,361.68z"/>
	</g>
</g>
<g>
	<g>
		<path d="M228.77,425.97c3.01-16.24,8.2-31.88,13.41-47.52c2.57-7.73,5.1-15.48,7.3-23.33c2.12-7.57,3.71-15.24,5.44-22.91
			c1.52-6.76,3.28-13.59,6.57-19.73c3.32-6.2,8.19-11.08,14.4-14.36c12.14-6.4,26.38-6.98,38.99-12.16
			c13.76-5.65,23.62-16.87,32.66-28.26c4.54-5.72,8.82-12.06,14.56-16.66c3.17-2.54,6.86-4.22,10.92-4.66
			c4.14-0.45,8.37-0.06,12.51,0.22c7.54,0.51,15.11,1.34,22.4,3.43c7.45,2.13,13.94,5.73,19.78,10.81
			c5.27,4.59,10.41,9.72,17.21,11.92c6.93,2.24,15.3,0.86,21.39,5.44c3.07,2.31,5.13,5.68,7.42,8.7c2.16,2.85,4.59,5.47,7.32,7.8
			c5.33,4.53,11.5,7.93,18.05,10.37c15.1,5.63,31.02,5.45,46.79,3.46c4.21-0.53,8.42-1.11,12.64-1.62c1.89-0.23,1.92-3.23,0-3
			c-8.5,1.02-16.98,2.41-25.53,2.87c-8.17,0.44-16.38-0.08-24.35-1.97c-7.21-1.7-14.19-4.44-20.42-8.49
			c-3.05-1.99-5.89-4.29-8.42-6.91c-2.59-2.67-4.63-5.72-6.9-8.64c-2.26-2.92-4.84-5.48-8.27-6.98c-3.35-1.47-6.98-1.91-10.58-2.35
			c-3.78-0.47-7.59-0.97-11.05-2.67c-3.27-1.6-6.13-3.88-8.86-6.26c-5.63-4.89-10.99-9.67-17.92-12.69
			c-6.95-3.02-14.38-4.53-21.87-5.43c-3.83-0.46-7.69-0.74-11.54-0.96c-4.2-0.24-8.46-0.48-12.61,0.38
			c-7.43,1.55-12.99,7.11-17.63,12.77c-9.46,11.52-18.05,24.42-30.88,32.53c-12.12,7.66-26.67,8.54-39.92,13.24
			c-6.28,2.23-12.28,5.42-16.92,10.29c-4.77,5.03-7.81,11.35-9.94,17.89c-2.22,6.83-3.5,13.9-5.07,20.9
			c-1.84,8.2-4.14,16.29-6.67,24.3c-4.92,15.6-10.62,30.96-14.57,46.86c-1.03,4.17-1.94,8.36-2.73,12.59
			C225.53,427.06,228.42,427.87,228.77,425.97L228.77,425.97z"/>
	</g>
</g>
<g>
	<g>
		<path d="M399.63,582.27c2.99,4.3,7.89,6.2,12.77,7.51c5.88,1.58,12,3.16,18.14,2.68c5.99-0.47,11.65-2.51,17.38-4.14
			c5.9-1.68,11.73-2.49,17.86-1.71c7.18,0.9,14.07,3.42,20.83,5.87c1.82,0.66,2.6-2.24,0.8-2.89c-11.49-4.16-23.31-8-35.61-5.34
			c-5.58,1.2-10.93,3.3-16.51,4.5c-2.92,0.63-5.87,0.95-8.85,0.77c-3.16-0.19-6.26-0.87-9.32-1.62c-5.18-1.26-11.63-2.43-14.89-7.12
			C401.13,579.18,398.53,580.68,399.63,582.27L399.63,582.27z"/>
	</g>
</g>
<g>
	<g>
		<path d="M244.68,363.78c2.19,6.31,3.9,12.76,5.7,19.19c1.64,5.84,3.26,11.74,6.03,17.17c2.42,4.75,5.64,9.2,9.68,12.71
			c1.97,1.71,4.11,3.11,6.36,4.43c2.35,1.37,4.63,2.85,3.67,5.88c-0.92,2.92-1.85,5.58-1.96,8.69c-0.1,2.95,0.37,5.92,1.16,8.76
			c1.65,5.92,4.65,11.39,7.81,16.62c7.23,11.97,14.65,23.83,21.98,35.73c6.4,10.4,12.36,21.57,23.3,27.84
			c5.23,3,11.01,4.94,16.81,6.52c6.48,1.76,13.06,3.2,19.68,4.36c13.22,2.33,26.63,3.53,40.05,3.56c3.41,0.01,6.82-0.06,10.23-0.2
			c3.25-0.14,6.59-0.18,9.8-0.75c5.83-1.03,8.87-6.08,13.75-8.84c9.24-5.23,20.9-3.92,29.76-10.12c8.63-6.05,11.6-16.62,15.37-25.9
			c4.22-10.39,11.01-19.49,20.25-25.94c8.1-5.65,19.67-8.65,24.29-18.19c2.67-5.51,2.31-11.72,1.27-17.59
			c-1.19-6.68-2.9-13.29-4.4-19.9c-2.99-13.24-5.74-26.57-9.13-39.72c-1.65-6.42-3.55-12.78-5.99-18.95
			c-2.26-5.71-4.86-11.4-8.59-16.32c-3.55-4.68-8.11-8.17-13.07-11.24c-5-3.09-10.26-5.83-14.8-9.61
			c-8.83-7.35-15.01-17.23-23.11-25.3c-8.25-8.22-18.68-13.62-30.28-15.13c-11.18-1.45-22.09,1.18-32.09,6.14
			c-10,4.96-18.9,11.79-28.13,17.99c-4.57,3.07-9.25,6.02-14.16,8.52c-4.85,2.46-9.94,4.41-14.9,6.63
			c-4.91,2.2-9.73,4.71-13.85,8.21c-4.14,3.51-7.17,8.01-9.11,13.06c-1.99,5.18-2.79,10.77-3.16,16.28c-0.4,5.93-0.61,12.07-0.12,18
			c0.25,3.1,0.84,6.13,2.05,9.01c1.1,2.63,2.57,5.07,4.07,7.49c3.12,5.04,5.98,9.96,6,16.07c0.03,12.4-7.91,23.39-7.07,35.94
			c0.35,5.23,2.34,10.18,6.27,13.74c3.56,3.23,8.02,5.11,12.39,6.95c4.58,1.93,9.32,3.87,12.94,7.37c2.15,2.08,3.93,4.51,5.93,6.73
			c1.97,2.18,4.21,4.04,6.65,5.67c5.43,3.63,11.4,6.53,17.12,9.68c6.18,3.4,12.36,6.8,18.54,10.19c5.59,3.07,11.28,6.37,17.7,7.25
			c5.82,0.8,11.61-0.43,16.97-2.7c5.62-2.38,10.73-5.77,15.63-9.38c4.82-3.54,9.56-7.2,14.21-10.95
			c9.11-7.35,17.81-15.33,24.8-24.76c7.13-9.62,11.9-20.69,14.44-32.37c2.55-11.7,3.06-23.75,2.67-35.68
			c-0.2-6.16-0.65-12.32-1.2-18.46c-0.27-3.05-0.57-6.1-0.89-9.15c-0.26-2.58-0.24-5.6-1.78-7.81c-1.63-2.33-4.42-2.76-6.97-3.45
			c-2.62-0.71-5.18-1.62-7.65-2.74c-5.05-2.29-9.75-5.3-14.16-8.65c-9.02-6.84-16.86-15.07-25.28-22.59
			c-4.31-3.85-9.07-7.67-14.85-8.91c-6.38-1.37-12.9,0.37-19.08,1.92c-9.78,2.45-19.86,5.34-28.32,11.02
			c-4.1,2.75-7.74,6.17-10.44,10.32c-1.37,2.11-2.19,4.77-3.92,6.61c-1.98,2.12-5.23,1.53-7.84,1.83
			c-10.17,1.17-17.17,9.56-22.19,17.76c-2.91,4.75-5.39,9.76-8.07,14.64c-3.08,5.59-6.21,11.16-9.2,16.81
			c-0.9,1.71,1.69,3.22,2.59,1.51c2.99-5.65,6.12-11.21,9.2-16.81c2.72-4.94,5.22-10.01,8.18-14.82c2.57-4.18,5.52-8.21,9.3-11.38
			c1.78-1.49,3.8-2.78,5.97-3.62c2.37-0.92,4.73-1.16,7.25-1.28c2.57-0.12,5.1-0.57,6.94-2.53c1.68-1.78,2.52-4.14,3.76-6.22
			c2.48-4.15,6-7.57,10-10.25c8.26-5.55,18.06-8.33,27.61-10.72c6.09-1.53,12.67-3.4,18.9-1.56c5.46,1.62,9.82,5.67,13.93,9.42
			c8.1,7.39,15.81,15.23,24.6,21.81c4.26,3.19,8.78,6.05,13.63,8.25c2.44,1.1,4.95,2.06,7.52,2.8c2.45,0.71,5.77,0.82,6.7,3.64
			c0.85,2.57,0.78,5.64,1.05,8.32c0.29,2.98,0.57,5.96,0.82,8.94c0.49,5.9,0.86,11.82,0.99,17.74c0.26,11.65-0.39,23.4-3.15,34.75
			c-2.75,11.33-7.72,21.9-14.93,31.09c-7.12,9.08-15.85,16.75-24.86,23.9c-4.5,3.57-9.05,7.11-13.73,10.44
			c-4.89,3.48-10.07,6.77-15.77,8.74c-5.6,1.94-11.46,2.36-17.16,0.56c-6.1-1.92-11.67-5.53-17.24-8.59
			c-6.02-3.31-12.03-6.62-18.05-9.92c-5.36-2.95-11.21-5.62-15.89-9.63c-4.26-3.64-7.09-8.62-11.66-11.93
			c-3.84-2.79-8.35-4.45-12.68-6.31c-4.18-1.8-8.51-3.82-11.49-7.38c-3.55-4.23-4.15-9.91-3.57-15.22c1.29-11.85,8.65-22.78,6.54-35
			c-0.97-5.64-4.33-10.33-7.2-15.13c-1.41-2.36-2.73-4.78-3.51-7.43c-0.88-2.99-1.11-6.1-1.17-9.2c-0.2-10.78-0.41-22.87,4.6-32.72
			c5.01-9.85,15.03-14.44,24.72-18.56c4.82-2.05,9.6-4.12,14.17-6.69c4.75-2.68,9.3-5.71,13.79-8.8
			c8.77-6.03,17.43-12.43,27.15-16.85c10.12-4.61,21.23-6.35,32.17-3.91c5.52,1.23,10.79,3.39,15.55,6.43
			c4.7,3.01,8.71,6.91,12.41,11.06c7.39,8.29,13.77,17.58,22.95,24.08c4.61,3.26,9.67,5.83,14.37,8.96
			c4.92,3.28,8.96,7.29,12.05,12.35c6.52,10.69,9.91,23.25,12.83,35.32c3.15,13.03,5.96,26.14,8.91,39.21
			c1.4,6.21,3.2,12.49,3.93,18.83c0.65,5.68,0.06,11.54-3.87,15.99c-3.24,3.67-7.7,5.98-11.96,8.24c-4.72,2.51-9.23,5.19-13.33,8.66
			c-4.12,3.49-7.74,7.56-10.76,12.02c-2.95,4.35-5.11,9.08-7.03,13.95c-3.59,9.13-6.9,19.49-16.34,24.17
			c-9.2,4.56-20.48,3.52-28.98,9.79c-2.12,1.56-3.87,3.58-6.02,5.11c-2.52,1.8-5.37,2.12-8.39,2.32
			c-6.63,0.44-13.28,0.58-19.92,0.44c-13.15-0.28-26.27-1.67-39.18-4.19c-6.28-1.23-12.55-2.65-18.68-4.5
			c-5.5-1.66-10.91-3.79-15.67-7.05c-4.96-3.4-8.73-8.13-12.01-13.11c-3.54-5.37-6.81-10.94-10.19-16.42
			c-3.56-5.79-7.13-11.59-10.69-17.38c-3.48-5.66-7.1-11.25-10.38-17.03c-2.94-5.17-5.66-10.73-6.48-16.69
			c-0.4-2.89-0.28-5.84,0.52-8.65c0.75-2.62,2.24-5.1,1.06-7.84c-0.93-2.16-3.02-3.51-4.98-4.65c-2.28-1.33-4.44-2.74-6.39-4.53
			c-3.89-3.56-6.89-7.96-9.15-12.7c-2.47-5.17-3.9-10.8-5.44-16.3c-1.7-6.09-3.34-12.2-5.42-18.17
			C246.94,361.17,244.04,361.95,244.68,363.78L244.68,363.78z"/>
	</g>
</g>
<g>
	<g>
		<path d="M279.16,418.68c1-9,1.47-18.05,1.38-27.1c-0.02-2.04-0.29-4.25,0.26-6.25c0.53-1.92,2.02-3.36,3.36-4.76
			c2.91-3.03,5.93-5.96,9.05-8.77c3.54-3.19,7.21-6.22,11.01-9.1c1.52-1.15,0.03-3.76-1.51-2.59c-7.05,5.34-13.71,11.17-19.87,17.52
			c-1.4,1.44-2.91,2.89-3.95,4.64c-1.09,1.83-1.38,3.89-1.39,5.99c-0.02,4.73,0.08,9.45-0.1,14.18c-0.21,5.43-0.62,10.85-1.23,16.24
			C275.94,420.6,278.94,420.58,279.16,418.68L279.16,418.68z"/>
	</g>
</g>
<g>
	<g>
		<path d="M349.59,471.56c-1.41,6.54,1,13.51,6.32,17.62c2.86,2.21,6.23,3.53,9.5,5.02c3.21,1.47,6.19,3.29,8.98,5.46
			c5.43,4.23,10.19,9.26,15.85,13.21c6.45,4.51,13.99,6.37,21.45,8.52c2.03,0.59,4.09,1.11,6.06,1.88c1.8,0.71,3.55,1.55,5.32,2.33
			c3.46,1.53,7.21,3.09,11.08,2.7c1.9-0.19,1.92-3.19,0-3c-3.21,0.32-6.3-0.87-9.19-2.12c-3.02-1.31-5.97-2.79-9.14-3.72
			c-7.25-2.11-15.07-3.64-21.61-7.58c-5.52-3.33-10.07-7.95-14.95-12.1c-2.48-2.11-5.06-4.14-7.85-5.84
			c-2.94-1.79-6.15-2.99-9.23-4.49c-3.37-1.64-6.38-3.72-8.21-7.08c-1.66-3.04-2.2-6.63-1.47-10.02
			C352.89,470.48,350,469.68,349.59,471.56L349.59,471.56z"/>
	</g>
</g>
<g>
	<g>
		<path d="M450.04,288.05c1.26-1.77,3.42-2.48,5.45-2.9c2.68-0.55,5.48-0.66,8.21-0.81c6.09-0.33,12.2-0.19,18.27,0.38
			c1.92,0.18,1.91-2.82,0-3c-6.72-0.63-13.48-0.73-20.22-0.26c-5.04,0.35-11.1,0.55-14.31,5.08
			C446.33,288.12,448.93,289.62,450.04,288.05L450.04,288.05z"/>
	</g>
</g>
<g>
	<g>
		<path d="M317.92,400.3c0.12,3.9,0.18,7.81,0.29,11.71c0.09,3.6,0.02,7.3,0.54,10.86c0.33,2.27,1.14,4.44,2.65,6.19
			c1.67,1.93,4.14,3.06,6.58,3.66c3.41,0.85,6.94,0.65,10.41,0.88c3.07,0.2,6.17,0.83,8.39,3.11c1.79,1.84,2.84,4.28,3.99,6.53
			c1.21,2.37,2.59,4.62,4.22,6.73c13.32,17.27,37.25,20,57.46,21.39c16.37,1.13,32.79-0.51,49.16,0.54c1.93,0.12,1.92-2.88,0-3
			c-14.38-0.92-28.78,0.27-43.17-0.22c-10.62-0.36-21.45-1.3-31.81-3.75c-9.82-2.33-19.55-6.34-26.66-13.74
			c-1.79-1.87-3.38-3.91-4.74-6.11c-1.38-2.22-2.42-4.62-3.71-6.89c-1.23-2.15-2.78-4.12-4.91-5.44c-2.72-1.68-6.01-2.06-9.14-2.2
			c-5.63-0.26-13.61,0.12-15.46-6.64c-0.41-1.5-0.47-3.03-0.55-4.58c-0.1-2.11-0.17-4.23-0.23-6.34c-0.12-4.23-0.19-8.46-0.31-12.68
			C320.86,398.37,317.86,398.36,317.92,400.3L317.92,400.3z"/>
	</g>
</g>
<g>
	<g>
		<path d="M452.79,469.72c3.73-6.7,7.6-13.32,11.24-20.06c1.91-3.53,3.6-7.17,4.56-11.08c0.97-3.92,1.35-7.97,1.62-11.99
			c0.57-8.79,1.01-17.6,1.52-26.4c0.47-8.18,1.45-16.68-1.08-24.64c-4.25-13.38-16.02-22.74-27.68-29.59
			c-13.6-7.99-28.73-13.46-44.31-15.95c-7.97-1.28-16.25-1.86-24.15,0.22c-3.95,1.04-7.66,2.81-11.21,4.79
			c-3.3,1.84-6.62,3.75-9.72,5.92c-2.96,2.07-5.64,4.51-7.47,7.65c-1.99,3.42-3.02,7.35-3.97,11.16c-2,8.04-3.2,16.35-3.07,24.65
			c0.23,14.44,4.86,28.9,15,39.45c4.73,4.93,10.41,8.5,16.8,10.84c3.73,1.37,7.27,2.77,10.63,4.92c3,1.92,5.82,4.1,8.77,6.08
			c2.92,1.96,6,3.71,9.35,4.79c3.58,1.15,7.42,1.5,11.16,1.18c7.68-0.66,14.88-3.66,21.89-6.66c3.68-1.57,7.34-3.18,11.1-4.54
			c3.49-1.26,7.06-2.34,10.35-4.08c5.79-3.06,10.42-8.38,13.13-14.3c1.34-2.93,2.3-5.99,3.04-9.12c0.44-1.88-2.45-2.68-2.89-0.8
			c-1.41,5.96-3.67,11.71-7.9,16.25c-2.3,2.46-4.96,4.5-8,5.95c-3.26,1.55-6.76,2.53-10.13,3.81c-6.98,2.66-13.69,6.05-20.81,8.35
			c-6.85,2.21-14.16,3.28-21.08,0.75c-6.43-2.35-11.55-7.23-17.31-10.77c-6.05-3.72-13.14-5.02-19.08-8.96
			c-10.82-7.18-17.52-19.35-19.9-31.9c-1.5-7.87-1.41-16.05-0.31-23.97c0.55-3.97,1.35-7.91,2.34-11.8c0.92-3.62,1.9-7.33,3.94-10.5
			c1.89-2.94,4.73-5.1,7.64-6.97c3.12-2.01,6.34-3.92,9.62-5.66c3.46-1.84,7.06-3.3,10.91-4.09c3.86-0.79,7.83-0.92,11.75-0.72
			c7.64,0.39,15.28,1.95,22.63,4c7.2,2.01,14.23,4.65,20.96,7.92c12.02,5.84,24.7,13.61,31.79,25.32c1.67,2.75,2.97,5.7,3.78,8.82
			c0.99,3.83,1.14,7.79,1.04,11.73c-0.22,8.39-0.9,16.78-1.38,25.15c-0.45,7.88-0.32,16.12-2.42,23.78
			c-1.03,3.79-2.8,7.26-4.69,10.68c-1.77,3.22-3.58,6.42-5.39,9.61c-1.74,3.08-3.48,6.16-5.2,9.25
			C449.26,469.89,451.85,471.41,452.79,469.72L452.79,469.72z"/>
	</g>
</g>
<g>
	<g>
		<path d="M349.2,441.1c1.35,1.41,2.04,3.01,2.84,4.75c0.63,1.38,1.51,2.26,2.91,2.87c1.8,0.79,3.78,0.9,5.72,1.04
			c2.39,0.17,4.77,0.34,7.16,0.51c2.27,0.16,4.56,0.42,6.84,0.41c1.78,0,3.85-0.11,5.42-1.04c2.54-1.51,4.38-4.92,4.9-7.76
			c0.34-1.89-2.55-2.7-2.89-0.8c-0.38,2.1-1.75,5.25-3.86,6.14c-1.6,0.67-3.66,0.5-5.35,0.4c-2.01-0.11-4.02-0.28-6.03-0.43
			c-2.06-0.15-4.11-0.29-6.17-0.44c-1.62-0.12-3.51-0.12-4.94-0.98c-0.9-0.53-1.17-1.63-1.57-2.54c-0.7-1.59-1.62-3-2.82-4.26
			C349.98,437.58,347.86,439.7,349.2,441.1L349.2,441.1z"/>
	</g>
</g>
<g>
	<g>
		<path d="M356.72,421.19c-2.66-8.77,1.32-17.68,4.02-25.93c2.65-8.11,4.56-17.04,2.39-25.49c-0.27-1.05-0.61-2.09-1.01-3.1
			c-0.34-0.85-1.27-2.25-0.94-3.19c0.28-0.77,1.35-1.22,2.01-1.6c1.09-0.62,2.19-1.23,3.3-1.81c4.05-2.13,8.23-4,12.45-5.76
			c4.33-1.8,8.69-3.58,13.09-5.17c4.09-1.48,8.17-2.44,12.53-2.38c7.76,0.1,16.81,2.22,23.13-3.62c1.42-1.31-0.7-3.43-2.12-2.12
			c-5.54,5.12-14.43,2.8-21.19,2.74c-4.39-0.04-8.58,0.87-12.7,2.34c-4.49,1.6-8.91,3.42-13.31,5.24
			c-4.32,1.79-8.61,3.67-12.76,5.82c-1.96,1.01-4.18,1.98-5.87,3.43c-1.69,1.44-1.87,3.46-1.1,5.45c0.79,2.06,1.58,4.03,1.99,6.22
			c0.4,2.14,0.5,4.34,0.43,6.52c-0.16,4.54-1.16,9.02-2.46,13.36c-2.88,9.62-7.84,19.65-4.75,29.85
			C354.39,423.83,357.29,423.05,356.72,421.19L356.72,421.19z"/>
	</g>
</g>
<g>
	<g>
		<path d="M412.13,348.02c14.61,5.36,27.49,15.33,36.45,28.04c2.23,3.17,4.23,6.5,5.96,9.97c1.61,3.23,3.07,6.78,2.87,10.47
			c-0.08,1.55-0.58,3.1-1.66,4.24c-1.38,1.46-3.28,2.25-4.58,3.84c-2.27,2.78-3.06,6.34-3.27,9.85c-0.23,4.03,0.45,8.04,0.29,12.07
			c-0.15,3.75-0.99,7.99-4.31,10.23c-1.59,1.08-0.09,3.68,1.51,2.59c6.79-4.59,5.85-13.44,5.51-20.57
			c-0.17-3.59-0.18-7.61,1.61-10.85c1.06-1.92,2.69-2.86,4.38-4.17c1.46-1.14,2.49-2.66,3.05-4.43c1.14-3.61,0.22-7.69-1.13-11.11
			c-1.47-3.72-3.47-7.27-5.61-10.64c-4.44-6.96-9.96-13.25-16.29-18.55c-7.14-5.97-15.23-10.67-23.97-13.88
			C411.12,344.46,410.33,347.36,412.13,348.02L412.13,348.02z"/>
	</g>
</g>
<g>
	<g>
		<path d="M358.21,395.06c4.39,9,8.54,18.17,13.24,27.01c2.06,3.87,4.54,7.54,8.05,10.24c3.59,2.76,7.91,4.56,12.17,5.99
			c8.67,2.91,18.03,3.89,27.11,2.88c4.55-0.51,9.04-1.46,13.37-2.94c3-1.03,5.48-2.53,7.89-4.58c2.82-2.39,5.36-5.2,7.37-8.31
			c1.68-2.6,3.16-5.7,2.63-8.86c-0.32-1.9-3.21-1.09-2.89,0.8c0.37,2.19-1.12,4.66-2.24,6.42c-1.67,2.61-3.77,4.94-6.06,7.01
			c-1.91,1.73-4.02,3.37-6.46,4.26c-4.04,1.46-8.25,2.5-12.52,3.07c-8.46,1.11-17.14,0.44-25.31-1.99
			c-4.08-1.21-8.19-2.78-11.78-5.1c-3.52-2.27-6.01-5.53-8.04-9.14c-2.46-4.37-4.52-8.99-6.72-13.49
			c-2.41-4.93-4.81-9.86-7.22-14.79C359.96,391.81,357.37,393.33,358.21,395.06L358.21,395.06z"/>
	</g>
</g>
<g>
	<g>
		<path d="M373.42,354.16c-1.85,9.02-4.08,18.07-5.33,27.2c-0.59,4.33-0.6,8.6-0.45,12.96c0.15,4.35,0.22,8.71-1.27,12.87
			c-0.65,1.82,2.25,2.61,2.89,0.8c1.46-4.1,1.54-8.46,1.41-12.76c-0.14-4.36-0.26-8.65,0.3-12.99c0.58-4.5,1.59-8.94,2.5-13.39
			c0.95-4.63,1.89-9.26,2.84-13.89C376.7,353.07,373.81,352.27,373.42,354.16L373.42,354.16z"/>
	</g>
</g>
<g>
	<g>
		<path d="M374.38,366.4c8.04-2.24,16.05-4.74,24.16-6.69c3.79-0.91,7.83-1.55,11.67-0.57c3.48,0.88,6.35,3.07,8.89,5.53
			c2.84,2.74,5.45,5.74,8.13,8.63c2.81,3.04,5.64,6.06,8.44,9.12c4.54,4.97,9.69,11.48,6.58,18.5c-0.76,1.72-1.57,3.39-2.23,5.16
			c-0.58,1.54-1.24,2.98-2.49,4.1c-2.3,2.05-5.64,2.64-8.61,2.84c-3.82,0.25-7.77,0.04-11.45,1.29c-3.37,1.14-6.16,3.32-9.05,5.33
			c-2.73,1.89-5.74,3.63-9.17,3.62c-3.73-0.01-5.49-2.62-6.89-5.74c-1.67-3.75-3.31-7.51-4.96-11.26
			c-1.59-3.61-3.16-7.26-3.98-11.12c-0.71-3.33-0.74-6.8,0.3-10.06c1.08-3.38,3.3-5.52,6.13-7.49c2.69-1.88,4.83-3.91,6.2-6.92
			c1.19-2.63,1.86-5.48,3.19-8.05c0.66-1.27,1.46-2.37,2.57-3.29c1.48-1.24-0.65-3.35-2.12-2.12c-5.04,4.22-4.36,11.89-9.21,16.18
			c-1.43,1.26-3.11,2.23-4.6,3.41c-1.36,1.08-2.52,2.39-3.43,3.88c-1.85,3.04-2.61,6.72-2.53,10.25c0.09,4.08,1.27,8.06,2.76,11.83
			c1.62,4.1,3.49,8.11,5.27,12.15c1.51,3.44,2.76,7.65,6.01,9.87c2.83,1.93,6.6,1.8,9.74,0.78c3.63-1.17,6.54-3.59,9.66-5.69
			c1.54-1.04,3.15-2.03,4.92-2.63c2.04-0.69,4.17-0.89,6.31-0.99c3.73-0.18,7.56-0.13,11.1-1.53c3.39-1.34,5.61-3.65,6.94-7.03
			c1.4-3.55,3.61-7.09,3.66-11.01c0.05-3.74-1.59-7.31-3.65-10.35c-2.25-3.33-5.05-6.22-7.77-9.16c-3.12-3.37-6.24-6.74-9.36-10.11
			c-2.61-2.82-5.2-5.67-8.36-7.89c-3.32-2.33-7.19-3.51-11.24-3.48c-4.24,0.04-8.39,1.17-12.44,2.3c-4.39,1.23-8.78,2.45-13.17,3.68
			c-2.24,0.62-4.47,1.25-6.71,1.87C371.73,364.02,372.52,366.92,374.38,366.4L374.38,366.4z"/>
	</g>
</g>
<g>
	<g>
		<path d="M393.79,369.93c2.08,3.06,5.82,4.44,9.23,5.45c3.48,1.03,7.27,1.41,10.6,2.92c7.66,3.48,12.3,11.28,16.12,18.4
			c0.5,0.93,1.04,1.86,1.47,2.82c0.5,1.12,0.64,2.07-0.71,2.45c-1.09,0.31-2.3,0.25-3.43,0.32c-1.46,0.08-2.93,0.17-4.39,0.25
			c-2.77,0.16-5.53,0.32-8.3,0.48c-2.64,0.15-5.33,0.47-7.97,0.38c-4.52-0.17-6.34-3.93-7.22-7.86c-0.67-3-2.24-9.28,1.62-10.73
			c2.48-0.93,5.05,0.37,7.14,1.63c2.04,1.23,4.51,2.55,5.73,4.7c0.97,1.7,1.16,3.93,1.22,5.84c0.07,2.02,0.02,4.31-0.87,6.17
			c-0.83,1.73,1.76,3.26,2.59,1.51c1.82-3.81,1.7-9.01,0.5-12.99c-0.71-2.36-2.23-4.1-4.19-5.55c-2.14-1.59-4.53-3.14-7.05-4.03
			c-2.3-0.81-5.03-0.86-7.18,0.41c-2.19,1.29-3.13,3.64-3.29,6.08c-0.15,2.34,0.28,4.8,0.73,7.09c0.43,2.17,1.09,4.39,2.28,6.27
			c1.19,1.88,2.89,3.34,5.03,4.02c2.83,0.89,6.06,0.35,8.96,0.18c3.25-0.19,6.51-0.37,9.76-0.56c1.63-0.09,3.25-0.19,4.88-0.28
			c1.34-0.08,2.74-0.07,4.06-0.38c2.65-0.62,4.02-2.94,3.21-5.56c-0.72-2.35-2.24-4.62-3.44-6.74c-2.4-4.24-5.13-8.41-8.62-11.83
			c-1.84-1.8-3.92-3.41-6.2-4.59c-2.27-1.18-4.66-1.82-7.13-2.39c-2.38-0.55-4.76-1.1-7.06-1.92c-1.97-0.7-4.28-1.65-5.5-3.45
			C395.3,366.83,392.7,368.32,393.79,369.93L393.79,369.93z"/>
	</g>
</g>
<g>
	<g>
		<path d="M413.35,388.09c-3.95-0.1-7.4,2.59-9.22,5.95c-0.81,1.51-1.49,3.28-1.81,4.97c-0.31,1.62-0.16,3.24-0.05,4.87
			c0.05,0.81,0.65,1.5,1.5,1.5c0.77,0,1.55-0.69,1.5-1.5c-0.05-0.84-0.12-1.68-0.14-2.52c-0.01-0.28-0.01-0.56,0.01-0.84
			c0.01-0.14,0.02-0.28,0.03-0.42c0.02-0.18-0.04,0.21,0.01-0.08c0.24-1.38,0.74-2.84,1.36-4.09c1.29-2.62,3.74-4.91,6.82-4.83
			C415.28,391.14,415.28,388.14,413.35,388.09L413.35,388.09z"/>
	</g>
</g>
<g>
	<g>
		<path d="M385.67,536.15c12.65,7.44,25.3,14.88,37.95,22.33c2.91,1.71,5.79,3.65,9,4.76c3.24,1.12,6.67,0.86,10.01,0.46
			c6.74-0.81,13.51-1.65,20.15-3.13c6.61-1.48,12.98-3.71,18.94-6.94c5.97-3.23,11.49-7.22,17.01-11.15
			c11.97-8.54,23.95-17.07,35.92-25.61c5.19-3.7,10.87-7.21,15.03-12.12c4.12-4.86,5.85-10.84,7.51-16.87
			c1.77-6.44,4.26-12.61,6.27-18.97c2.09-6.6,3.19-13.3,2.91-20.23c-0.29-7.1-1.66-14.09-3.02-21.05
			c-1.38-7.07-2.6-14.16-3.46-21.32c-1.7-14.16-2.25-28.46-1.64-42.71c0.31-7.19,0.94-14.35,1.78-21.5
			c0.85-7.19,1.82-14.37,2.24-21.6c0.37-6.35,0.92-13.17-3.25-18.45c-1.71-2.16-3.95-3.92-6.55-4.87c-2.97-1.09-6.07-0.39-9.14-0.37
			c-3.62,0.03-7.23-0.2-10.84-0.02c-1.92,0.1-1.93,3.1,0,3c3.61-0.18,7.23,0.04,10.84,0.02c2.89-0.02,5.95-0.79,8.7,0.4
			c2.42,1.05,4.42,3.03,5.74,5.29c1.66,2.85,1.76,6.11,1.71,9.32c-0.18,14.03-2.89,27.9-3.85,41.88
			c-0.95,13.8-0.81,27.68,0.41,41.46c0.61,6.85,1.48,13.68,2.61,20.47c1.13,6.81,2.67,13.54,3.72,20.36
			c1.05,6.77,1.56,13.76,0.37,20.54c-1.12,6.4-3.51,12.47-5.65,18.58c-1.06,3.03-2.01,6.09-2.86,9.19
			c-0.81,2.96-1.59,5.94-2.77,8.78c-2.35,5.7-6.65,9.74-11.53,13.33c-11.34,8.33-22.92,16.36-34.38,24.52
			c-10.82,7.71-21.58,16.59-34.24,21.09c-6.12,2.17-12.51,3.43-18.92,4.39c-3.33,0.5-6.67,0.91-10.01,1.31
			c-3.37,0.4-6.73,0.62-9.93-0.74c-3.03-1.3-5.85-3.22-8.68-4.89c-3.09-1.82-6.17-3.63-9.26-5.45c-6.1-3.59-12.2-7.18-18.3-10.76
			c-3.01-1.77-6.02-3.54-9.04-5.32C385.52,532.58,384,535.17,385.67,536.15L385.67,536.15z"/>
	</g>
</g>
<g>
	<g>
		<path class="st0" d="M372.83,312.54c1.93,0,1.93-3,0-3C370.9,309.54,370.9,312.54,372.83,312.54L372.83,312.54z"/>
	</g>
</g>
<g>
	<g>
		<path class="st0" d="M377.98,311.93c5.27-2.88,10.34-6.11,15.18-9.66c0.65-0.48,0.98-1.3,0.54-2.05c-0.38-0.64-1.4-1.02-2.05-0.54
			c-4.84,3.56-9.91,6.78-15.18,9.66C374.77,310.26,376.29,312.86,377.98,311.93L377.98,311.93z"/>
	</g>
</g>
<g>
	<g>
		<path class="st0" d="M357.54,295.12c5.6-4.06,11.02-8.38,16.18-12.98c2.23-1.99,2.2-5.64,0.47-7.88
			c-1.82-2.35-5.12-3.04-7.74-1.55c-0.5,0.29-1,0.56-1.52,0.81c-0.26,0.13-0.52,0.25-0.78,0.36c0.77-0.32,0.85-0.36,0.24-0.11
			c-1.1,0.37-2.18,0.74-3.31,0.99c-0.51,0.11-1.17,0.34-1.7,0.31c0.88-0.11,0.99-0.14,0.31-0.06c-0.29,0.03-0.57,0.05-0.86,0.06
			c-0.31,0.02-1.4-0.14-1.63,0.03c1.86,0.07,3.17,1.18,3.95,3.33c0,0.74,0.01,1.48,0.01,2.23c-0.26,0.95-0.83,1.69-1.71,2.23
			c0.21-0.14,0.43-0.26,0.66-0.36c-0.85,0.35-0.98,0.42-0.37,0.2c0.29-0.1,0.58-0.2,0.87-0.31c1.16-0.41,2.31-0.84,3.46-1.27
			c2.23-0.84,4.44-1.73,6.64-2.65c9.21-3.86,18.13-8.29,26.69-13.44c2.69-1.62,3.92-5.46,2.15-8.21c-1.74-2.7-5.33-3.88-8.21-2.15
			c-7.64,4.6-15.58,8.68-23.77,12.2c-0.28,0.12-0.56,0.26-0.85,0.36c0.04-0.01,1-0.42,0.37-0.16c-0.5,0.2-0.99,0.41-1.49,0.62
			c-1.07,0.44-2.14,0.86-3.21,1.28c-2.05,0.8-4.13,1.52-6.2,2.28c-3.43,1.27-6.25,3.47-6.77,7.31c-0.28,2.1,0.26,3.95,1.54,5.62
			c1.46,1.89,3.58,2.66,5.89,2.87c2.57,0.23,5.34-0.24,7.83-0.84c2.72-0.66,5.39-1.78,7.82-3.17c-2.42-3.14-4.85-6.28-7.27-9.42
			c-2.33,2.08-4.71,4.11-7.14,6.07c-0.61,0.49-1.22,0.98-1.83,1.46c-0.24,0.19-0.48,0.4-0.74,0.58c1.09-0.74,0.15-0.11-0.09,0.06
			c-1.3,1-2.62,1.97-3.95,2.93c-1.3,0.94-2.32,1.98-2.76,3.59c-0.4,1.44-0.22,3.35,0.6,4.62
			C350.95,295.48,354.82,297.09,357.54,295.12L357.54,295.12z"/>
	</g>
</g>
<g>
	<g>
		<path class="st0" d="M264.12,251.24c-2.19,2.32-4.38,4.64-6.68,6.86c-1.15,1.1-2.32,2.18-3.53,3.21
			c-0.55,0.47-1.11,0.92-1.67,1.38c-1.15,0.94,1.05-0.75-0.16,0.12c-0.35,0.25-0.7,0.51-1.05,0.76c-2.62,1.84-5.6,3.72-8.65,4.76
			c1.44-0.49-0.03,0.01-0.28,0.11c-0.43,0.18-0.86,0.35-1.29,0.52c-0.72,0.29-1.44,0.56-2.17,0.84c-1.59,0.62-3.19,1.23-4.76,1.88
			c-3.54,1.46-7.03,3.04-10.43,4.82c-3.3,1.74-6.42,3.95-8.02,7.44c-1.62,3.53-1.93,7.34-1.92,11.18c0,3.86,0.34,7.75,0.98,11.56
			c0.38,2.26,1.25,4.38,2.51,6.29c0.46,0.69,0.94,1.37,1.34,2.1c-0.03-0.06,0.36,0.69,0.35,0.69c-0.34-0.84-0.4-0.96-0.17-0.35
			c0.09,0.24,0.16,0.49,0.24,0.74c0.09,0.31,0.16,0.63,0.23,0.94c0.31,1.52,0.01-1.08,0.02,0.14c0,0.24-0.17,2.19-0.04,2.33
			c0.04-0.27,0.07-0.55,0.11-0.82c-0.04,0.26-0.09,0.51-0.15,0.76c-0.09,0.38-0.19,0.75-0.31,1.12c-0.04,0.12-0.08,0.25-0.13,0.37
			c-0.23,0.61-0.18,0.49,0.16-0.36c0.03,0.01-0.68,1.26-0.75,1.36c-1.64,2.68-0.67,6.72,2.15,8.21c3.14,1.66,6.21,0.55,8.21-2.15
			c2.92-3.94,4.23-8.85,5.47-13.52c0.56-2.12,1.13-4.24,1.93-6.28c0.37-0.94,0.12,0-0.14,0.31c0.17-0.2,0.25-0.55,0.37-0.78
			c0.23-0.46,0.47-0.92,0.73-1.36c0.29-0.49,0.67-0.94,0.95-1.43c-0.11,0.2-0.83,1-0.29,0.4c0.24-0.26,0.47-0.52,0.71-0.77
			c2.18-2.26,2.42-6.27,0-8.49c-2.36-2.17-6.16-2.41-8.49,0c-3.79,3.92-5.67,8.98-7.07,14.16c-0.59,2.19-1.13,4.4-1.86,6.56
			c-0.19,0.56-0.4,1.11-0.6,1.66c-0.37,0.99,0.45-0.97,0.13-0.3c-0.13,0.26-0.24,0.53-0.37,0.79c-0.52,1.05-1.13,2.04-1.83,2.98
			c3.45,2.02,6.91,4.04,10.36,6.06c3.97-6.46,3.47-14.58-0.68-20.8c-0.39-0.58-0.76-1.17-1.1-1.78c-0.66-1.17,0.26,1.17-0.04-0.22
			c-0.06-0.29-0.15-0.58-0.22-0.88c-0.1-0.45-0.16-0.89-0.24-1.34c-0.26-1.53,0.12,1.33-0.03-0.28c-0.09-0.95-0.2-1.9-0.27-2.86
			c-0.12-1.59-0.17-3.19-0.18-4.78c0-0.77,0.01-1.54,0.04-2.31c0.02-0.4,0.03-0.8,0.07-1.2c0.02-0.27,0.04-0.53,0.07-0.8
			c-0.13,0.86-0.15,1.06-0.08,0.6c0.15-0.72,0.32-1.41,0.51-2.12c0.31-1.11-0.08,0.39-0.16,0.35c0,0,0.52-1.04,0.58-1.02
			c-0.16,0.19-0.31,0.39-0.47,0.58c0.17-0.21,0.36-0.4,0.55-0.59c0.16-0.15,0.5-0.37,0.6-0.54c-0.19,0.15-0.38,0.3-0.57,0.45
			c0.22-0.16,0.45-0.31,0.68-0.45c0.35-0.22,0.7-0.42,1.06-0.62c1.48-0.82,2.99-1.58,4.51-2.31c0.71-0.34,1.42-0.68,2.14-1
			c0.43-0.2,0.86-0.39,1.3-0.58c0.3-0.13,1.63-0.71,0.31-0.14c6.52-2.83,13.41-4.81,19.38-8.77c6.25-4.14,11.47-9.51,16.58-14.93
			c2.15-2.28,2.44-6.25,0-8.49C270.27,249.09,266.42,248.8,264.12,251.24L264.12,251.24z"/>
	</g>
</g>
<g>
	<g>
		<path class="st0" d="M318.99,346.73c1.57-2.76,3.33-5.41,5.26-7.92c-0.31,0.4-0.63,0.81-0.94,1.21
			c3.06-3.93,6.53-7.51,10.37-10.68c1.12-0.92,1.76-2.85,1.76-4.24c0-1.47-0.65-3.23-1.76-4.24c-1.14-1.05-2.64-1.83-4.24-1.76
			c-1.68,0.08-2.95,0.69-4.24,1.76c-6.66,5.49-12.31,12.31-16.57,19.81c-1.55,2.73-0.74,6.68,2.15,8.21
			C313.62,350.38,317.33,349.64,318.99,346.73L318.99,346.73z"/>
	</g>
</g>
<g>
	<g>
		<path class="st0" d="M379.85,314.29c0.95-0.78-1.03,0.67-0.08,0.07c0.35-0.22,0.69-0.46,1.04-0.67c0.59-0.35,1.53-0.61,2.03-1.05
			c-0.26,0.11-0.52,0.22-0.78,0.33c0.22-0.09,0.44-0.17,0.66-0.26c0.33-0.12,0.67-0.24,1.01-0.35c0.68-0.22,1.37-0.42,2.07-0.6
			c2.96-0.76,6-1.19,9-1.77c3.39-0.66,6.63-1.6,9.76-3.08c1.4-0.66,2.64-1.53,3.92-2.39c0.34-0.23,0.72-0.42,1.05-0.66
			c0.59-0.29,0.48-0.27-0.31,0.08c0.14-0.05,0.28-0.09,0.42-0.14c0.29-0.08,0.57-0.15,0.87-0.21c-0.79,0.09-0.95,0.11-0.49,0.06
			c0.52-0.03,1.04-0.08,1.57-0.1c3.13-0.16,6.15-2.65,6-6c-0.14-3.12-2.64-6.17-6-6c-2.81,0.14-5.41,0.52-7.93,1.85
			c-1.57,0.83-2.93,2.01-4.51,2.82c-0.32,0.16-0.65,0.31-0.97,0.47c-1.16,0.56,1.32-0.47,0.11-0.06c-0.8,0.27-1.59,0.56-2.4,0.79
			c-1.53,0.43-3.08,0.76-4.64,1.06c-3.12,0.59-6.27,1.04-9.34,1.89c-3.93,1.09-7.4,2.85-10.55,5.42c-2.44,2-2.23,6.44,0,8.49
			C373.96,316.67,377.25,316.43,379.85,314.29L379.85,314.29z"/>
	</g>
</g>
<g>
	<g>
		<path class="st0" d="M451.23,293.14c-3.68-1.13-7.47-0.56-11.23-1.01c0.53,0.07,1.06,0.14,1.6,0.21
			c-1.84-0.27-3.57-0.93-5.35-1.44c-2.63-0.75-5.14-0.89-7.82-0.41c-1.4,0.25-2.89,1.57-3.59,2.76c-0.75,1.29-1.07,3.18-0.6,4.62
			c0.47,1.45,1.37,2.85,2.76,3.59c1.5,0.79,2.95,0.9,4.62,0.6c0.11-0.02,0.22-0.04,0.33-0.06c-0.53,0.07-1.06,0.14-1.6,0.21
			c0.78-0.1,1.54-0.08,2.32,0.02c-0.53-0.07-1.06-0.14-1.6-0.21c2.5,0.41,4.82,1.52,7.33,1.89c3.05,0.45,6.1,0.2,9.14,0.56
			c-0.53-0.07-1.06-0.14-1.6-0.21c0.71,0.1,1.4,0.25,2.09,0.46c3,0.92,6.68-1.09,7.38-4.19
			C456.16,297.27,454.45,294.12,451.23,293.14L451.23,293.14z"/>
	</g>
</g>
<g>
	<g>
		<path class="st0" d="M463.12,299.92c2.15,0.38,4.24,0.96,6.29,1.71c0.52,0.19,1.14,0.36,1.62,0.63c-0.21-0.09-0.42-0.18-0.63-0.27
			c0.27,0.12,0.53,0.23,0.8,0.35c1,0.45,1.99,0.92,2.97,1.41c3.96,1.97,7.83,4.13,11.74,6.21c2.77,1.48,6.66,0.79,8.21-2.15
			c1.47-2.78,0.8-6.63-2.15-8.21c-8.13-4.34-16.45-9.65-25.65-11.26c-1.63-0.28-3.15-0.26-4.62,0.6c-1.24,0.73-2.43,2.16-2.76,3.59
			C458.26,295.46,459.81,299.34,463.12,299.92L463.12,299.92z"/>
	</g>
</g>
<g>
	<g>
		<path class="st0" d="M455.55,327.51c3.14,0,6.15-2.76,6-6c-0.15-3.25-2.64-6-6-6c-3.14,0-6.15,2.76-6,6
			C449.7,324.76,452.19,327.51,455.55,327.51L455.55,327.51z"/>
	</g>
</g>
<g>
	<g>
		<path class="st0" d="M395.3,324.45c3.14,0,6.15-2.76,6-6c-0.15-3.25-2.64-6-6-6c-3.14,0-6.15,2.76-6,6
			C389.44,321.7,391.93,324.45,395.3,324.45L395.3,324.45z"/>
	</g>
</g>
<g>
	<g>
		<path class="st0" d="M397.96,323.67c1.12-0.22,2.25-0.44,3.37-0.64c0.64-0.12,1.29-0.23,1.94-0.33c0.34-0.05,1.79-0.38,0.35-0.06
			c2.14-0.48,4.64-0.39,6.81-0.23c0.31,0.02,0.62,0.05,0.93,0.09c-0.24-0.03-0.48-0.07-0.72-0.1c0.55-0.01,1.2,0.2,1.73,0.31
			c1,0.21,2,0.48,2.98,0.79c0.91,0.29,1.8,0.64,2.7,0.97c0.41,0.17,0.28,0.11-0.41-0.18c0.27,0.12,0.54,0.24,0.81,0.36
			c0.47,0.21,0.94,0.43,1.41,0.66c7.68,3.73,14.89,8.66,21.71,13.76c1.89,1.41,4.96,0.85,6.66-0.47c1.71-1.32,3.05-4.12,2.15-6.31
			c-0.97-2.33-2.15-4.39-4.08-6.07c-1.6-1.4-3.36-2.57-5.18-3.65c-2.58-1.53-5.94-0.78-7.74,1.55c-1.74,2.25-1.76,5.87,0.47,7.88
			c3.34,3,7.01,5.67,10.96,7.82c2.76,1.5,6.66,0.77,8.21-2.15c1.48-2.8,0.79-6.61-2.15-8.21c-1.69-0.92-3.33-1.92-4.9-3.02
			c-0.36-0.25-0.72-0.52-1.08-0.78c-1.09-0.79,0.77,0.64-0.19-0.14c-0.8-0.66-1.59-1.32-2.36-2.01c-2.42,3.14-4.85,6.28-7.27,9.42
			c0.55,0.33,1.1,0.65,1.64,1c0.33,0.21,0.64,0.43,0.96,0.65c0.9,0.6-0.68-0.61-0.14-0.12c0.47,0.43,0.91,0.86,1.36,1.31
			c0.49,0.47-0.63-1.1-0.15-0.18c0.19,0.37,0.71,1.45,0.07-0.1c2.94-2.26,5.88-4.52,8.81-6.78c-7.15-5.35-14.77-10.61-22.92-14.33
			c-4.67-2.13-9.37-3.63-14.52-3.97c-5.16-0.35-10.37,0.71-15.41,1.7c-3.09,0.6-5.14,4.46-4.19,7.38
			C391.64,322.76,394.65,324.32,397.96,323.67L397.96,323.67z"/>
	</g>
</g>
<g>
	<g>
		<path class="st0" d="M485.9,345.45c0.8,1.61,2.07,3.01,3.43,4.18c0.53,0.45,1.07,0.89,1.58,1.36c0.28,0.26,0.56,0.53,0.82,0.82
			c0.09,0.1,0.17,0.19,0.26,0.29c0.33,0.4,0.33,0.39,0.02-0.01c-0.31-0.41-0.31-0.4,0,0.01c0.07,0.11,0.15,0.21,0.22,0.32
			c0.21,0.32,0.42,0.65,0.61,0.99c0.19,0.34,0.37,0.68,0.55,1.03c0.06,0.12,0.11,0.23,0.17,0.35c0.27,0.59,0.22,0.47-0.14-0.36
			c0.16,0.01,0.61,1.66,0.67,1.85c0.25,0.76,0.46,1.52,0.66,2.29c1.64,6.35,2.2,13.2,7.31,17.95c3.21,2.99,8.89,1.88,10.03-2.65
			c0.98-3.91,1.41-7.63,0.51-11.61c-0.67-2.96-2-5.72-2.83-8.63c-0.86-3.02-4.28-5.19-7.38-4.19c-3.07,1-5.11,4.15-4.19,7.38
			c0.75,2.63,1.9,5.14,2.62,7.78c0.13,0.49,0.15,1.52,0.42,1.92c-0.19-0.28-0.07-1.15-0.07-0.29c0,0.37,0.03,0.74,0.01,1.12
			c-0.01,0.32-0.27,0.98,0.01,0.39c0.35-0.75-0.07,0.38-0.12,0.62c-0.16,0.78-0.35,1.56-0.55,2.33c3.34-0.88,6.69-1.77,10.03-2.65
			c-0.28-0.26-0.54-0.53-0.8-0.81c-0.74-0.77,0.49,0.79,0.13,0.18c-0.36-0.6-0.71-1.18-1.04-1.79c-0.62-1.15,0.43,1.28,0.01,0.03
			c-0.1-0.3-0.22-0.6-0.32-0.91c-0.22-0.68-0.41-1.37-0.59-2.06c-0.7-2.8-1.12-5.67-1.92-8.45c-0.89-3.1-2.14-6.22-4.1-8.8
			c-1.07-1.41-2.16-2.64-3.51-3.78c-0.53-0.45-1.06-0.89-1.55-1.38c-0.13-0.13-0.26-0.26-0.38-0.4c-0.3-0.34-0.18-0.17,0.36,0.5
			c0.03-0.07-0.51-0.88-0.55-0.96c-1.39-2.82-5.62-3.82-8.21-2.15C485.17,339.1,484.41,342.43,485.9,345.45L485.9,345.45z"/>
	</g>
</g>
<g>
	<g>
		<path class="st0" d="M520.4,368.62c3.14,0,6.15-2.76,6-6c-0.15-3.25-2.64-6-6-6c-3.14,0-6.15,2.76-6,6
			C514.55,365.87,517.04,368.62,520.4,368.62L520.4,368.62z"/>
	</g>
</g>
<g>
	<g>
		<path class="st0" d="M539.34,361.63c0.2,0.3,0.36,0.6,0.5,0.92c-0.2-0.48-0.4-0.96-0.6-1.43c0.15,0.41,0.25,0.83,0.32,1.26
			c-0.07-0.53-0.14-1.06-0.21-1.6c0.15,1.14,0.08,2.27,0.07,3.41c-0.02,1.62,0.18,3.26,0.54,4.85c0.53,2.39,1.54,4.65,1.88,7.09
			c-0.07-0.53-0.14-1.06-0.21-1.6c0.06,0.48,0.09,0.96,0.09,1.45c0.01,3.14,2.75,6.15,6,6c3.25-0.15,6-2.64,6-6
			c0-4.89,0.01-9.77,0.01-14.66c0-3.14-2.76-6.15-6-6c-3.25,0.15-6,2.64-6,6c0,4.89-0.01,9.77-0.01,14.66c4,0,8,0,12,0
			c-0.01-2.14-0.45-4.28-1.08-6.32c-0.5-1.64-1.06-3.27-1.32-4.97c0.07,0.53,0.14,1.06,0.21,1.6c-0.18-1.44-0.05-2.87-0.09-4.31
			c-0.06-2.22-0.48-4.53-1.74-6.42c-0.87-1.3-2.04-2.33-3.59-2.76c-1.44-0.4-3.35-0.22-4.62,0.6
			C538.89,355.1,537.48,358.84,539.34,361.63L539.34,361.63z"/>
	</g>
</g>
<g>
	<g>
		<path class="st0" d="M564.83,399c3.14,0,6.15-2.76,6-6c-0.15-3.25-2.64-6-6-6c-3.14,0-6.15,2.76-6,6
			C558.98,396.25,561.47,399,564.83,399L564.83,399z"/>
	</g>
</g>
<g>
	<g>
		<path class="st0" d="M590.25,370.28c0,0.01,0,0.02,0,0.03c0.07-0.53,0.14-1.06,0.21-1.6c-0.01,0.04-0.02,0.08-0.03,0.12
			c0.2-0.48,0.4-0.96,0.6-1.43c-0.02,0.04-0.04,0.09-0.07,0.12c0.31-0.4,0.63-0.81,0.94-1.21c-0.03,0.04-0.07,0.08-0.11,0.11
			c0.4-0.31,0.81-0.63,1.21-0.94c-0.04,0.03-0.09,0.06-0.14,0.08c0.48-0.2,0.96-0.4,1.43-0.6c-0.05,0.02-0.1,0.03-0.15,0.04
			c0.53-0.07,1.06-0.14,1.6-0.21c-0.05,0.01-0.1,0.01-0.14,0c0.53,0.07,1.06,0.14,1.6,0.21c-0.04-0.01-0.08-0.02-0.11-0.03
			c-0.8-0.25-1.6-0.29-2.39-0.11c-0.8,0.04-1.54,0.27-2.23,0.71c-0.7,0.38-1.26,0.89-1.68,1.55c-0.53,0.58-0.89,1.26-1.07,2.04
			c-0.07,0.53-0.14,1.06-0.21,1.6c0,1.08,0.28,2.09,0.82,3.03c0.31,0.4,0.63,0.81,0.94,1.21c0.75,0.74,1.63,1.26,2.65,1.54
			c0.02,0.01,0.05,0.02,0.07,0.02c0.54,0.13,1.1,0.17,1.65,0.22c0.02,0,0.05,0,0.07,0c0.52-0.02,2.24-0.31,1.65-0.22
			c0.05-0.01,0.09-0.02,0.13-0.03c0.01,0,0.01,0,0.02-0.01c0.48-0.2,0.96-0.4,1.43-0.6c0.01-0.01,0.02-0.01,0.04-0.02
			c0.02-0.01,0.04-0.02,0.06-0.03c1.14-0.72,1.59-1.22,2.33-2.33c0.01-0.02,0.02-0.04,0.03-0.06c0.24-0.48,0.44-0.98,0.63-1.49
			c0.01-0.02,0.01-0.04,0.02-0.06c0.12-0.55,0.18-1.11,0.22-1.66c0.03-0.83-0.14-1.6-0.52-2.31c-0.24-0.74-0.66-1.39-1.24-1.93
			c-0.54-0.59-1.19-1-1.93-1.24c-0.72-0.38-1.49-0.55-2.31-0.52c-0.53,0.07-1.06,0.14-1.6,0.21c-1.02,0.29-1.9,0.8-2.65,1.54
			c-0.31,0.4-0.63,0.81-0.94,1.21C590.53,368.19,590.26,369.19,590.25,370.28L590.25,370.28z"/>
	</g>
</g>
<g>
	<g>
		<path class="st0" d="M583.47,361.33c-2.03,7.2-3.33,14.58-4.06,22.03c-0.24,2.48,2.02,5.26,4.4,5.79
			c4.74,1.05,9.21,0.05,13.89-0.78c0.18-0.03,1.93-0.24,0.93-0.16c-1.01,0.08,0.76-0.05,0.93-0.06c0.43-0.02,0.86-0.03,1.3-0.02
			c0.29,0.01,0.58,0.02,0.86,0.05c-0.82-0.13-1-0.15-0.54-0.08c0.49,0.1,0.97,0.19,1.45,0.32c0.12,0.04,1.11,0.44,1.21,0.4
			c-0.77-0.34-0.86-0.38-0.26-0.1c0.19,0.09,0.38,0.19,0.57,0.29c0.44,0.23,0.87,0.48,1.29,0.75c0.18,0.12,0.67,0.61,0.9,0.62
			c-0.73-0.58-0.85-0.67-0.35-0.27c0.19,0.15,0.37,0.31,0.56,0.47c0.55,0.48,1.08,0.98,1.6,1.5c1.22,1.21,2.36,2.5,3.53,3.76
			c2.46,2.65,5.2,5.24,8.48,6.84c-0.72-2.74-1.43-5.47-2.15-8.21c0.93-1.6,2.18-2.29,3.75-2.04c1.22,0.14,1.5,0.11,0.85-0.11
			c-2.93-1.13-6.71,1.25-7.38,4.19c-0.78,3.44,1.05,6.17,4.19,7.38c1.38,0.53,3.15,0.46,4.53,0.05c2.01-0.59,3.18-1.81,4.41-3.41
			c0.85-1.1,1.01-3.36,0.6-4.62c-0.46-1.42-1.36-2.91-2.76-3.59c-0.76-0.37-1.49-0.79-2.18-1.26c-0.2-0.14-0.39-0.28-0.58-0.42
			c0.74,0.58,0.86,0.67,0.37,0.27c-0.27-0.24-0.55-0.47-0.82-0.71c-1.27-1.14-2.43-2.4-3.58-3.66c-2.51-2.73-5.09-5.42-8.28-7.36
			c-4-2.44-8.69-3.42-13.32-2.85c-2.43,0.3-4.8,0.81-7.21,1.21c-0.21,0.04-0.43,0.07-0.64,0.1c-0.46,0.07-0.29,0.05,0.52-0.07
			c-0.39,0.21-1.27,0.12-1.71,0.13c-0.43,0.01-0.85-0.02-1.28-0.02c-0.67-0.06-0.57-0.03,0.32,0.08c-0.28-0.05-0.56-0.1-0.84-0.17
			c1.47,1.93,2.94,3.86,4.4,5.79c0.08-0.8,0.16-1.61,0.25-2.41c0.05-0.46,0.07-0.99,0.18-1.44c-0.19,0.78-0.08,0.61,0.02-0.08
			c0.24-1.68,0.52-3.35,0.84-5.01c0.63-3.33,1.42-6.63,2.34-9.89c0.85-3.02-1.04-6.66-4.19-7.38
			C587.66,356.41,584.38,358.09,583.47,361.33L583.47,361.33z"/>
	</g>
</g>
<g>
	<g>
		<path class="st0" d="M618.12,408.37c0.38,0.3,0.75,0.61,1.09,0.95c0.17,0.17,0.32,0.35,0.49,0.52c0.81,0.87-0.5-0.81-0.17-0.22
			c0.23,0.42,0.52,0.8,0.74,1.23c0.11,0.21,0.21,0.43,0.32,0.65c0.34,0.66-0.39-1.15-0.19-0.43c0.27,0.97,0.44,2.08,0.78,3.02
			c-0.08-0.23-0.14-1.33-0.07-0.49c0.02,0.25,0.05,0.49,0.06,0.74c0.04,0.56,0.05,1.11,0.04,1.67c-0.01,0.51-0.04,1.01-0.08,1.52
			c-0.01,0.16-0.16,1.19-0.02,0.37c0.14-0.83-0.04,0.21-0.06,0.37c-0.22,1.32-0.51,2.62-0.83,3.92c-0.64,2.6-1.38,5.17-1.91,7.8
			c-0.62,3.07,0.88,6.63,4.19,7.38c2.99,0.68,6.72-0.9,7.38-4.19c1.2-5.93,3.44-11.77,3.33-17.9c-0.1-5.61-2.02-11.81-6.59-15.39
			c-1.31-1.02-2.51-1.76-4.24-1.76c-1.47,0-3.23,0.65-4.24,1.76C616.15,402.04,615.48,406.3,618.12,408.37L618.12,408.37z"/>
	</g>
</g>
<g>
	<g>
		<path class="st0" d="M516.32,295.85c3.14,0,6.15-2.76,6-6c-0.15-3.25-2.64-6-6-6c-3.14,0-6.15,2.76-6,6
			C510.46,293.1,512.96,295.85,516.32,295.85L516.32,295.85z"/>
	</g>
</g>
<g>
	<g>
		<path class="st0" d="M521.43,311.43c3.14,0,6.15-2.76,6-6c-0.15-3.25-2.64-6-6-6c-3.14,0-6.15,2.76-6,6
			C515.57,308.68,518.06,311.43,521.43,311.43L521.43,311.43z"/>
	</g>
</g>
<g>
	<g>
		<path class="st0" d="M519.77,311.45c0.48,0.17,0.95,0.36,1.42,0.53c0.6,0.24,0.48,0.18-0.37-0.17c0.23,0.1,0.47,0.21,0.7,0.31
			c0.46,0.22,0.91,0.45,1.35,0.7c0.22,0.13,0.43,0.26,0.64,0.39c0.52,0.37,0.42,0.27-0.32-0.28c0,0.04,1.07,1.02,1.06,1.02
			c-0.54-0.74-0.63-0.85-0.27-0.32c0.15,0.23,0.28,0.47,0.41,0.71c0.72,1.28,1.45,2.52,2.5,3.57c1.01,1.01,2.28,1.75,3.52,2.44
			c0.47,0.26,0.91,0.55,1.37,0.82c0.53,0.37,0.44,0.3-0.25-0.23c0.21,0.17,0.41,0.34,0.61,0.51c0.81,0.71,1.5,1.51,2.21,2.31
			c0.4,0.5,0.34,0.41-0.18-0.26c0.16,0.22,0.33,0.43,0.48,0.65c0.28,0.38,0.55,0.77,0.82,1.16c1.24,1.81,2.49,3.65,3.51,5.59
			c0.14,0.26,0.27,0.52,0.4,0.79c0.28,0.61,0.25,0.53-0.08-0.22c0.31,0.35,0.42,1.24,0.54,1.69c0.11,0.43,0.46,1.28,0.36,1.72
			c-0.11-0.87-0.12-0.97-0.05-0.29c0.03,0.29,0.05,0.59,0.07,0.88c0.31,4.79-0.54,9.58-0.01,14.37c0.18,1.64,0.55,3.03,1.76,4.24
			c1.04,1.04,2.75,1.82,4.24,1.76c2.96-0.13,6.37-2.66,6-6c-0.44-3.97,0.06-7.94,0.08-11.92c0.03-4.81-0.88-9.42-3.26-13.64
			c-1.95-3.46-4.29-6.97-6.98-9.9c-1.45-1.58-3.2-3.01-5.06-4.09c-0.69-0.4-1.37-0.79-2.06-1.18c-0.68-0.39,0.87,0.75,0.31,0.19
			c-0.45-0.45,0.32,0.39,0.31,0.42c0.05-0.15-0.61-1.07-0.7-1.25c-2.55-4.69-7.1-6.84-11.89-8.59c-2.95-1.08-6.7,1.21-7.38,4.19
			C514.81,307.46,516.61,310.29,519.77,311.45L519.77,311.45z"/>
	</g>
</g>
</svg>
