<svg width="1275" height="753" xmlns="http://www.w3.org/2000/svg" xmlns:xlink="http://www.w3.org/1999/xlink" xml:space="preserve" overflow="hidden"><defs><clipPath id="clip0"><rect x="1482" y="917" width="1275" height="753"/></clipPath></defs><g clip-path="url(#clip0)" transform="translate(-1482 -917)"><path d="M2203 1613.5C2203 1604.39 2210.39 1597 2219.5 1597L2219.5 1597C2228.61 1597 2236 1604.39 2236 1613.5L2236 1653.5C2236 1662.61 2228.61 1670 2219.5 1670L2219.5 1670C2210.39 1670 2203 1662.61 2203 1653.5Z" fill="#A8B0BC" fill-rule="evenodd"/><path d="M2159 1613.5C2159 1604.39 2166.39 1597 2175.5 1597L2175.5 1597C2184.61 1597 2192 1604.39 2192 1613.5L2192 1653.5C2192 1662.61 2184.61 1670 2175.5 1670L2175.5 1670C2166.39 1670 2159 1662.61 2159 1653.5Z" fill="#A8B0BC" fill-rule="evenodd"/><path d="M2078 1514.5C2078 1445.74 2133.29 1390 2201.5 1390 2269.71 1390 2325 1445.74 2325 1514.5 2325 1583.26 2269.71 1639 2201.5 1639 2133.29 1639 2078 1583.26 2078 1514.5Z" fill="#C66B60" fill-rule="evenodd"/><path d="M173.496 86.1339C339.919-90.5543 553.154 12.9337 649.771 317.281 668.39 375.933 681.77 439.645 689.406 506.011" stroke="#A8B0BC" stroke-width="34.375" stroke-miterlimit="8" fill="none" fill-rule="evenodd" transform="matrix(-0.981225 0.192864 0.192864 0.981225 2082.15 1002.27)"/><path d="M1645 1228.5C1645 1058.12 1783.12 920 1953.5 920L2448.5 920C2618.88 920 2757 1058.12 2757 1228.5L2757 1228.5C2757 1398.88 2618.88 1537 2448.5 1537L1953.5 1537C1783.12 1537 1645 1398.88 1645 1228.5Z" fill="#E3E4E5" fill-rule="evenodd"/><path d="M2106 1233C2106 1180.53 2148.53 1138 2201 1138 2253.47 1138 2296 1180.53 2296 1233 2296 1285.47 2253.47 1328 2201 1328 2148.53 1328 2106 1285.47 2106 1233Z" fill="#52565A" fill-rule="evenodd"/><path d="M2183 1299C2183 1246.53 2225.53 1204 2278 1204 2330.47 1204 2373 1246.53 2373 1299 2373 1351.47 2330.47 1394 2278 1394 2225.53 1394 2183 1351.47 2183 1299Z" fill="#52565A" fill-rule="evenodd"/><path d="M2132 917.561C2131.73 976.654 2090.33 1024.31 2039.52 1024 1988.9 1023.69 1948 975.875 1948 917L2040 917Z" fill="#52565A" fill-rule="evenodd"/><path d="M1649.1 1278.85C1652.17 1237.93 1731.38 1189.8 1765.4 1197.9 1799.42 1206 1861.61 1270.95 1853.23 1327.46 1853.23 1379.7 1781 1451.47 1746.98 1443.37 1712.96 1435.27 1646.03 1319.76 1649.1 1278.85Z" fill="#52565A" fill-rule="evenodd"/></g></svg>