<svg width="229" height="228" xmlns="http://www.w3.org/2000/svg" xmlns:xlink="http://www.w3.org/1999/xlink" xml:space="preserve" overflow="hidden"><defs><clipPath id="clip0"><rect x="541" y="255" width="229" height="228"/></clipPath></defs><g clip-path="url(#clip0)" transform="translate(-541 -255)"><path d="M182.875 109.25C180.262 109.25 178.125 107.112 178.125 104.5 178.125 101.888 180.262 99.75 182.875 99.75 185.488 99.75 187.625 101.888 187.625 104.5 187.625 107.112 185.488 109.25 182.875 109.25ZM142.5 80.75C136.8 80.75 130.625 81.225 124.45 82.175L90.25 64.125C90.25 64.125 90.4875 77.9 95.475 88.35 75.05 93.575 55.8125 99.75 42.75 99.75L9.5 80.75C9.5 93.8125 16.625 114 16.625 114 16.625 114 9.5 134.188 9.5 147.25L42.75 128.25C55.8125 128.25 75.05 134.425 95.475 139.65 90.4875 150.1 90.25 163.875 90.25 163.875L124.45 145.825C130.625 146.775 136.8 147.25 142.5 147.25 172.662 147.25 218.5 124.688 218.5 114 218.5 103.312 172.662 80.75 142.5 80.75Z" fill="#E18957" transform="matrix(1.00439 0 0 1 541 255)"/></g></svg>