<svg width="753" height="698" xmlns="http://www.w3.org/2000/svg" xmlns:xlink="http://www.w3.org/1999/xlink" xml:space="preserve" overflow="hidden"><defs><clipPath id="clip0"><rect x="2291" y="534" width="753" height="698"/></clipPath></defs><g clip-path="url(#clip0)" transform="translate(-2291 -534)"><path d="M2922.33 805.021C2969.41 800.552 3011.52 838.551 3016.39 889.892 3019.9 926.885 3028.92 963.355 3043.45 999.303 3008.39 990.512 2973.9 987.726 2939.97 990.945 2892.9 995.414 2850.78 957.416 2845.91 906.074 2841.03 854.732 2875.25 809.489 2922.33 805.021Z" fill="#C66B60" fill-rule="evenodd"/><path d="M2499.36 901.179C2496.37 949.159 2452.9 985.5 2402.27 982.349 2365.79 980.078 2328.95 983.42 2291.77 992.374 2305.77 958.54 2313.84 924.338 2315.99 889.768 2318.98 841.788 2362.45 805.447 2413.08 808.598 2463.72 811.749 2502.34 853.199 2499.36 901.179Z" fill="#C66B60" fill-rule="evenodd"/><path d="M2684.97 846.245C2577.9 902.815 2455.93 882.099 2412.54 799.974 2369.15 717.849 2420.77 605.414 2527.84 548.844 2482.51 683.82 2547.92 807.629 2684.97 846.245Z" fill="#A8B0BC" fill-rule="evenodd"/><path d="M2794.4 534.371C2908.64 574.532 2976.28 678.124 2945.48 765.75 2914.68 853.376 2797.09 891.854 2682.85 851.693 2812.7 793.288 2859.14 661.186 2794.4 534.371Z" fill="#A8B0BC" fill-rule="evenodd"/><path d="M2398 864.299C2398 765.275 2478.27 685 2577.3 685L2760.7 685C2859.73 685 2940 765.275 2940 864.299L2940 1052.7C2940 1151.73 2859.73 1232 2760.7 1232L2577.3 1232C2478.27 1232 2398 1151.73 2398 1052.7Z" fill="#EBF7FE" fill-rule="evenodd"/><path d="M2708.06 786.971C2710.45 752.007 2788.57 682.507 2827.56 685.07 2866.55 687.632 2942 737.576 2942 802.345 2942 867.114 2852.23 897.413 2813.24 894.851 2774.25 892.289 2705.67 821.934 2708.06 786.971Z" fill="#52565A" fill-rule="evenodd"/><path d="M2488 842.5C2488 823.998 2505.01 809 2526 809 2546.99 809 2564 823.998 2564 842.5 2564 861.001 2546.99 876 2526 876 2505.01 876 2488 861.001 2488 842.5Z" fill-rule="evenodd"/><path d="M2776 842.5C2776 823.998 2793.01 809 2814 809 2834.99 809 2852 823.998 2852 842.5 2852 861.001 2834.99 876 2814 876 2793.01 876 2776 861.001 2776 842.5Z" fill-rule="evenodd"/><path d="M2422 1125C2422 1070.88 2487.59 1027 2568.5 1027 2649.41 1027 2715 1070.88 2715 1125 2715 1179.12 2649.41 1223 2568.5 1223 2487.59 1223 2422 1179.12 2422 1125Z" fill="#C66B60" fill-rule="evenodd"/><path d="M2618 1125C2618 1070.88 2683.37 1027 2764 1027 2844.63 1027 2910 1070.88 2910 1125 2910 1179.12 2844.63 1223 2764 1223 2683.37 1223 2618 1179.12 2618 1125Z" fill="#C66B60" fill-rule="evenodd"/><path d="M2481 1117.5C2481 1099 2497.79 1084 2518.5 1084 2539.21 1084 2556 1099 2556 1117.5 2556 1136 2539.21 1151 2518.5 1151 2497.79 1151 2481 1136 2481 1117.5Z" fill="#E47C6E" fill-rule="evenodd"/><path d="M2757 1125.5C2757 1107 2774.01 1092 2795 1092 2815.99 1092 2833 1107 2833 1125.5 2833 1144 2815.99 1159 2795 1159 2774.01 1159 2757 1144 2757 1125.5Z" fill="#E47C6E" fill-rule="evenodd"/></g></svg>