<svg width="921" height="493" xmlns="http://www.w3.org/2000/svg" xmlns:xlink="http://www.w3.org/1999/xlink" xml:space="preserve" overflow="hidden"><defs><clipPath id="clip0"><rect x="1774" y="1415" width="921" height="493"/></clipPath></defs><g clip-path="url(#clip0)" transform="translate(-1774 -1415)"><path d="M2518 1437.83C2518 1425.22 2528.22 1415 2540.83 1415L2632.17 1415C2644.78 1415 2655 1425.22 2655 1437.83L2655 1777.17C2655 1789.78 2644.78 1800 2632.17 1800L2540.83 1800C2528.22 1800 2518 1789.78 2518 1777.17Z" fill="#A8B0BC" fill-rule="evenodd"/><path d="M2511 1883.44C2511.21 1809.43 2552.58 1749.69 2603.39 1750 2654.04 1750.31 2695 1810.21 2695 1884L2603 1884Z" fill="#243242" fill-rule="evenodd"/><path d="M2398 1438.83C2398 1426.22 2408.22 1416 2420.83 1416L2512.17 1416C2524.78 1416 2535 1426.22 2535 1438.83L2535 1778.17C2535 1790.78 2524.78 1801 2512.17 1801L2420.83 1801C2408.22 1801 2398 1790.78 2398 1778.17Z" fill="#E3E4E5" fill-rule="evenodd"/><path d="M2380 1895.44C2380.21 1821.43 2421.58 1761.69 2472.39 1762 2523.04 1762.31 2564 1822.21 2564 1896L2472 1896Z" fill="#52565A" fill-rule="evenodd"/><path d="M1899 1489.83C1899 1477.22 1909.22 1467 1921.83 1467L2013.17 1467C2025.78 1467 2036 1477.22 2036 1489.83L2036 1829.17C2036 1841.78 2025.78 1852 2013.17 1852L1921.83 1852C1909.22 1852 1899 1841.78 1899 1829.17Z" fill="#A8B0BC" fill-rule="evenodd"/><path d="M1876 1907.44C1876.21 1833.43 1917.58 1773.69 1968.39 1774 2019.04 1774.31 2060 1834.21 2060 1908L1968 1908Z" fill="#243242" fill-rule="evenodd"/><path d="M1801 1483.83C1801 1471.22 1811.22 1461 1823.83 1461L1915.17 1461C1927.78 1461 1938 1471.22 1938 1483.83L1938 1823.17C1938 1835.78 1927.78 1846 1915.17 1846L1823.83 1846C1811.22 1846 1801 1835.78 1801 1823.17Z" fill="#E3E4E5" fill-rule="evenodd"/><path d="M1774 1907.44C1774.21 1833.43 1815.58 1773.69 1866.39 1774 1917.04 1774.31 1958 1834.21 1958 1908L1866 1908Z" fill="#52565A" fill-rule="evenodd"/></g></svg>